<?xml version="1.0" encoding="utf-8"?><svg width="auto" height="6170" style="overflow:visible " version="1.1" xmlns="http://www.w3.org/2000/svg"><rect x="20" y="20" width="200" height="40" style="fill:white;stroke:black;stroke-width:1" /><text x="30" y="30" font-size="10" style="fill:blue">circuitoInfo</text><rect x="240" y="20" width="200" height="40" style="fill:white;stroke:black;stroke-width:1" /><text x="250" y="30" font-size="10" style="fill:blue">nombre</text><path d="M220 40 C240 40 220 40 240 40" style="fill:transparent;stroke:black" /><rect x="306" y="20" width="137" height="40" style="fill:green;stroke:black;stroke-width:1" /><text x="316" y="30" font-size="8" style="fill:white">Circuito de Hungria</text><rect x="240" y="70" width="200" height="40" style="fill:white;stroke:black;stroke-width:1" /><text x="250" y="80" font-size="10" style="fill:blue">longitudCircuito</text><path d="M220 40 C240 40 220 90 240 90" style="fill:transparent;stroke:black" /><rect x="460" y="70" width="200" height="40" style="fill:white;stroke:black;stroke-width:1" /><text x="470" y="80" font-size="10" style="fill:blue">valorLongitudCircuito</text><path d="M440 90 C460 90 440 90 460 90" style="fill:transparent;stroke:black" /><rect x="526" y="70" width="137" height="40" style="fill:green;stroke:black;stroke-width:1" /><text x="536" y="80" font-size="8" style="fill:white">4.381</text><rect x="460" y="120" width="200" height="40" style="fill:white;stroke:black;stroke-width:1" /><text x="470" y="130" font-size="10" style="fill:blue">unidadesLongitudCircuito</text><path d="M440 90 C460 90 440 140 460 140" style="fill:transparent;stroke:black" /><rect x="526" y="120" width="137" height="40" style="fill:green;stroke:black;stroke-width:1" /><text x="536" y="130" font-size="8" style="fill:white">Km</text><rect x="240" y="220" width="200" height="40" style="fill:white;stroke:black;stroke-width:1" /><text x="250" y="230" font-size="10" style="fill:blue">anchuraMedia</text><path d="M220 40 C240 40 220 240 240 240" style="fill:transparent;stroke:black" /><rect x="460" y="220" width="200" height="40" style="fill:white;stroke:black;stroke-width:1" /><text x="470" y="230" font-size="10" style="fill:blue">valorAnchuraMedia</text><path d="M440 240 C460 240 440 240 460 240" style="fill:transparent;stroke:black" /><rect x="526" y="220" width="137" height="40" style="fill:green;stroke:black;stroke-width:1" /><text x="536" y="230" font-size="8" style="fill:white">12</text><rect x="460" y="270" width="200" height="40" style="fill:white;stroke:black;stroke-width:1" /><text x="470" y="280" font-size="10" style="fill:blue">unidadesAnchuraMedia</text><path d="M440 240 C460 240 440 290 460 290" style="fill:transparent;stroke:black" /><rect x="526" y="270" width="137" height="40" style="fill:green;stroke:black;stroke-width:1" /><text x="536" y="280" font-size="8" style="fill:white">m</text><rect x="240" y="370" width="200" height="40" style="fill:white;stroke:black;stroke-width:1" /><text x="250" y="380" font-size="10" style="fill:blue">fechaCarrera</text><path d="M220 40 C240 40 220 390 240 390" style="fill:transparent;stroke:black" /><rect x="306" y="370" width="137" height="40" style="fill:green;stroke:black;stroke-width:1" /><text x="316" y="380" font-size="8" style="fill:white">21/7/2024</text><rect x="240" y="420" width="200" height="40" style="fill:white;stroke:black;stroke-width:1" /><text x="250" y="430" font-size="10" style="fill:blue">horaInicioEspañola</text><path d="M220 40 C240 40 220 440 240 440" style="fill:transparent;stroke:black" /><rect x="306" y="420" width="137" height="40" style="fill:green;stroke:black;stroke-width:1" /><text x="316" y="430" font-size="8" style="fill:white">15:00</text><rect x="240" y="470" width="200" height="40" style="fill:white;stroke:black;stroke-width:1" /><text x="250" y="480" font-size="10" style="fill:blue">numeroVueltas</text><path d="M220 40 C240 40 220 490 240 490" style="fill:transparent;stroke:black" /><rect x="306" y="470" width="137" height="40" style="fill:green;stroke:black;stroke-width:1" /><text x="316" y="480" font-size="8" style="fill:white">70</text><rect x="240" y="520" width="200" height="40" style="fill:white;stroke:black;stroke-width:1" /><text x="250" y="530" font-size="10" style="fill:blue">localidad</text><path d="M220 40 C240 40 220 540 240 540" style="fill:transparent;stroke:black" /><rect x="306" y="520" width="137" height="40" style="fill:green;stroke:black;stroke-width:1" /><text x="316" y="530" font-size="8" style="fill:white">Mogyoród</text><rect x="240" y="570" width="200" height="40" style="fill:white;stroke:black;stroke-width:1" /><text x="250" y="580" font-size="10" style="fill:blue">pais</text><path d="M220 40 C240 40 220 590 240 590" style="fill:transparent;stroke:black" /><rect x="306" y="570" width="137" height="40" style="fill:green;stroke:black;stroke-width:1" /><text x="316" y="580" font-size="8" style="fill:white">Hungria</text><rect x="240" y="620" width="200" height="40" style="fill:white;stroke:black;stroke-width:1" /><text x="250" y="630" font-size="10" style="fill:blue">referecias</text><path d="M220 40 C240 40 220 640 240 640" style="fill:transparent;stroke:black" /><rect x="460" y="620" width="200" height="40" style="fill:white;stroke:black;stroke-width:1" /><text x="470" y="630" font-size="10" style="fill:blue">referencia</text><path d="M440 640 C460 640 440 640 460 640" style="fill:transparent;stroke:black" /><rect x="526" y="620" width="137" height="40" style="fill:green;stroke:black;stroke-width:1" /><text x="536" y="630" font-size="8" style="fill:white">https://es.motorsport.com/f1/news/horarios-hungria-como-ver-formula1/10634394/#:~:text=El%20circuito%20de%20Hungaroring%20est%C3%A1,kil%C3%B3metros%20Budapest%2C%20capital%20de%20Hungr%C3%ADa.</text><rect x="460" y="670" width="200" height="40" style="fill:white;stroke:black;stroke-width:1" /><text x="470" y="680" font-size="10" style="fill:blue">referencia</text><path d="M440 640 C460 640 440 690 460 690" style="fill:transparent;stroke:black" /><rect x="526" y="670" width="137" height="40" style="fill:green;stroke:black;stroke-width:1" /><text x="536" y="680" font-size="8" style="fill:white">https://www.caranddriver.com/es/formula-1/gran-premio/a46262726/gp-hungria-f1-2024/</text><rect x="460" y="720" width="200" height="40" style="fill:white;stroke:black;stroke-width:1" /><text x="470" y="730" font-size="10" style="fill:blue">referencia</text><path d="M440 640 C460 640 440 740 460 740" style="fill:transparent;stroke:black" /><rect x="526" y="720" width="137" height="40" style="fill:green;stroke:black;stroke-width:1" /><text x="536" y="730" font-size="8" style="fill:white">https://es.wikipedia.org/wiki/Gran_Premio_de_Hungr%C3%ADa</text><rect x="240" y="820" width="200" height="40" style="fill:white;stroke:black;stroke-width:1" /><text x="250" y="830" font-size="10" style="fill:blue">fotografias</text><path d="M220 40 C240 40 220 840 240 840" style="fill:transparent;stroke:black" /><rect x="460" y="820" width="200" height="40" style="fill:white;stroke:black;stroke-width:1" /><text x="470" y="830" font-size="10" style="fill:blue">foto</text><path d="M440 840 C460 840 440 840 460 840" style="fill:transparent;stroke:black" /><rect x="526" y="820" width="137" height="40" style="fill:green;stroke:black;stroke-width:1" /><text x="536" y="830" font-size="8" style="fill:white">Panorama.jpg </text><rect x="460" y="870" width="200" height="40" style="fill:white;stroke:black;stroke-width:1" /><text x="470" y="880" font-size="10" style="fill:blue">foto</text><path d="M440 840 C460 840 440 890 460 890" style="fill:transparent;stroke:black" /><rect x="526" y="870" width="137" height="40" style="fill:green;stroke:black;stroke-width:1" /><text x="536" y="880" font-size="8" style="fill:white">RectaMeta.jpg </text><rect x="240" y="970" width="200" height="40" style="fill:white;stroke:black;stroke-width:1" /><text x="250" y="980" font-size="10" style="fill:blue">videos</text><path d="M220 40 C240 40 220 990 240 990" style="fill:transparent;stroke:black" /><rect x="460" y="970" width="200" height="40" style="fill:white;stroke:black;stroke-width:1" /><text x="470" y="980" font-size="10" style="fill:blue">video</text><path d="M440 990 C460 990 440 990 460 990" style="fill:transparent;stroke:black" /><rect x="526" y="970" width="137" height="40" style="fill:green;stroke:black;stroke-width:1" /><text x="536" y="980" font-size="8" style="fill:white">video.mp4</text><rect x="240" y="1070" width="200" height="40" style="fill:white;stroke:black;stroke-width:1" /><text x="250" y="1080" font-size="10" style="fill:blue">circuito</text><path d="M220 40 C240 40 220 1090 240 1090" style="fill:transparent;stroke:black" /><rect x="460" y="1070" width="200" height="40" style="fill:white;stroke:black;stroke-width:1" /><text x="470" y="1080" font-size="10" style="fill:blue">tramo</text><path d="M440 1090 C460 1090 440 1090 460 1090" style="fill:transparent;stroke:black" /><rect x="680" y="1070" width="200" height="40" style="fill:white;stroke:black;stroke-width:1" /><text x="690" y="1080" font-size="10" style="fill:blue">distanciaTramo</text><path d="M660 1090 C680 1090 660 1090 680 1090" style="fill:transparent;stroke:black" /><text x="690" y="1090" font-size="8" style="fill:black">distancia: 557.11</text><text x="690" y="1100" font-size="8" style="fill:black">unidades: metros</text><rect x="680" y="1120" width="200" height="40" style="fill:white;stroke:black;stroke-width:1" /><text x="690" y="1130" font-size="10" style="fill:blue">coordenada</text><path d="M660 1090 C680 1090 660 1140 680 1140" style="fill:transparent;stroke:black" /><text x="690" y="1140" font-size="8" style="fill:black">longitud: 47.579080</text><text x="690" y="1150" font-size="8" style="fill:black">latitud: 19.248078</text><text x="690" y="1160" font-size="8" style="fill:black">altitud: 236</text><rect x="680" y="1170" width="200" height="40" style="fill:white;stroke:black;stroke-width:1" /><text x="690" y="1180" font-size="10" style="fill:blue">numeroSector</text><path d="M660 1090 C680 1090 660 1190 680 1190" style="fill:transparent;stroke:black" /><rect x="746" y="1170" width="137" height="40" style="fill:green;stroke:black;stroke-width:1" /><text x="756" y="1180" font-size="8" style="fill:white">1</text><rect x="460" y="1270" width="200" height="40" style="fill:white;stroke:black;stroke-width:1" /><text x="470" y="1280" font-size="10" style="fill:blue">tramo</text><path d="M440 1090 C460 1090 440 1290 460 1290" style="fill:transparent;stroke:black" /><rect x="680" y="1270" width="200" height="40" style="fill:white;stroke:black;stroke-width:1" /><text x="690" y="1280" font-size="10" style="fill:blue">distanciaTramo</text><path d="M660 1290 C680 1290 660 1290 680 1290" style="fill:transparent;stroke:black" /><text x="690" y="1290" font-size="8" style="fill:black">distancia: 39.35</text><text x="690" y="1300" font-size="8" style="fill:black">unidades: metros</text><rect x="680" y="1320" width="200" height="40" style="fill:white;stroke:black;stroke-width:1" /><text x="690" y="1330" font-size="10" style="fill:blue">coordenada</text><path d="M660 1290 C680 1290 660 1340 680 1340" style="fill:transparent;stroke:black" /><text x="690" y="1340" font-size="8" style="fill:black">longitud: 47.582244</text><text x="690" y="1350" font-size="8" style="fill:black">latitud: 19.242319</text><text x="690" y="1360" font-size="8" style="fill:black">altitud: 228</text><rect x="680" y="1370" width="200" height="40" style="fill:white;stroke:black;stroke-width:1" /><text x="690" y="1380" font-size="10" style="fill:blue">numeroSector</text><path d="M660 1290 C680 1290 660 1390 680 1390" style="fill:transparent;stroke:black" /><rect x="746" y="1370" width="137" height="40" style="fill:green;stroke:black;stroke-width:1" /><text x="756" y="1380" font-size="8" style="fill:white">1</text><rect x="460" y="1470" width="200" height="40" style="fill:white;stroke:black;stroke-width:1" /><text x="470" y="1480" font-size="10" style="fill:blue">tramo</text><path d="M440 1090 C460 1090 440 1490 460 1490" style="fill:transparent;stroke:black" /><rect x="680" y="1470" width="200" height="40" style="fill:white;stroke:black;stroke-width:1" /><text x="690" y="1480" font-size="10" style="fill:blue">distanciaTramo</text><path d="M660 1490 C680 1490 660 1490 680 1490" style="fill:transparent;stroke:black" /><text x="690" y="1490" font-size="8" style="fill:black">distancia: 132.50 </text><text x="690" y="1500" font-size="8" style="fill:black">unidades: metros</text><rect x="680" y="1520" width="200" height="40" style="fill:white;stroke:black;stroke-width:1" /><text x="690" y="1530" font-size="10" style="fill:blue">coordenada</text><path d="M660 1490 C680 1490 660 1540 680 1540" style="fill:transparent;stroke:black" /><text x="690" y="1540" font-size="8" style="fill:black">longitud: 47.582510</text><text x="690" y="1550" font-size="8" style="fill:black">latitud: 19.242665</text><text x="690" y="1560" font-size="8" style="fill:black">altitud: 227</text><rect x="680" y="1570" width="200" height="40" style="fill:white;stroke:black;stroke-width:1" /><text x="690" y="1580" font-size="10" style="fill:blue">numeroSector</text><path d="M660 1490 C680 1490 660 1590 680 1590" style="fill:transparent;stroke:black" /><rect x="746" y="1570" width="137" height="40" style="fill:green;stroke:black;stroke-width:1" /><text x="756" y="1580" font-size="8" style="fill:white">1</text><rect x="460" y="1670" width="200" height="40" style="fill:white;stroke:black;stroke-width:1" /><text x="470" y="1680" font-size="10" style="fill:blue">tramo</text><path d="M440 1090 C460 1090 440 1690 460 1690" style="fill:transparent;stroke:black" /><rect x="680" y="1670" width="200" height="40" style="fill:white;stroke:black;stroke-width:1" /><text x="690" y="1680" font-size="10" style="fill:blue">distanciaTramo</text><path d="M660 1690 C680 1690 660 1690 680 1690" style="fill:transparent;stroke:black" /><text x="690" y="1690" font-size="8" style="fill:black">distancia: 286.63</text><text x="690" y="1700" font-size="8" style="fill:black">unidades: metros</text><rect x="680" y="1720" width="200" height="40" style="fill:white;stroke:black;stroke-width:1" /><text x="690" y="1730" font-size="10" style="fill:blue">coordenada</text><path d="M660 1690 C680 1690 660 1740 680 1740" style="fill:transparent;stroke:black" /><text x="690" y="1740" font-size="8" style="fill:black">longitud: 47.582400</text><text x="690" y="1750" font-size="8" style="fill:black">latitud: 19.244424</text><text x="690" y="1760" font-size="8" style="fill:black">altitud: 226</text><rect x="680" y="1770" width="200" height="40" style="fill:white;stroke:black;stroke-width:1" /><text x="690" y="1780" font-size="10" style="fill:blue">numeroSector</text><path d="M660 1690 C680 1690 660 1790 680 1790" style="fill:transparent;stroke:black" /><rect x="746" y="1770" width="137" height="40" style="fill:green;stroke:black;stroke-width:1" /><text x="756" y="1780" font-size="8" style="fill:white">1</text><rect x="460" y="1870" width="200" height="40" style="fill:white;stroke:black;stroke-width:1" /><text x="470" y="1880" font-size="10" style="fill:blue">tramo</text><path d="M440 1090 C460 1090 440 1890 460 1890" style="fill:transparent;stroke:black" /><rect x="680" y="1870" width="200" height="40" style="fill:white;stroke:black;stroke-width:1" /><text x="690" y="1880" font-size="10" style="fill:blue">distanciaTramo</text><path d="M660 1890 C680 1890 660 1890 680 1890" style="fill:transparent;stroke:black" /><text x="690" y="1890" font-size="8" style="fill:black">distancia: 63.20</text><text x="690" y="1900" font-size="8" style="fill:black">unidades: metros</text><rect x="680" y="1920" width="200" height="40" style="fill:white;stroke:black;stroke-width:1" /><text x="690" y="1930" font-size="10" style="fill:blue">coordenada</text><path d="M660 1890 C680 1890 660 1940 680 1940" style="fill:transparent;stroke:black" /><text x="690" y="1940" font-size="8" style="fill:black">longitud: 47.580902</text><text x="690" y="1950" font-size="8" style="fill:black">latitud: 19.247534</text><text x="690" y="1960" font-size="8" style="fill:black">altitud: 220</text><rect x="680" y="1970" width="200" height="40" style="fill:white;stroke:black;stroke-width:1" /><text x="690" y="1980" font-size="10" style="fill:blue">numeroSector</text><path d="M660 1890 C680 1890 660 1990 680 1990" style="fill:transparent;stroke:black" /><rect x="746" y="1970" width="137" height="40" style="fill:green;stroke:black;stroke-width:1" /><text x="756" y="1980" font-size="8" style="fill:white">2</text><rect x="460" y="2070" width="200" height="40" style="fill:white;stroke:black;stroke-width:1" /><text x="470" y="2080" font-size="10" style="fill:blue">tramo</text><path d="M440 1090 C460 1090 440 2090 460 2090" style="fill:transparent;stroke:black" /><rect x="680" y="2070" width="200" height="40" style="fill:white;stroke:black;stroke-width:1" /><text x="690" y="2080" font-size="10" style="fill:blue">distanciaTramo</text><path d="M660 2090 C680 2090 660 2090 680 2090" style="fill:transparent;stroke:black" /><text x="690" y="2090" font-size="8" style="fill:black">distancia: 56.08</text><text x="690" y="2100" font-size="8" style="fill:black">unidades: metros</text><rect x="680" y="2120" width="200" height="40" style="fill:white;stroke:black;stroke-width:1" /><text x="690" y="2130" font-size="10" style="fill:blue">coordenada</text><path d="M660 2090 C680 2090 660 2140 680 2140" style="fill:transparent;stroke:black" /><text x="690" y="2140" font-size="8" style="fill:black">longitud: 47.580924</text><text x="690" y="2150" font-size="8" style="fill:black">latitud: 19.248376</text><text x="690" y="2160" font-size="8" style="fill:black">altitud: 218</text><rect x="680" y="2170" width="200" height="40" style="fill:white;stroke:black;stroke-width:1" /><text x="690" y="2180" font-size="10" style="fill:blue">numeroSector</text><path d="M660 2090 C680 2090 660 2190 680 2190" style="fill:transparent;stroke:black" /><rect x="746" y="2170" width="137" height="40" style="fill:green;stroke:black;stroke-width:1" /><text x="756" y="2180" font-size="8" style="fill:white">2</text><rect x="460" y="2270" width="200" height="40" style="fill:white;stroke:black;stroke-width:1" /><text x="470" y="2280" font-size="10" style="fill:blue">tramo</text><path d="M440 1090 C460 1090 440 2290 460 2290" style="fill:transparent;stroke:black" /><rect x="680" y="2270" width="200" height="40" style="fill:white;stroke:black;stroke-width:1" /><text x="690" y="2280" font-size="10" style="fill:blue">distanciaTramo</text><path d="M660 2290 C680 2290 660 2290 680 2290" style="fill:transparent;stroke:black" /><text x="690" y="2290" font-size="8" style="fill:black">distancia: 130.62</text><text x="690" y="2300" font-size="8" style="fill:black">unidades: metros</text><rect x="680" y="2320" width="200" height="40" style="fill:white;stroke:black;stroke-width:1" /><text x="690" y="2330" font-size="10" style="fill:blue">coordenada</text><path d="M660 2290 C680 2290 660 2340 680 2340" style="fill:transparent;stroke:black" /><text x="690" y="2340" font-size="8" style="fill:black">longitud: 47.581427</text><text x="690" y="2350" font-size="8" style="fill:black">latitud: 19.248430</text><text x="690" y="2360" font-size="8" style="fill:black">altitud: 214</text><rect x="680" y="2370" width="200" height="40" style="fill:white;stroke:black;stroke-width:1" /><text x="690" y="2380" font-size="10" style="fill:blue">numeroSector</text><path d="M660 2290 C680 2290 660 2390 680 2390" style="fill:transparent;stroke:black" /><rect x="746" y="2370" width="137" height="40" style="fill:green;stroke:black;stroke-width:1" /><text x="756" y="2380" font-size="8" style="fill:white">2</text><rect x="460" y="2470" width="200" height="40" style="fill:white;stroke:black;stroke-width:1" /><text x="470" y="2480" font-size="10" style="fill:blue">tramo</text><path d="M440 1090 C460 1090 440 2490 460 2490" style="fill:transparent;stroke:black" /><rect x="680" y="2470" width="200" height="40" style="fill:white;stroke:black;stroke-width:1" /><text x="690" y="2480" font-size="10" style="fill:blue">distanciaTramo</text><path d="M660 2490 C680 2490 660 2490 680 2490" style="fill:transparent;stroke:black" /><text x="690" y="2490" font-size="8" style="fill:black">distancia: 476.76</text><text x="690" y="2500" font-size="8" style="fill:black">unidades: metros</text><rect x="680" y="2520" width="200" height="40" style="fill:white;stroke:black;stroke-width:1" /><text x="690" y="2530" font-size="10" style="fill:blue">coordenada</text><path d="M660 2490 C680 2490 660 2540 680 2540" style="fill:transparent;stroke:black" /><text x="690" y="2540" font-size="8" style="fill:black">longitud: 47.582464</text><text x="690" y="2550" font-size="8" style="fill:black">latitud: 19.247612</text><text x="690" y="2560" font-size="8" style="fill:black">altitud: 205</text><rect x="680" y="2570" width="200" height="40" style="fill:white;stroke:black;stroke-width:1" /><text x="690" y="2580" font-size="10" style="fill:blue">numeroSector</text><path d="M660 2490 C680 2490 660 2590 680 2590" style="fill:transparent;stroke:black" /><rect x="746" y="2570" width="137" height="40" style="fill:green;stroke:black;stroke-width:1" /><text x="756" y="2580" font-size="8" style="fill:white">2</text><rect x="460" y="2670" width="200" height="40" style="fill:white;stroke:black;stroke-width:1" /><text x="470" y="2680" font-size="10" style="fill:blue">tramo</text><path d="M440 1090 C460 1090 440 2690 460 2690" style="fill:transparent;stroke:black" /><rect x="680" y="2670" width="200" height="40" style="fill:white;stroke:black;stroke-width:1" /><text x="690" y="2680" font-size="10" style="fill:blue">distanciaTramo</text><path d="M660 2690 C680 2690 660 2690 680 2690" style="fill:transparent;stroke:black" /><text x="690" y="2690" font-size="8" style="fill:black">distancia: 217.97</text><text x="690" y="2700" font-size="8" style="fill:black">unidades: metros</text><rect x="680" y="2720" width="200" height="40" style="fill:white;stroke:black;stroke-width:1" /><text x="690" y="2730" font-size="10" style="fill:blue">coordenada</text><path d="M660 2690 C680 2690 660 2740 680 2740" style="fill:transparent;stroke:black" /><text x="690" y="2740" font-size="8" style="fill:black">longitud: 47.586263</text><text x="690" y="2750" font-size="8" style="fill:black">latitud: 19.250559</text><text x="690" y="2760" font-size="8" style="fill:black">altitud: 214</text><rect x="680" y="2770" width="200" height="40" style="fill:white;stroke:black;stroke-width:1" /><text x="690" y="2780" font-size="10" style="fill:blue">numeroSector</text><path d="M660 2690 C680 2690 660 2790 680 2790" style="fill:transparent;stroke:black" /><rect x="746" y="2770" width="137" height="40" style="fill:green;stroke:black;stroke-width:1" /><text x="756" y="2780" font-size="8" style="fill:white">2</text><rect x="460" y="2870" width="200" height="40" style="fill:white;stroke:black;stroke-width:1" /><text x="470" y="2880" font-size="10" style="fill:blue">tramo</text><path d="M440 1090 C460 1090 440 2890 460 2890" style="fill:transparent;stroke:black" /><rect x="680" y="2870" width="200" height="40" style="fill:white;stroke:black;stroke-width:1" /><text x="690" y="2880" font-size="10" style="fill:blue">distanciaTramo</text><path d="M660 2890 C680 2890 660 2890 680 2890" style="fill:transparent;stroke:black" /><text x="690" y="2890" font-size="8" style="fill:black">distancia: 55.28</text><text x="690" y="2900" font-size="8" style="fill:black">unidades: metros</text><rect x="680" y="2920" width="200" height="40" style="fill:white;stroke:black;stroke-width:1" /><text x="690" y="2930" font-size="10" style="fill:blue">coordenada</text><path d="M660 2890 C680 2890 660 2940 680 2940" style="fill:transparent;stroke:black" /><text x="690" y="2940" font-size="8" style="fill:black">longitud: 47.588201</text><text x="690" y="2950" font-size="8" style="fill:black">latitud: 19.250122</text><text x="690" y="2960" font-size="8" style="fill:black">altitud: 216</text><rect x="680" y="2970" width="200" height="40" style="fill:white;stroke:black;stroke-width:1" /><text x="690" y="2980" font-size="10" style="fill:blue">numeroSector</text><path d="M660 2890 C680 2890 660 2990 680 2990" style="fill:transparent;stroke:black" /><rect x="746" y="2970" width="137" height="40" style="fill:green;stroke:black;stroke-width:1" /><text x="756" y="2980" font-size="8" style="fill:white">2</text><rect x="460" y="3070" width="200" height="40" style="fill:white;stroke:black;stroke-width:1" /><text x="470" y="3080" font-size="10" style="fill:blue">tramo</text><path d="M440 1090 C460 1090 440 3090 460 3090" style="fill:transparent;stroke:black" /><rect x="680" y="3070" width="200" height="40" style="fill:white;stroke:black;stroke-width:1" /><text x="690" y="3080" font-size="10" style="fill:blue">distanciaTramo</text><path d="M660 3090 C680 3090 660 3090 680 3090" style="fill:transparent;stroke:black" /><text x="690" y="3090" font-size="8" style="fill:black">distancia: 277.76</text><text x="690" y="3100" font-size="8" style="fill:black">unidades: metros</text><rect x="680" y="3120" width="200" height="40" style="fill:white;stroke:black;stroke-width:1" /><text x="690" y="3130" font-size="10" style="fill:blue">coordenada</text><path d="M660 3090 C680 3090 660 3140 680 3140" style="fill:transparent;stroke:black" /><text x="690" y="3140" font-size="8" style="fill:black">longitud: 47.588450</text><text x="690" y="3150" font-size="8" style="fill:black">latitud: 19.250760</text><text x="690" y="3160" font-size="8" style="fill:black">altitud: 219</text><rect x="680" y="3170" width="200" height="40" style="fill:white;stroke:black;stroke-width:1" /><text x="690" y="3180" font-size="10" style="fill:blue">numeroSector</text><path d="M660 3090 C680 3090 660 3190 680 3190" style="fill:transparent;stroke:black" /><rect x="746" y="3170" width="137" height="40" style="fill:green;stroke:black;stroke-width:1" /><text x="756" y="3180" font-size="8" style="fill:white">2</text><rect x="460" y="3270" width="200" height="40" style="fill:white;stroke:black;stroke-width:1" /><text x="470" y="3280" font-size="10" style="fill:blue">tramo</text><path d="M440 1090 C460 1090 440 3290 460 3290" style="fill:transparent;stroke:black" /><rect x="680" y="3270" width="200" height="40" style="fill:white;stroke:black;stroke-width:1" /><text x="690" y="3280" font-size="10" style="fill:blue">distanciaTramo</text><path d="M660 3290 C680 3290 660 3290 680 3290" style="fill:transparent;stroke:black" /><text x="690" y="3290" font-size="8" style="fill:black">distancia: 43.86</text><text x="690" y="3300" font-size="8" style="fill:black">unidades: metros</text><rect x="680" y="3320" width="200" height="40" style="fill:white;stroke:black;stroke-width:1" /><text x="690" y="3330" font-size="10" style="fill:blue">coordenada</text><path d="M660 3290 C680 3290 660 3340 680 3340" style="fill:transparent;stroke:black" /><text x="690" y="3340" font-size="8" style="fill:black">longitud: 47.586867</text><text x="690" y="3350" font-size="8" style="fill:black">latitud: 19.253625</text><text x="690" y="3360" font-size="8" style="fill:black">altitud: 226</text><rect x="680" y="3370" width="200" height="40" style="fill:white;stroke:black;stroke-width:1" /><text x="690" y="3380" font-size="10" style="fill:blue">numeroSector</text><path d="M660 3290 C680 3290 660 3390 680 3390" style="fill:transparent;stroke:black" /><rect x="746" y="3370" width="137" height="40" style="fill:green;stroke:black;stroke-width:1" /><text x="756" y="3380" font-size="8" style="fill:white">2</text><rect x="460" y="3470" width="200" height="40" style="fill:white;stroke:black;stroke-width:1" /><text x="470" y="3480" font-size="10" style="fill:blue">tramo</text><path d="M440 1090 C460 1090 440 3490 460 3490" style="fill:transparent;stroke:black" /><rect x="680" y="3470" width="200" height="40" style="fill:white;stroke:black;stroke-width:1" /><text x="690" y="3480" font-size="10" style="fill:blue">distanciaTramo</text><path d="M660 3490 C680 3490 660 3490 680 3490" style="fill:transparent;stroke:black" /><text x="690" y="3490" font-size="8" style="fill:black">distancia: 174.73</text><text x="690" y="3500" font-size="8" style="fill:black">unidades: metros</text><rect x="680" y="3520" width="200" height="40" style="fill:white;stroke:black;stroke-width:1" /><text x="690" y="3530" font-size="10" style="fill:blue">coordenada</text><path d="M660 3490 C680 3490 660 3540 680 3540" style="fill:transparent;stroke:black" /><text x="690" y="3540" font-size="8" style="fill:black">longitud: 47.586514</text><text x="690" y="3550" font-size="8" style="fill:black">latitud: 19.253364</text><text x="690" y="3560" font-size="8" style="fill:black">altitud: 226</text><rect x="680" y="3570" width="200" height="40" style="fill:white;stroke:black;stroke-width:1" /><text x="690" y="3580" font-size="10" style="fill:blue">numeroSector</text><path d="M660 3490 C680 3490 660 3590 680 3590" style="fill:transparent;stroke:black" /><rect x="746" y="3570" width="137" height="40" style="fill:green;stroke:black;stroke-width:1" /><text x="756" y="3580" font-size="8" style="fill:white">2</text><rect x="460" y="3670" width="200" height="40" style="fill:white;stroke:black;stroke-width:1" /><text x="470" y="3680" font-size="10" style="fill:blue">tramo</text><path d="M440 1090 C460 1090 440 3690 460 3690" style="fill:transparent;stroke:black" /><rect x="680" y="3670" width="200" height="40" style="fill:white;stroke:black;stroke-width:1" /><text x="690" y="3680" font-size="10" style="fill:blue">distanciaTramo</text><path d="M660 3690 C680 3690 660 3690 680 3690" style="fill:transparent;stroke:black" /><text x="690" y="3690" font-size="8" style="fill:black">distancia: 126.46</text><text x="690" y="3700" font-size="8" style="fill:black">unidades: metros</text><rect x="680" y="3720" width="200" height="40" style="fill:white;stroke:black;stroke-width:1" /><text x="690" y="3730" font-size="10" style="fill:blue">coordenada</text><path d="M660 3690 C680 3690 660 3740 680 3740" style="fill:transparent;stroke:black" /><text x="690" y="3740" font-size="8" style="fill:black">longitud: 47.585005</text><text x="690" y="3750" font-size="8" style="fill:black">latitud: 19.254014</text><text x="690" y="3760" font-size="8" style="fill:black">altitud: 226</text><rect x="680" y="3770" width="200" height="40" style="fill:white;stroke:black;stroke-width:1" /><text x="690" y="3780" font-size="10" style="fill:blue">numeroSector</text><path d="M660 3690 C680 3690 660 3790 680 3790" style="fill:transparent;stroke:black" /><rect x="746" y="3770" width="137" height="40" style="fill:green;stroke:black;stroke-width:1" /><text x="756" y="3780" font-size="8" style="fill:white">2</text><rect x="460" y="3870" width="200" height="40" style="fill:white;stroke:black;stroke-width:1" /><text x="470" y="3880" font-size="10" style="fill:blue">tramo</text><path d="M440 1090 C460 1090 440 3890 460 3890" style="fill:transparent;stroke:black" /><rect x="680" y="3870" width="200" height="40" style="fill:white;stroke:black;stroke-width:1" /><text x="690" y="3880" font-size="10" style="fill:blue">distanciaTramo</text><path d="M660 3890 C680 3890 660 3890 680 3890" style="fill:transparent;stroke:black" /><text x="690" y="3890" font-size="8" style="fill:black">distancia: 38.92</text><text x="690" y="3900" font-size="8" style="fill:black">unidades: metros</text><rect x="680" y="3920" width="200" height="40" style="fill:white;stroke:black;stroke-width:1" /><text x="690" y="3930" font-size="10" style="fill:blue">coordenada</text><path d="M660 3890 C680 3890 660 3940 680 3940" style="fill:transparent;stroke:black" /><text x="690" y="3940" font-size="8" style="fill:black">longitud: 47.584741</text><text x="690" y="3950" font-size="8" style="fill:black">latitud: 19.255654</text><text x="690" y="3960" font-size="8" style="fill:black">altitud: 227</text><rect x="680" y="3970" width="200" height="40" style="fill:white;stroke:black;stroke-width:1" /><text x="690" y="3980" font-size="10" style="fill:blue">numeroSector</text><path d="M660 3890 C680 3890 660 3990 680 3990" style="fill:transparent;stroke:black" /><rect x="746" y="3970" width="137" height="40" style="fill:green;stroke:black;stroke-width:1" /><text x="756" y="3980" font-size="8" style="fill:white">2</text><rect x="460" y="4070" width="200" height="40" style="fill:white;stroke:black;stroke-width:1" /><text x="470" y="4080" font-size="10" style="fill:blue">tramo</text><path d="M440 1090 C460 1090 440 4090 460 4090" style="fill:transparent;stroke:black" /><rect x="680" y="4070" width="200" height="40" style="fill:white;stroke:black;stroke-width:1" /><text x="690" y="4080" font-size="10" style="fill:blue">distanciaTramo</text><path d="M660 4090 C680 4090 660 4090 680 4090" style="fill:transparent;stroke:black" /><text x="690" y="4090" font-size="8" style="fill:black">distancia: 6.23</text><text x="690" y="4100" font-size="8" style="fill:black">unidades: metros</text><rect x="680" y="4120" width="200" height="40" style="fill:white;stroke:black;stroke-width:1" /><text x="690" y="4130" font-size="10" style="fill:blue">coordenada</text><path d="M660 4090 C680 4090 660 4140 680 4140" style="fill:transparent;stroke:black" /><text x="690" y="4140" font-size="8" style="fill:black">longitud: 47.584414</text><text x="690" y="4150" font-size="8" style="fill:black">latitud: 19.255839</text><text x="690" y="4160" font-size="8" style="fill:black">altitud: 228</text><rect x="680" y="4170" width="200" height="40" style="fill:white;stroke:black;stroke-width:1" /><text x="690" y="4180" font-size="10" style="fill:blue">numeroSector</text><path d="M660 4090 C680 4090 660 4190 680 4190" style="fill:transparent;stroke:black" /><rect x="746" y="4170" width="137" height="40" style="fill:green;stroke:black;stroke-width:1" /><text x="756" y="4180" font-size="8" style="fill:white">2</text><rect x="460" y="4270" width="200" height="40" style="fill:white;stroke:black;stroke-width:1" /><text x="470" y="4280" font-size="10" style="fill:blue">tramo</text><path d="M440 1090 C460 1090 440 4290 460 4290" style="fill:transparent;stroke:black" /><rect x="680" y="4270" width="200" height="40" style="fill:white;stroke:black;stroke-width:1" /><text x="690" y="4280" font-size="10" style="fill:blue">distanciaTramo</text><path d="M660 4290 C680 4290 660 4290 680 4290" style="fill:transparent;stroke:black" /><text x="690" y="4290" font-size="8" style="fill:black">distancia: 182.65</text><text x="690" y="4300" font-size="8" style="fill:black">unidades: metros</text><rect x="680" y="4320" width="200" height="40" style="fill:white;stroke:black;stroke-width:1" /><text x="690" y="4330" font-size="10" style="fill:blue">coordenada</text><path d="M660 4290 C680 4290 660 4340 680 4340" style="fill:transparent;stroke:black" /><text x="690" y="4340" font-size="8" style="fill:black">longitud: 47.584470</text><text x="690" y="4350" font-size="8" style="fill:black">latitud: 19.255840</text><text x="690" y="4360" font-size="8" style="fill:black">altitud: 228</text><rect x="680" y="4370" width="200" height="40" style="fill:white;stroke:black;stroke-width:1" /><text x="690" y="4380" font-size="10" style="fill:blue">numeroSector</text><path d="M660 4290 C680 4290 660 4390 680 4390" style="fill:transparent;stroke:black" /><rect x="746" y="4370" width="137" height="40" style="fill:green;stroke:black;stroke-width:1" /><text x="756" y="4380" font-size="8" style="fill:white">2</text><rect x="460" y="4470" width="200" height="40" style="fill:white;stroke:black;stroke-width:1" /><text x="470" y="4480" font-size="10" style="fill:blue">tramo</text><path d="M440 1090 C460 1090 440 4490 460 4490" style="fill:transparent;stroke:black" /><rect x="680" y="4470" width="200" height="40" style="fill:white;stroke:black;stroke-width:1" /><text x="690" y="4480" font-size="10" style="fill:blue">distanciaTramo</text><path d="M660 4490 C680 4490 660 4490 680 4490" style="fill:transparent;stroke:black" /><text x="690" y="4490" font-size="8" style="fill:black">distancia: 170.00</text><text x="690" y="4500" font-size="8" style="fill:black">unidades: metros</text><rect x="680" y="4520" width="200" height="40" style="fill:white;stroke:black;stroke-width:1" /><text x="690" y="4530" font-size="10" style="fill:blue">coordenada</text><path d="M660 4490 C680 4490 660 4540 680 4540" style="fill:transparent;stroke:black" /><text x="690" y="4540" font-size="8" style="fill:black">longitud: 47.582837</text><text x="690" y="4550" font-size="8" style="fill:black">latitud: 19.255577</text><text x="690" y="4560" font-size="8" style="fill:black">altitud: 231</text><rect x="680" y="4570" width="200" height="40" style="fill:white;stroke:black;stroke-width:1" /><text x="690" y="4580" font-size="10" style="fill:blue">numeroSector</text><path d="M660 4490 C680 4490 660 4590 680 4590" style="fill:transparent;stroke:black" /><rect x="746" y="4570" width="137" height="40" style="fill:green;stroke:black;stroke-width:1" /><text x="756" y="4580" font-size="8" style="fill:white">3</text><rect x="460" y="4670" width="200" height="40" style="fill:white;stroke:black;stroke-width:1" /><text x="470" y="4680" font-size="10" style="fill:blue">tramo</text><path d="M440 1090 C460 1090 440 4690 460 4690" style="fill:transparent;stroke:black" /><rect x="680" y="4670" width="200" height="40" style="fill:white;stroke:black;stroke-width:1" /><text x="690" y="4680" font-size="10" style="fill:blue">distanciaTramo</text><path d="M660 4690 C680 4690 660 4690 680 4690" style="fill:transparent;stroke:black" /><text x="690" y="4690" font-size="8" style="fill:black">distancia: 35.50 </text><text x="690" y="4700" font-size="8" style="fill:black">unidades: metros</text><rect x="680" y="4720" width="200" height="40" style="fill:white;stroke:black;stroke-width:1" /><text x="690" y="4730" font-size="10" style="fill:blue">coordenada</text><path d="M660 4690 C680 4690 660 4740 680 4740" style="fill:transparent;stroke:black" /><text x="690" y="4740" font-size="8" style="fill:black">longitud: 47.581498</text><text x="690" y="4750" font-size="8" style="fill:black">latitud: 19.256671</text><text x="690" y="4760" font-size="8" style="fill:black">altitud: 233</text><rect x="680" y="4770" width="200" height="40" style="fill:white;stroke:black;stroke-width:1" /><text x="690" y="4780" font-size="10" style="fill:blue">numeroSector</text><path d="M660 4690 C680 4690 660 4790 680 4790" style="fill:transparent;stroke:black" /><rect x="746" y="4770" width="137" height="40" style="fill:green;stroke:black;stroke-width:1" /><text x="756" y="4780" font-size="8" style="fill:white">3</text><rect x="460" y="4870" width="200" height="40" style="fill:white;stroke:black;stroke-width:1" /><text x="470" y="4880" font-size="10" style="fill:blue">tramo</text><path d="M440 1090 C460 1090 440 4890 460 4890" style="fill:transparent;stroke:black" /><rect x="680" y="4870" width="200" height="40" style="fill:white;stroke:black;stroke-width:1" /><text x="690" y="4880" font-size="10" style="fill:blue">distanciaTramo</text><path d="M660 4890 C680 4890 660 4890 680 4890" style="fill:transparent;stroke:black" /><text x="690" y="4890" font-size="8" style="fill:black">distancia: 388.40</text><text x="690" y="4900" font-size="8" style="fill:black">unidades: metros</text><rect x="680" y="4920" width="200" height="40" style="fill:white;stroke:black;stroke-width:1" /><text x="690" y="4930" font-size="10" style="fill:blue">coordenada</text><path d="M660 4890 C680 4890 660 4940 680 4940" style="fill:transparent;stroke:black" /><text x="690" y="4940" font-size="8" style="fill:black">longitud: 47.581187</text><text x="690" y="4950" font-size="8" style="fill:black">latitud: 19.256564</text><text x="690" y="4960" font-size="8" style="fill:black">altitud: 233</text><rect x="680" y="4970" width="200" height="40" style="fill:white;stroke:black;stroke-width:1" /><text x="690" y="4980" font-size="10" style="fill:blue">numeroSector</text><path d="M660 4890 C680 4890 660 4990 680 4990" style="fill:transparent;stroke:black" /><rect x="746" y="4970" width="137" height="40" style="fill:green;stroke:black;stroke-width:1" /><text x="756" y="4980" font-size="8" style="fill:white">3</text><rect x="460" y="5070" width="200" height="40" style="fill:white;stroke:black;stroke-width:1" /><text x="470" y="5080" font-size="10" style="fill:blue">tramo</text><path d="M440 1090 C460 1090 440 5090 460 5090" style="fill:transparent;stroke:black" /><rect x="680" y="5070" width="200" height="40" style="fill:white;stroke:black;stroke-width:1" /><text x="690" y="5080" font-size="10" style="fill:blue">distanciaTramo</text><path d="M660 5090 C680 5090 660 5090 680 5090" style="fill:transparent;stroke:black" /><text x="690" y="5090" font-size="8" style="fill:black">distancia: 225.28</text><text x="690" y="5100" font-size="8" style="fill:black">unidades: metros</text><rect x="680" y="5120" width="200" height="40" style="fill:white;stroke:black;stroke-width:1" /><text x="690" y="5130" font-size="10" style="fill:blue">coordenada</text><path d="M660 5090 C680 5090 660 5140 680 5140" style="fill:transparent;stroke:black" /><text x="690" y="5140" font-size="8" style="fill:black">longitud: 47.578639</text><text x="690" y="5150" font-size="8" style="fill:black">latitud: 19.253022</text><text x="690" y="5160" font-size="8" style="fill:black">altitud: 229</text><rect x="680" y="5170" width="200" height="40" style="fill:white;stroke:black;stroke-width:1" /><text x="690" y="5180" font-size="10" style="fill:blue">numeroSector</text><path d="M660 5090 C680 5090 660 5190 680 5190" style="fill:transparent;stroke:black" /><rect x="746" y="5170" width="137" height="40" style="fill:green;stroke:black;stroke-width:1" /><text x="756" y="5180" font-size="8" style="fill:white">3</text><rect x="460" y="5270" width="200" height="40" style="fill:white;stroke:black;stroke-width:1" /><text x="470" y="5280" font-size="10" style="fill:blue">tramo</text><path d="M440 1090 C460 1090 440 5290 460 5290" style="fill:transparent;stroke:black" /><rect x="680" y="5270" width="200" height="40" style="fill:white;stroke:black;stroke-width:1" /><text x="690" y="5280" font-size="10" style="fill:blue">distanciaTramo</text><path d="M660 5290 C680 5290 660 5290 680 5290" style="fill:transparent;stroke:black" /><text x="690" y="5290" font-size="8" style="fill:black">distancia: 58.25</text><text x="690" y="5300" font-size="8" style="fill:black">unidades: metros</text><rect x="680" y="5320" width="200" height="40" style="fill:white;stroke:black;stroke-width:1" /><text x="690" y="5330" font-size="10" style="fill:blue">coordenada</text><path d="M660 5290 C680 5290 660 5340 680 5340" style="fill:transparent;stroke:black" /><text x="690" y="5340" font-size="8" style="fill:black">longitud: 47.579887</text><text x="690" y="5350" font-size="8" style="fill:black">latitud: 19.250656</text><text x="690" y="5360" font-size="8" style="fill:black">altitud: 226</text><rect x="680" y="5370" width="200" height="40" style="fill:white;stroke:black;stroke-width:1" /><text x="690" y="5380" font-size="10" style="fill:blue">numeroSector</text><path d="M660 5290 C680 5290 660 5390 680 5390" style="fill:transparent;stroke:black" /><rect x="746" y="5370" width="137" height="40" style="fill:green;stroke:black;stroke-width:1" /><text x="756" y="5380" font-size="8" style="fill:white">3</text><rect x="460" y="5470" width="200" height="40" style="fill:white;stroke:black;stroke-width:1" /><text x="470" y="5480" font-size="10" style="fill:blue">tramo</text><path d="M440 1090 C460 1090 440 5490 460 5490" style="fill:transparent;stroke:black" /><rect x="680" y="5470" width="200" height="40" style="fill:white;stroke:black;stroke-width:1" /><text x="690" y="5480" font-size="10" style="fill:blue">distanciaTramo</text><path d="M660 5490 C680 5490 660 5490 680 5490" style="fill:transparent;stroke:black" /><text x="690" y="5490" font-size="8" style="fill:black">distancia: 206.01</text><text x="690" y="5500" font-size="8" style="fill:black">unidades: metros</text><rect x="680" y="5520" width="200" height="40" style="fill:white;stroke:black;stroke-width:1" /><text x="690" y="5530" font-size="10" style="fill:blue">coordenada</text><path d="M660 5490 C680 5490 660 5540 680 5540" style="fill:transparent;stroke:black" /><text x="690" y="5540" font-size="8" style="fill:black">longitud: 47.579471</text><text x="690" y="5550" font-size="8" style="fill:black">latitud: 19.250184</text><text x="690" y="5560" font-size="8" style="fill:black">altitud: 228</text><rect x="680" y="5570" width="200" height="40" style="fill:white;stroke:black;stroke-width:1" /><text x="690" y="5580" font-size="10" style="fill:blue">numeroSector</text><path d="M660 5490 C680 5490 660 5590 680 5590" style="fill:transparent;stroke:black" /><rect x="746" y="5570" width="137" height="40" style="fill:green;stroke:black;stroke-width:1" /><text x="756" y="5580" font-size="8" style="fill:white">3</text><rect x="460" y="5670" width="200" height="40" style="fill:white;stroke:black;stroke-width:1" /><text x="470" y="5680" font-size="10" style="fill:blue">tramo</text><path d="M440 1090 C460 1090 440 5690 460 5690" style="fill:transparent;stroke:black" /><rect x="680" y="5670" width="200" height="40" style="fill:white;stroke:black;stroke-width:1" /><text x="690" y="5680" font-size="10" style="fill:blue">distanciaTramo</text><path d="M660 5690 C680 5690 660 5690 680 5690" style="fill:transparent;stroke:black" /><text x="690" y="5690" font-size="8" style="fill:black">distancia: 97.49</text><text x="690" y="5700" font-size="8" style="fill:black">unidades: metros</text><rect x="680" y="5720" width="200" height="40" style="fill:white;stroke:black;stroke-width:1" /><text x="690" y="5730" font-size="10" style="fill:blue">coordenada</text><path d="M660 5690 C680 5690 660 5740 680 5740" style="fill:transparent;stroke:black" /><text x="690" y="5740" font-size="8" style="fill:black">longitud: 47.578165</text><text x="690" y="5750" font-size="8" style="fill:black">latitud: 19.252132</text><text x="690" y="5760" font-size="8" style="fill:black">altitud: 235</text><rect x="680" y="5770" width="200" height="40" style="fill:white;stroke:black;stroke-width:1" /><text x="690" y="5780" font-size="10" style="fill:blue">numeroSector</text><path d="M660 5690 C680 5690 660 5790 680 5790" style="fill:transparent;stroke:black" /><rect x="746" y="5770" width="137" height="40" style="fill:green;stroke:black;stroke-width:1" /><text x="756" y="5780" font-size="8" style="fill:white">1</text><rect x="460" y="5870" width="200" height="40" style="fill:white;stroke:black;stroke-width:1" /><text x="470" y="5880" font-size="10" style="fill:blue">tramo</text><path d="M440 1090 C460 1090 440 5890 460 5890" style="fill:transparent;stroke:black" /><rect x="680" y="5870" width="200" height="40" style="fill:white;stroke:black;stroke-width:1" /><text x="690" y="5880" font-size="10" style="fill:blue">distanciaTramo</text><path d="M660 5890 C680 5890 660 5890 680 5890" style="fill:transparent;stroke:black" /><text x="690" y="5890" font-size="8" style="fill:black">distancia: 298.57</text><text x="690" y="5900" font-size="8" style="fill:black">unidades: metros</text><rect x="680" y="5920" width="200" height="40" style="fill:white;stroke:black;stroke-width:1" /><text x="690" y="5930" font-size="10" style="fill:blue">coordenada</text><path d="M660 5890 C680 5890 660 5940 680 5940" style="fill:transparent;stroke:black" /><text x="690" y="5940" font-size="8" style="fill:black">longitud: 47.577496</text><text x="690" y="5950" font-size="8" style="fill:black">latitud: 19.251292</text><text x="690" y="5960" font-size="8" style="fill:black">altitud: 236</text><rect x="680" y="5970" width="200" height="40" style="fill:white;stroke:black;stroke-width:1" /><text x="690" y="5980" font-size="10" style="fill:blue">numeroSector</text><path d="M660 5890 C680 5890 660 5990 680 5990" style="fill:transparent;stroke:black" /><rect x="746" y="5970" width="137" height="40" style="fill:green;stroke:black;stroke-width:1" /><text x="756" y="5980" font-size="8" style="fill:white">1</text></svg>