<?xml version="1.0" encoding="utf-8"?><svg width="auto" height="4170" style="overflow:visible " version="1.1" xmlns="http://www.w3.org/2000/svg"><rect x="20" y="20" width="200" height="40" style="fill:white;stroke:black;stroke-width:1" /><text x="30" y="30" font-size="10" style="fill:blue">xs:schema</text><text x="30" y="40" font-size="8" style="fill:black">xmlns: http://www.uniovi.es</text><text x="30" y="50" font-size="8" style="fill:black">elementFormDefault: qualified</text><text x="30" y="60" font-size="8" style="fill:black">targetNamespace: http://www.uniovi.es</text><text x="30" y="70" font-size="8" style="fill:black">xmlns:xs: http://www.w3.org/2001/XMLSchema</text><rect x="240" y="20" width="200" height="40" style="fill:white;stroke:black;stroke-width:1" /><text x="250" y="30" font-size="10" style="fill:blue">xs:element</text><path d="M220 40 C240 40 220 40 240 40" style="fill:transparent;stroke:black" /><text x="250" y="40" font-size="8" style="fill:black">name: circuito</text><rect x="460" y="20" width="200" height="40" style="fill:white;stroke:black;stroke-width:1" /><text x="470" y="30" font-size="10" style="fill:blue">xs:complexType</text><path d="M440 40 C460 40 440 40 460 40" style="fill:transparent;stroke:black" /><rect x="680" y="20" width="200" height="40" style="fill:white;stroke:black;stroke-width:1" /><text x="690" y="30" font-size="10" style="fill:blue">xs:sequence</text><path d="M660 40 C680 40 660 40 680 40" style="fill:transparent;stroke:black" /><rect x="900" y="20" width="200" height="40" style="fill:white;stroke:black;stroke-width:1" /><text x="910" y="30" font-size="10" style="fill:blue">xs:element</text><path d="M880 40 C900 40 880 40 900 40" style="fill:transparent;stroke:black" /><text x="910" y="40" font-size="8" style="fill:black">minOccurs: 1</text><text x="910" y="50" font-size="8" style="fill:black">maxOccurs: unbounded</text><text x="910" y="60" font-size="8" style="fill:black">ref: tramo</text><rect x="240" y="220" width="200" height="40" style="fill:white;stroke:black;stroke-width:1" /><text x="250" y="230" font-size="10" style="fill:blue">xs:element</text><path d="M220 40 C240 40 220 240 240 240" style="fill:transparent;stroke:black" /><text x="250" y="240" font-size="8" style="fill:black">name: tramo</text><rect x="460" y="220" width="200" height="40" style="fill:white;stroke:black;stroke-width:1" /><text x="470" y="230" font-size="10" style="fill:blue">xs:complexType</text><path d="M440 240 C460 240 440 240 460 240" style="fill:transparent;stroke:black" /><rect x="680" y="220" width="200" height="40" style="fill:white;stroke:black;stroke-width:1" /><text x="690" y="230" font-size="10" style="fill:blue">xs:sequence</text><path d="M660 240 C680 240 660 240 680 240" style="fill:transparent;stroke:black" /><rect x="900" y="220" width="200" height="40" style="fill:white;stroke:black;stroke-width:1" /><text x="910" y="230" font-size="10" style="fill:blue">xs:element</text><path d="M880 240 C900 240 880 240 900 240" style="fill:transparent;stroke:black" /><text x="910" y="240" font-size="8" style="fill:black">ref: distanciaTramo</text><rect x="900" y="270" width="200" height="40" style="fill:white;stroke:black;stroke-width:1" /><text x="910" y="280" font-size="10" style="fill:blue">xs:element</text><path d="M880 240 C900 240 880 290 900 290" style="fill:transparent;stroke:black" /><text x="910" y="290" font-size="8" style="fill:black">ref: coordenada</text><rect x="900" y="320" width="200" height="40" style="fill:white;stroke:black;stroke-width:1" /><text x="910" y="330" font-size="10" style="fill:blue">xs:element</text><path d="M880 240 C900 240 880 340 900 340" style="fill:transparent;stroke:black" /><text x="910" y="340" font-size="8" style="fill:black">ref: numeroSector</text><rect x="240" y="520" width="200" height="40" style="fill:white;stroke:black;stroke-width:1" /><text x="250" y="530" font-size="10" style="fill:blue">xs:element</text><path d="M220 40 C240 40 220 540 240 540" style="fill:transparent;stroke:black" /><text x="250" y="540" font-size="8" style="fill:black">name: distanciaTramo</text><rect x="460" y="520" width="200" height="40" style="fill:white;stroke:black;stroke-width:1" /><text x="470" y="530" font-size="10" style="fill:blue">xs:complexType</text><path d="M440 540 C460 540 440 540 460 540" style="fill:transparent;stroke:black" /><rect x="680" y="520" width="200" height="40" style="fill:white;stroke:black;stroke-width:1" /><text x="690" y="530" font-size="10" style="fill:blue">xs:attribute</text><path d="M660 540 C680 540 660 540 680 540" style="fill:transparent;stroke:black" /><text x="690" y="540" font-size="8" style="fill:black">name: distancia</text><text x="690" y="550" font-size="8" style="fill:black">type: xs:double</text><text x="690" y="560" font-size="8" style="fill:black">use: required</text><rect x="680" y="570" width="200" height="40" style="fill:white;stroke:black;stroke-width:1" /><text x="690" y="580" font-size="10" style="fill:blue">xs:attribute</text><path d="M660 540 C680 540 660 590 680 590" style="fill:transparent;stroke:black" /><text x="690" y="590" font-size="8" style="fill:black">name: unidades</text><text x="690" y="600" font-size="8" style="fill:black">type: xs:string</text><text x="690" y="610" font-size="8" style="fill:black">use: required</text><rect x="240" y="720" width="200" height="40" style="fill:white;stroke:black;stroke-width:1" /><text x="250" y="730" font-size="10" style="fill:blue">xs:element</text><path d="M220 40 C240 40 220 740 240 740" style="fill:transparent;stroke:black" /><text x="250" y="740" font-size="8" style="fill:black">name: coordenada</text><rect x="460" y="720" width="200" height="40" style="fill:white;stroke:black;stroke-width:1" /><text x="470" y="730" font-size="10" style="fill:blue">xs:complexType</text><path d="M440 740 C460 740 440 740 460 740" style="fill:transparent;stroke:black" /><rect x="680" y="720" width="200" height="40" style="fill:white;stroke:black;stroke-width:1" /><text x="690" y="730" font-size="10" style="fill:blue">xs:attribute</text><path d="M660 740 C680 740 660 740 680 740" style="fill:transparent;stroke:black" /><text x="690" y="740" font-size="8" style="fill:black">name: longitud</text><text x="690" y="750" font-size="8" style="fill:black">type: xs:double</text><text x="690" y="760" font-size="8" style="fill:black">use: required</text><rect x="680" y="770" width="200" height="40" style="fill:white;stroke:black;stroke-width:1" /><text x="690" y="780" font-size="10" style="fill:blue">xs:attribute</text><path d="M660 740 C680 740 660 790 680 790" style="fill:transparent;stroke:black" /><text x="690" y="790" font-size="8" style="fill:black">name: latitud</text><text x="690" y="800" font-size="8" style="fill:black">type: xs:double</text><text x="690" y="810" font-size="8" style="fill:black">use: required</text><rect x="680" y="820" width="200" height="40" style="fill:white;stroke:black;stroke-width:1" /><text x="690" y="830" font-size="10" style="fill:blue">xs:attribute</text><path d="M660 740 C680 740 660 840 680 840" style="fill:transparent;stroke:black" /><text x="690" y="840" font-size="8" style="fill:black">name: altitud</text><text x="690" y="850" font-size="8" style="fill:black">type: xs:double</text><text x="690" y="860" font-size="8" style="fill:black">use: required</text><rect x="240" y="970" width="200" height="40" style="fill:white;stroke:black;stroke-width:1" /><text x="250" y="980" font-size="10" style="fill:blue">xs:simpleType</text><path d="M220 40 C240 40 220 990 240 990" style="fill:transparent;stroke:black" /><text x="250" y="990" font-size="8" style="fill:black">name: longitud</text><rect x="460" y="970" width="200" height="40" style="fill:white;stroke:black;stroke-width:1" /><text x="470" y="980" font-size="10" style="fill:blue">xs:restriction</text><path d="M440 990 C460 990 440 990 460 990" style="fill:transparent;stroke:black" /><text x="470" y="990" font-size="8" style="fill:black">base: xs:double</text><rect x="680" y="970" width="200" height="40" style="fill:white;stroke:black;stroke-width:1" /><text x="690" y="980" font-size="10" style="fill:blue">xs:minInclusive</text><path d="M660 990 C680 990 660 990 680 990" style="fill:transparent;stroke:black" /><text x="690" y="990" font-size="8" style="fill:black">value: 0</text><rect x="680" y="1020" width="200" height="40" style="fill:white;stroke:black;stroke-width:1" /><text x="690" y="1030" font-size="10" style="fill:blue">xs:maxInclusive</text><path d="M660 990 C680 990 660 1040 680 1040" style="fill:transparent;stroke:black" /><text x="690" y="1040" font-size="8" style="fill:black">value: 90</text><rect x="240" y="1170" width="200" height="40" style="fill:white;stroke:black;stroke-width:1" /><text x="250" y="1180" font-size="10" style="fill:blue">xs:simpleType</text><path d="M220 40 C240 40 220 1190 240 1190" style="fill:transparent;stroke:black" /><text x="250" y="1190" font-size="8" style="fill:black">name: latitud</text><rect x="460" y="1170" width="200" height="40" style="fill:white;stroke:black;stroke-width:1" /><text x="470" y="1180" font-size="10" style="fill:blue">xs:restriction</text><path d="M440 1190 C460 1190 440 1190 460 1190" style="fill:transparent;stroke:black" /><text x="470" y="1190" font-size="8" style="fill:black">base: xs:double</text><rect x="680" y="1170" width="200" height="40" style="fill:white;stroke:black;stroke-width:1" /><text x="690" y="1180" font-size="10" style="fill:blue">xs:minInclusive</text><path d="M660 1190 C680 1190 660 1190 680 1190" style="fill:transparent;stroke:black" /><text x="690" y="1190" font-size="8" style="fill:black">value: -180</text><rect x="680" y="1220" width="200" height="40" style="fill:white;stroke:black;stroke-width:1" /><text x="690" y="1230" font-size="10" style="fill:blue">xs:maxInclusive</text><path d="M660 1190 C680 1190 660 1240 680 1240" style="fill:transparent;stroke:black" /><text x="690" y="1240" font-size="8" style="fill:black">value: 180</text><rect x="240" y="1370" width="200" height="40" style="fill:white;stroke:black;stroke-width:1" /><text x="250" y="1380" font-size="10" style="fill:blue">xs:element</text><path d="M220 40 C240 40 220 1390 240 1390" style="fill:transparent;stroke:black" /><text x="250" y="1390" font-size="8" style="fill:black">name: numeroSector</text><text x="250" y="1400" font-size="8" style="fill:black">type: xs:int</text><rect x="240" y="1420" width="200" height="40" style="fill:white;stroke:black;stroke-width:1" /><text x="250" y="1430" font-size="10" style="fill:blue">xs:element</text><path d="M220 40 C240 40 220 1440 240 1440" style="fill:transparent;stroke:black" /><text x="250" y="1440" font-size="8" style="fill:black">name: circuitoInfo</text><rect x="460" y="1420" width="200" height="40" style="fill:white;stroke:black;stroke-width:1" /><text x="470" y="1430" font-size="10" style="fill:blue">xs:complexType</text><path d="M440 1440 C460 1440 440 1440 460 1440" style="fill:transparent;stroke:black" /><rect x="680" y="1420" width="200" height="40" style="fill:white;stroke:black;stroke-width:1" /><text x="690" y="1430" font-size="10" style="fill:blue">xs:sequence</text><path d="M660 1440 C680 1440 660 1440 680 1440" style="fill:transparent;stroke:black" /><rect x="900" y="1420" width="200" height="40" style="fill:white;stroke:black;stroke-width:1" /><text x="910" y="1430" font-size="10" style="fill:blue">xs:element</text><path d="M880 1440 C900 1440 880 1440 900 1440" style="fill:transparent;stroke:black" /><text x="910" y="1440" font-size="8" style="fill:black">ref: nombre</text><rect x="900" y="1470" width="200" height="40" style="fill:white;stroke:black;stroke-width:1" /><text x="910" y="1480" font-size="10" style="fill:blue">xs:element</text><path d="M880 1440 C900 1440 880 1490 900 1490" style="fill:transparent;stroke:black" /><text x="910" y="1490" font-size="8" style="fill:black">ref: longitudCircuito</text><rect x="900" y="1520" width="200" height="40" style="fill:white;stroke:black;stroke-width:1" /><text x="910" y="1530" font-size="10" style="fill:blue">xs:element</text><path d="M880 1440 C900 1440 880 1540 900 1540" style="fill:transparent;stroke:black" /><text x="910" y="1540" font-size="8" style="fill:black">ref: anchuraMedia</text><rect x="900" y="1570" width="200" height="40" style="fill:white;stroke:black;stroke-width:1" /><text x="910" y="1580" font-size="10" style="fill:blue">xs:element</text><path d="M880 1440 C900 1440 880 1590 900 1590" style="fill:transparent;stroke:black" /><text x="910" y="1590" font-size="8" style="fill:black">ref: fechaCarrera</text><rect x="900" y="1620" width="200" height="40" style="fill:white;stroke:black;stroke-width:1" /><text x="910" y="1630" font-size="10" style="fill:blue">xs:element</text><path d="M880 1440 C900 1440 880 1640 900 1640" style="fill:transparent;stroke:black" /><text x="910" y="1640" font-size="8" style="fill:black">ref: horaInicioEspañola</text><rect x="900" y="1670" width="200" height="40" style="fill:white;stroke:black;stroke-width:1" /><text x="910" y="1680" font-size="10" style="fill:blue">xs:element</text><path d="M880 1440 C900 1440 880 1690 900 1690" style="fill:transparent;stroke:black" /><text x="910" y="1690" font-size="8" style="fill:black">ref: numeroVueltas</text><rect x="900" y="1720" width="200" height="40" style="fill:white;stroke:black;stroke-width:1" /><text x="910" y="1730" font-size="10" style="fill:blue">xs:element</text><path d="M880 1440 C900 1440 880 1740 900 1740" style="fill:transparent;stroke:black" /><text x="910" y="1740" font-size="8" style="fill:black">ref: localidad</text><rect x="900" y="1770" width="200" height="40" style="fill:white;stroke:black;stroke-width:1" /><text x="910" y="1780" font-size="10" style="fill:blue">xs:element</text><path d="M880 1440 C900 1440 880 1790 900 1790" style="fill:transparent;stroke:black" /><text x="910" y="1790" font-size="8" style="fill:black">ref: pais</text><rect x="900" y="1820" width="200" height="40" style="fill:white;stroke:black;stroke-width:1" /><text x="910" y="1830" font-size="10" style="fill:blue">xs:element</text><path d="M880 1440 C900 1440 880 1840 900 1840" style="fill:transparent;stroke:black" /><text x="910" y="1840" font-size="8" style="fill:black">ref: referecias</text><rect x="900" y="1870" width="200" height="40" style="fill:white;stroke:black;stroke-width:1" /><text x="910" y="1880" font-size="10" style="fill:blue">xs:element</text><path d="M880 1440 C900 1440 880 1890 900 1890" style="fill:transparent;stroke:black" /><text x="910" y="1890" font-size="8" style="fill:black">ref: fotografias</text><rect x="900" y="1920" width="200" height="40" style="fill:white;stroke:black;stroke-width:1" /><text x="910" y="1930" font-size="10" style="fill:blue">xs:element</text><path d="M880 1440 C900 1440 880 1940 900 1940" style="fill:transparent;stroke:black" /><text x="910" y="1940" font-size="8" style="fill:black">ref: videos</text><rect x="900" y="1970" width="200" height="40" style="fill:white;stroke:black;stroke-width:1" /><text x="910" y="1980" font-size="10" style="fill:blue">xs:element</text><path d="M880 1440 C900 1440 880 1990 900 1990" style="fill:transparent;stroke:black" /><text x="910" y="1990" font-size="8" style="fill:black">ref: circuito</text><rect x="240" y="2170" width="200" height="40" style="fill:white;stroke:black;stroke-width:1" /><text x="250" y="2180" font-size="10" style="fill:blue">xs:simpleType</text><path d="M220 40 C240 40 220 2190 240 2190" style="fill:transparent;stroke:black" /><text x="250" y="2190" font-size="8" style="fill:black">name: numSector</text><rect x="460" y="2170" width="200" height="40" style="fill:white;stroke:black;stroke-width:1" /><text x="470" y="2180" font-size="10" style="fill:blue">xs:restriction</text><path d="M440 2190 C460 2190 440 2190 460 2190" style="fill:transparent;stroke:black" /><text x="470" y="2190" font-size="8" style="fill:black">base: xs:int</text><rect x="680" y="2170" width="200" height="40" style="fill:white;stroke:black;stroke-width:1" /><text x="690" y="2180" font-size="10" style="fill:blue">xs:minInclusive</text><path d="M660 2190 C680 2190 660 2190 680 2190" style="fill:transparent;stroke:black" /><text x="690" y="2190" font-size="8" style="fill:black">value: 1</text><rect x="240" y="2320" width="200" height="40" style="fill:white;stroke:black;stroke-width:1" /><text x="250" y="2330" font-size="10" style="fill:blue">xs:element</text><path d="M220 40 C240 40 220 2340 240 2340" style="fill:transparent;stroke:black" /><text x="250" y="2340" font-size="8" style="fill:black">name: referecias</text><rect x="460" y="2320" width="200" height="40" style="fill:white;stroke:black;stroke-width:1" /><text x="470" y="2330" font-size="10" style="fill:blue">xs:complexType</text><path d="M440 2340 C460 2340 440 2340 460 2340" style="fill:transparent;stroke:black" /><rect x="680" y="2320" width="200" height="40" style="fill:white;stroke:black;stroke-width:1" /><text x="690" y="2330" font-size="10" style="fill:blue">xs:sequence</text><path d="M660 2340 C680 2340 660 2340 680 2340" style="fill:transparent;stroke:black" /><rect x="900" y="2320" width="200" height="40" style="fill:white;stroke:black;stroke-width:1" /><text x="910" y="2330" font-size="10" style="fill:blue">xs:element</text><path d="M880 2340 C900 2340 880 2340 900 2340" style="fill:transparent;stroke:black" /><text x="910" y="2340" font-size="8" style="fill:black">minOccurs: 3</text><text x="910" y="2350" font-size="8" style="fill:black">maxOccurs: unbounded</text><text x="910" y="2360" font-size="8" style="fill:black">ref: referencia</text><rect x="240" y="2520" width="200" height="40" style="fill:white;stroke:black;stroke-width:1" /><text x="250" y="2530" font-size="10" style="fill:blue">xs:element</text><path d="M220 40 C240 40 220 2540 240 2540" style="fill:transparent;stroke:black" /><text x="250" y="2540" font-size="8" style="fill:black">name: referencia</text><text x="250" y="2550" font-size="8" style="fill:black">type: xs:string</text><rect x="240" y="2570" width="200" height="40" style="fill:white;stroke:black;stroke-width:1" /><text x="250" y="2580" font-size="10" style="fill:blue">xs:element</text><path d="M220 40 C240 40 220 2590 240 2590" style="fill:transparent;stroke:black" /><text x="250" y="2590" font-size="8" style="fill:black">name: fotografias</text><rect x="460" y="2570" width="200" height="40" style="fill:white;stroke:black;stroke-width:1" /><text x="470" y="2580" font-size="10" style="fill:blue">xs:complexType</text><path d="M440 2590 C460 2590 440 2590 460 2590" style="fill:transparent;stroke:black" /><rect x="680" y="2570" width="200" height="40" style="fill:white;stroke:black;stroke-width:1" /><text x="690" y="2580" font-size="10" style="fill:blue">xs:sequence</text><path d="M660 2590 C680 2590 660 2590 680 2590" style="fill:transparent;stroke:black" /><rect x="900" y="2570" width="200" height="40" style="fill:white;stroke:black;stroke-width:1" /><text x="910" y="2580" font-size="10" style="fill:blue">xs:element</text><path d="M880 2590 C900 2590 880 2590 900 2590" style="fill:transparent;stroke:black" /><text x="910" y="2590" font-size="8" style="fill:black">minOccurs: 1</text><text x="910" y="2600" font-size="8" style="fill:black">maxOccurs: 5</text><text x="910" y="2610" font-size="8" style="fill:black">ref: foto</text><rect x="240" y="2770" width="200" height="40" style="fill:white;stroke:black;stroke-width:1" /><text x="250" y="2780" font-size="10" style="fill:blue">xs:element</text><path d="M220 40 C240 40 220 2790 240 2790" style="fill:transparent;stroke:black" /><text x="250" y="2790" font-size="8" style="fill:black">name: foto</text><text x="250" y="2800" font-size="8" style="fill:black">type: xs:string</text><rect x="240" y="2820" width="200" height="40" style="fill:white;stroke:black;stroke-width:1" /><text x="250" y="2830" font-size="10" style="fill:blue">xs:element</text><path d="M220 40 C240 40 220 2840 240 2840" style="fill:transparent;stroke:black" /><text x="250" y="2840" font-size="8" style="fill:black">name: videos</text><rect x="460" y="2820" width="200" height="40" style="fill:white;stroke:black;stroke-width:1" /><text x="470" y="2830" font-size="10" style="fill:blue">xs:complexType</text><path d="M440 2840 C460 2840 440 2840 460 2840" style="fill:transparent;stroke:black" /><rect x="680" y="2820" width="200" height="40" style="fill:white;stroke:black;stroke-width:1" /><text x="690" y="2830" font-size="10" style="fill:blue">xs:sequence</text><path d="M660 2840 C680 2840 660 2840 680 2840" style="fill:transparent;stroke:black" /><rect x="900" y="2820" width="200" height="40" style="fill:white;stroke:black;stroke-width:1" /><text x="910" y="2830" font-size="10" style="fill:blue">xs:element</text><path d="M880 2840 C900 2840 880 2840 900 2840" style="fill:transparent;stroke:black" /><text x="910" y="2840" font-size="8" style="fill:black">minOccurs: 0</text><text x="910" y="2850" font-size="8" style="fill:black">maxOccurs: 3</text><text x="910" y="2860" font-size="8" style="fill:black">ref: video</text><rect x="240" y="3020" width="200" height="40" style="fill:white;stroke:black;stroke-width:1" /><text x="250" y="3030" font-size="10" style="fill:blue">xs:element</text><path d="M220 40 C240 40 220 3040 240 3040" style="fill:transparent;stroke:black" /><text x="250" y="3040" font-size="8" style="fill:black">name: video</text><text x="250" y="3050" font-size="8" style="fill:black">type: xs:string</text><rect x="240" y="3070" width="200" height="40" style="fill:white;stroke:black;stroke-width:1" /><text x="250" y="3080" font-size="10" style="fill:blue">xs:element</text><path d="M220 40 C240 40 220 3090 240 3090" style="fill:transparent;stroke:black" /><text x="250" y="3090" font-size="8" style="fill:black">name: nombre</text><text x="250" y="3100" font-size="8" style="fill:black">type: xs:string</text><rect x="240" y="3120" width="200" height="40" style="fill:white;stroke:black;stroke-width:1" /><text x="250" y="3130" font-size="10" style="fill:blue">xs:element</text><path d="M220 40 C240 40 220 3140 240 3140" style="fill:transparent;stroke:black" /><text x="250" y="3140" font-size="8" style="fill:black">name: unidadesCircuito</text><text x="250" y="3150" font-size="8" style="fill:black">type: xs:string</text><rect x="240" y="3170" width="200" height="40" style="fill:white;stroke:black;stroke-width:1" /><text x="250" y="3180" font-size="10" style="fill:blue">xs:element</text><path d="M220 40 C240 40 220 3190 240 3190" style="fill:transparent;stroke:black" /><text x="250" y="3190" font-size="8" style="fill:black">name: longitudCircuito</text><rect x="460" y="3170" width="200" height="40" style="fill:white;stroke:black;stroke-width:1" /><text x="470" y="3180" font-size="10" style="fill:blue">xs:complexType</text><path d="M440 3190 C460 3190 440 3190 460 3190" style="fill:transparent;stroke:black" /><rect x="680" y="3170" width="200" height="40" style="fill:white;stroke:black;stroke-width:1" /><text x="690" y="3180" font-size="10" style="fill:blue">xs:sequence</text><path d="M660 3190 C680 3190 660 3190 680 3190" style="fill:transparent;stroke:black" /><rect x="900" y="3170" width="200" height="40" style="fill:white;stroke:black;stroke-width:1" /><text x="910" y="3180" font-size="10" style="fill:blue">xs:element</text><path d="M880 3190 C900 3190 880 3190 900 3190" style="fill:transparent;stroke:black" /><text x="910" y="3190" font-size="8" style="fill:black">ref: valorLongitudCircuito</text><rect x="900" y="3220" width="200" height="40" style="fill:white;stroke:black;stroke-width:1" /><text x="910" y="3230" font-size="10" style="fill:blue">xs:element</text><path d="M880 3190 C900 3190 880 3240 900 3240" style="fill:transparent;stroke:black" /><text x="910" y="3240" font-size="8" style="fill:black">ref: unidadesLongitudCircuito</text><rect x="240" y="3420" width="200" height="40" style="fill:white;stroke:black;stroke-width:1" /><text x="250" y="3430" font-size="10" style="fill:blue">xs:element</text><path d="M220 40 C240 40 220 3440 240 3440" style="fill:transparent;stroke:black" /><text x="250" y="3440" font-size="8" style="fill:black">name: unidadesLongitudCircuito</text><text x="250" y="3450" font-size="8" style="fill:black">type: xs:string</text><rect x="240" y="3470" width="200" height="40" style="fill:white;stroke:black;stroke-width:1" /><text x="250" y="3480" font-size="10" style="fill:blue">xs:element</text><path d="M220 40 C240 40 220 3490 240 3490" style="fill:transparent;stroke:black" /><text x="250" y="3490" font-size="8" style="fill:black">name: valorLongitudCircuito</text><text x="250" y="3500" font-size="8" style="fill:black">type: xs:double</text><rect x="240" y="3520" width="200" height="40" style="fill:white;stroke:black;stroke-width:1" /><text x="250" y="3530" font-size="10" style="fill:blue">xs:element</text><path d="M220 40 C240 40 220 3540 240 3540" style="fill:transparent;stroke:black" /><text x="250" y="3540" font-size="8" style="fill:black">name: anchuraMedia</text><rect x="460" y="3520" width="200" height="40" style="fill:white;stroke:black;stroke-width:1" /><text x="470" y="3530" font-size="10" style="fill:blue">xs:complexType</text><path d="M440 3540 C460 3540 440 3540 460 3540" style="fill:transparent;stroke:black" /><rect x="680" y="3520" width="200" height="40" style="fill:white;stroke:black;stroke-width:1" /><text x="690" y="3530" font-size="10" style="fill:blue">xs:sequence</text><path d="M660 3540 C680 3540 660 3540 680 3540" style="fill:transparent;stroke:black" /><rect x="900" y="3520" width="200" height="40" style="fill:white;stroke:black;stroke-width:1" /><text x="910" y="3530" font-size="10" style="fill:blue">xs:element</text><path d="M880 3540 C900 3540 880 3540 900 3540" style="fill:transparent;stroke:black" /><text x="910" y="3540" font-size="8" style="fill:black">ref: valorAnchuraMedia</text><rect x="900" y="3570" width="200" height="40" style="fill:white;stroke:black;stroke-width:1" /><text x="910" y="3580" font-size="10" style="fill:blue">xs:element</text><path d="M880 3540 C900 3540 880 3590 900 3590" style="fill:transparent;stroke:black" /><text x="910" y="3590" font-size="8" style="fill:black">ref: unidadesAnchuraMedia</text><rect x="240" y="3770" width="200" height="40" style="fill:white;stroke:black;stroke-width:1" /><text x="250" y="3780" font-size="10" style="fill:blue">xs:element</text><path d="M220 40 C240 40 220 3790 240 3790" style="fill:transparent;stroke:black" /><text x="250" y="3790" font-size="8" style="fill:black">name: unidadesAnchuraMedia</text><text x="250" y="3800" font-size="8" style="fill:black">type: xs:string</text><rect x="240" y="3820" width="200" height="40" style="fill:white;stroke:black;stroke-width:1" /><text x="250" y="3830" font-size="10" style="fill:blue">xs:element</text><path d="M220 40 C240 40 220 3840 240 3840" style="fill:transparent;stroke:black" /><text x="250" y="3840" font-size="8" style="fill:black">name: valorAnchuraMedia</text><text x="250" y="3850" font-size="8" style="fill:black">type: xs:string</text><rect x="240" y="3870" width="200" height="40" style="fill:white;stroke:black;stroke-width:1" /><text x="250" y="3880" font-size="10" style="fill:blue">xs:element</text><path d="M220 40 C240 40 220 3890 240 3890" style="fill:transparent;stroke:black" /><text x="250" y="3890" font-size="8" style="fill:black">name: fechaCarrera</text><text x="250" y="3900" font-size="8" style="fill:black">type: xs:date</text><rect x="240" y="3920" width="200" height="40" style="fill:white;stroke:black;stroke-width:1" /><text x="250" y="3930" font-size="10" style="fill:blue">xs:element</text><path d="M220 40 C240 40 220 3940 240 3940" style="fill:transparent;stroke:black" /><text x="250" y="3940" font-size="8" style="fill:black">name: numeroVueltas</text><text x="250" y="3950" font-size="8" style="fill:black">type: xs:int</text><rect x="240" y="3970" width="200" height="40" style="fill:white;stroke:black;stroke-width:1" /><text x="250" y="3980" font-size="10" style="fill:blue">xs:element</text><path d="M220 40 C240 40 220 3990 240 3990" style="fill:transparent;stroke:black" /><text x="250" y="3990" font-size="8" style="fill:black">name: horaInicioEspañola</text><text x="250" y="4000" font-size="8" style="fill:black">type: xs:string</text><rect x="240" y="4020" width="200" height="40" style="fill:white;stroke:black;stroke-width:1" /><text x="250" y="4030" font-size="10" style="fill:blue">xs:element</text><path d="M220 40 C240 40 220 4040 240 4040" style="fill:transparent;stroke:black" /><text x="250" y="4040" font-size="8" style="fill:black">name: localidad</text><text x="250" y="4050" font-size="8" style="fill:black">type: xs:string</text><rect x="240" y="4070" width="200" height="40" style="fill:white;stroke:black;stroke-width:1" /><text x="250" y="4080" font-size="10" style="fill:blue">xs:element</text><path d="M220 40 C240 40 220 4090 240 4090" style="fill:transparent;stroke:black" /><text x="250" y="4090" font-size="8" style="fill:black">name: pais</text><text x="250" y="4100" font-size="8" style="fill:black">type: xs:string</text></svg>