<?xml version="1.0" encoding="UTF-8"?>
<svg xmlns="http://www.w3.org/2000/svg" xmlns:xlink="http://www.w3.org/1999/xlink" width="170px" height="px" viewBox="0 0 169 56" version="1.1">
<g id="surface1">
<path style=" stroke:none;fill-rule:nonzero;fill:rgb(81.568629%,85.882354%,14.509805%);fill-opacity:1;" d="M 86.128906 27.742188 C 86.128906 35 86.179688 46.222656 86.457031 55.722656 L 86.515625 55.722656 C 86.796875 46.226562 86.847656 34.503906 86.847656 27.273438 C 86.847656 24.597656 86.839844 11.023438 86.515625 0 L 86.457031 0 C 86.234375 7.585938 86.128906 17.441406 86.128906 27.742188 Z M 86.128906 27.742188 "/>
<path style=" stroke:none;fill-rule:nonzero;fill:rgb(81.568629%,85.882354%,14.509805%);fill-opacity:1;" d="M 37.023438 23.980469 C 27.417969 23.980469 12.570312 24.027344 0 24.308594 L 0 24.371094 C 12.566406 24.648438 28.074219 24.703125 37.652344 24.703125 C 41.191406 24.703125 59.152344 24.695312 73.738281 24.371094 L 73.738281 24.308594 C 63.695312 24.085938 50.652344 23.980469 37.023438 23.980469 "/>
<path style=" stroke:none;fill-rule:nonzero;fill:rgb(0.392157%,34.117648%,30.588236%);fill-opacity:1;" d="M 69.664062 3.140625 L 42.394531 3.140625 C 41.902344 3.140625 41.214844 3.132812 40.484375 3.867188 C 39.792969 4.558594 40 5.25 38.859375 5.25 L 34.878906 5.25 C 33.738281 5.25 33.949219 4.5625 33.253906 3.867188 C 32.523438 3.132812 31.835938 3.140625 31.34375 3.140625 L 4.074219 3.140625 C 3.140625 3.140625 2.730469 3.976562 3.175781 4.722656 L 3.667969 5.546875 C 3.929688 6 4.277344 6.070312 4.53125 6.117188 C 4.765625 6.167969 4.90625 6.195312 5.089844 6.515625 L 5.523438 7.277344 C 5.855469 7.898438 6.257812 7.972656 6.550781 8.027344 C 6.789062 8.074219 6.996094 8.089844 7.289062 8.621094 C 7.601562 9.195312 8.027344 9.917969 9.019531 10.214844 L 19.207031 13.199219 C 20.265625 13.542969 20.539062 13.933594 20.851562 14.386719 C 21.015625 14.621094 21.519531 15.472656 22.890625 15.847656 L 32.578125 18.476562 C 33.488281 18.722656 34.125 18.375 34.566406 17.980469 L 36.320312 16.308594 C 36.773438 15.882812 36.964844 15.882812 37.414062 16.308594 L 39.171875 17.980469 C 39.613281 18.375 40.25 18.722656 41.160156 18.476562 L 50.84375 15.847656 C 52.222656 15.476562 52.722656 14.621094 52.886719 14.386719 C 53.199219 13.933594 53.46875 13.542969 54.53125 13.199219 L 64.71875 10.214844 C 65.710938 9.921875 66.136719 9.195312 66.449219 8.621094 C 66.742188 8.089844 66.953125 8.070312 67.1875 8.027344 C 67.484375 7.972656 67.882812 7.894531 68.214844 7.273438 L 68.648438 6.507812 C 68.832031 6.191406 68.972656 6.160156 69.207031 6.113281 C 69.460938 6.0625 69.808594 5.992188 70.070312 5.539062 L 70.5625 4.71875 C 71.007812 3.976562 70.597656 3.140625 69.664062 3.140625 M 4.085938 4.835938 L 3.792969 4.34375 C 3.703125 4.195312 3.644531 3.863281 4.066406 3.863281 L 31.34375 3.863281 C 31.894531 3.863281 32.515625 3.855469 33.113281 4.902344 C 33.199219 5.058594 33.296875 5.207031 33.402344 5.347656 L 5.761719 5.347656 C 4.636719 5.347656 4.421875 5.355469 4.089844 4.835938 M 21.777344 5.90625 L 51.960938 5.90625 L 51.960938 10.652344 L 21.777344 10.652344 Z M 6.25 7.074219 C 5.996094 6.820312 5.828125 6.285156 5.597656 5.96875 L 21.238281 5.90625 L 21.238281 6.597656 L 8 7.367188 C 6.976562 7.4375 6.554688 7.378906 6.25 7.070312 M 8.300781 8.886719 C 8.15625 8.695312 8.027344 8.492188 7.917969 8.277344 C 7.867188 8.179688 7.808594 8.085938 7.746094 7.996094 C 7.933594 7.988281 7.972656 7.980469 8.324219 7.960938 L 21.234375 7.160156 L 21.234375 7.898438 L 11.035156 8.996094 C 9.65625 9.140625 8.722656 9.347656 8.300781 8.882812 M 11.792969 10.277344 L 9.9375 9.734375 C 11.175781 9.585938 21.234375 8.457031 21.234375 8.457031 L 21.234375 9.28125 L 14.691406 10.335938 C 13.9375 10.457031 13.027344 10.609375 11.792969 10.28125 M 16.332031 11.605469 L 14.265625 11 C 14.460938 10.972656 14.578125 10.953125 14.796875 10.914062 L 21.242188 9.835938 L 21.242188 10.726562 L 18.8125 11.417969 C 18.792969 11.421875 17.300781 11.871094 16.335938 11.605469 M 19.414062 12.507812 L 18.222656 12.160156 C 18.476562 12.109375 18.726562 12.050781 18.972656 11.976562 L 21.609375 11.203125 L 24.5625 11.203125 L 21.832031 12.476562 C 20.964844 12.816406 20.191406 12.714844 19.417969 12.507812 M 22.125 14.714844 C 21.796875 14.488281 21.625 14.242188 21.4375 13.976562 C 21.273438 13.722656 21.082031 13.492188 20.863281 13.285156 C 21.082031 13.269531 21.296875 13.238281 21.507812 13.1875 C 21.855469 13.078125 22.199219 12.945312 22.535156 12.796875 L 25.816406 11.195312 L 28 11.195312 L 23.710938 14.253906 C 23.050781 14.683594 22.523438 14.847656 22.125 14.714844 M 25.367188 15.769531 L 23.265625 15.199219 C 23.539062 15.085938 23.804688 14.941406 24.050781 14.773438 C 24.269531 14.632812 24.015625 14.8125 29 11.199219 L 30.828125 11.199219 L 27.464844 14.65625 C 26.875 15.265625 26.226562 15.941406 25.371094 15.773438 M 28.6875 16.675781 L 26.710938 16.136719 C 27.253906 15.820312 27.730469 15.292969 27.917969 15.097656 L 31.65625 11.203125 L 33.296875 11.203125 L 30.316406 15.871094 C 29.824219 16.617188 29.261719 16.777344 28.683594 16.671875 M 32.152344 17.613281 L 30.046875 17.039062 C 30.386719 16.820312 30.667969 16.523438 30.875 16.175781 L 33.996094 11.199219 L 35.410156 11.199219 C 35.410156 11.199219 33.578125 16.59375 33.449219 16.863281 C 33.085938 17.652344 32.664062 17.714844 32.152344 17.613281 M 39.652344 17.445312 L 37.910156 15.785156 C 37.179688 15.09375 36.558594 15.09375 35.828125 15.785156 L 34.085938 17.445312 C 33.964844 17.554688 33.828125 17.648438 33.683594 17.71875 C 34.003906 17.324219 34.191406 16.757812 34.316406 16.386719 L 36.042969 11.199219 L 37.695312 11.199219 L 39.421875 16.386719 C 39.550781 16.769531 39.738281 17.324219 40.054688 17.71875 C 39.910156 17.648438 39.773438 17.554688 39.652344 17.445312 M 41.585938 17.613281 C 41.074219 17.710938 40.65625 17.652344 40.289062 16.863281 C 40.160156 16.589844 38.328125 11.199219 38.328125 11.199219 L 39.746094 11.199219 L 42.867188 16.175781 C 43.074219 16.523438 43.355469 16.820312 43.691406 17.039062 Z M 45.058594 16.671875 C 44.480469 16.777344 43.917969 16.617188 43.425781 15.871094 L 40.445312 11.199219 L 42.089844 11.199219 L 45.828125 15.09375 C 46.011719 15.292969 46.488281 15.816406 47.03125 16.132812 Z M 48.375 15.769531 C 47.519531 15.9375 46.875 15.261719 46.28125 14.652344 L 42.917969 11.195312 L 44.746094 11.195312 C 44.746094 11.195312 49.476562 14.628906 49.695312 14.769531 C 49.945312 14.9375 50.207031 15.082031 50.484375 15.195312 Z M 52.300781 13.972656 C 52.117188 14.242188 51.945312 14.488281 51.613281 14.714844 C 51.21875 14.84375 50.6875 14.683594 50.027344 14.253906 C 49.839844 14.132812 45.734375 11.199219 45.734375 11.199219 L 47.917969 11.199219 C 47.917969 11.199219 50.441406 12.449219 51.199219 12.800781 C 51.617188 13 52.164062 13.25 52.871094 13.285156 C 52.652344 13.492188 52.460938 13.722656 52.296875 13.976562 M 54.332031 12.507812 C 53.554688 12.714844 52.785156 12.816406 51.914062 12.476562 C 51.601562 12.355469 49.1875 11.203125 49.1875 11.203125 L 52.136719 11.203125 L 54.773438 11.976562 C 55.023438 12.050781 55.273438 12.109375 55.527344 12.160156 L 54.335938 12.507812 M 57.414062 11.605469 C 56.449219 11.871094 54.933594 11.417969 54.933594 11.417969 L 52.503906 10.726562 L 52.503906 9.835938 L 58.953125 10.914062 C 59.171875 10.953125 59.292969 10.972656 59.484375 11 L 57.417969 11.605469 M 61.949219 10.277344 C 60.714844 10.605469 59.800781 10.457031 59.050781 10.332031 L 52.503906 9.28125 L 52.503906 8.457031 L 63.800781 9.734375 L 61.945312 10.277344 M 65.816406 8.273438 C 65.707031 8.488281 65.582031 8.691406 65.4375 8.886719 C 65.015625 9.355469 64.078125 9.148438 62.703125 9 L 52.503906 7.898438 L 52.503906 7.15625 L 65.414062 7.957031 C 65.769531 7.976562 65.808594 7.984375 65.992188 7.992188 C 65.929688 8.082031 65.871094 8.175781 65.816406 8.273438 M 67.292969 7.164062 C 66.792969 7.484375 66.226562 7.394531 64.546875 7.296875 L 52.507812 6.59375 L 52.507812 5.902344 L 68.144531 5.96875 C 67.824219 6.421875 67.734375 6.882812 67.292969 7.164062 M 69.949219 4.34375 L 69.652344 4.835938 C 69.320312 5.355469 69.101562 5.347656 67.980469 5.347656 L 40.335938 5.347656 C 40.441406 5.207031 40.539062 5.058594 40.621094 4.902344 C 41.222656 3.855469 41.84375 3.859375 42.394531 3.859375 L 69.671875 3.859375 C 70.09375 3.859375 70.035156 4.191406 69.945312 4.339844 M 39.144531 9.703125 C 39.074219 8.847656 39.023438 8.339844 38.984375 7.996094 C 38.675781 8.539062 38.394531 9.09375 38.144531 9.664062 L 37.960938 9.664062 C 37.503906 8.722656 37.449219 8.617188 37.316406 8.371094 C 37.273438 8.289062 37.21875 8.191406 37.132812 8.015625 C 37.09375 8.355469 37.023438 9.019531 36.976562 9.703125 L 36.5 9.703125 C 36.632812 8.714844 36.851562 7.035156 36.867188 6.898438 L 37.15625 6.898438 C 37.15625 6.898438 37.832031 8.253906 38.125 8.761719 C 38.46875 8.132812 38.691406 7.683594 39.132812 6.898438 L 39.390625 6.898438 C 39.4375 7.300781 39.585938 8.585938 39.722656 9.703125 Z M 47.761719 6.898438 L 47.207031 6.898438 L 47.207031 9.703125 L 47.761719 9.703125 Z M 46.101562 9.703125 L 46.101562 7.3125 C 46.378906 7.3125 46.65625 7.332031 46.933594 7.371094 L 46.933594 6.898438 L 44.679688 6.898438 L 44.679688 7.371094 C 44.96875 7.335938 45.257812 7.316406 45.550781 7.3125 L 45.550781 9.703125 Z M 28.648438 9.703125 L 28.648438 7.3125 C 28.925781 7.3125 29.203125 7.332031 29.480469 7.371094 L 29.480469 6.898438 L 27.226562 6.898438 L 27.226562 7.371094 C 27.515625 7.335938 27.804688 7.316406 28.09375 7.3125 L 28.09375 9.703125 Z M 35.113281 9.703125 L 35.113281 6.898438 L 34.679688 6.898438 L 34.679688 8.707031 L 33.011719 6.898438 L 32.703125 6.898438 L 32.703125 9.703125 L 33.140625 9.703125 L 33.140625 7.804688 L 34.832031 9.703125 Z M 25.382812 8.914062 L 25.382812 9.539062 C 25.605469 9.695312 25.871094 9.777344 26.144531 9.777344 C 26.746094 9.777344 27.28125 9.4375 27.28125 8.855469 C 27.285156 8.542969 27.09375 8.257812 26.804688 8.144531 C 26.453125 7.984375 26.226562 7.945312 26.070312 7.816406 C 25.792969 7.582031 26.019531 7.207031 26.394531 7.207031 C 26.507812 7.207031 26.789062 7.238281 26.867188 7.519531 L 27.074219 7.519531 L 27.074219 7.003906 C 26.855469 6.894531 26.617188 6.835938 26.375 6.828125 C 26.15625 6.824219 25.9375 6.894531 25.761719 7.023438 C 25.332031 7.335938 25.214844 7.972656 25.820312 8.339844 C 26.199219 8.566406 26.71875 8.535156 26.730469 8.957031 C 26.742188 9.265625 26.445312 9.378906 26.226562 9.378906 C 25.789062 9.378906 25.652344 8.992188 25.613281 8.914062 Z M 25.367188 9.703125 L 24.144531 6.839844 L 23.910156 6.839844 L 22.640625 9.703125 L 23.164062 9.703125 C 23.242188 9.4375 23.332031 9.171875 23.4375 8.914062 L 24.433594 8.914062 C 24.554688 9.21875 24.652344 9.496094 24.726562 9.703125 Z M 23.589844 8.546875 C 23.652344 8.40625 23.664062 8.378906 23.9375 7.730469 C 24.203125 8.347656 24.222656 8.390625 24.285156 8.546875 Z M 32.339844 8.300781 C 32.339844 7.3125 31.605469 6.800781 30.890625 6.800781 C 30.171875 6.800781 29.4375 7.304688 29.4375 8.300781 C 29.4375 9.292969 30.171875 9.796875 30.890625 9.796875 C 31.609375 9.796875 32.34375 9.292969 32.34375 8.300781 M 30.890625 9.429688 C 30.449219 9.429688 30.050781 9.011719 30.050781 8.300781 C 30.050781 7.558594 30.472656 7.171875 30.890625 7.171875 C 31.308594 7.171875 31.730469 7.558594 31.730469 8.300781 C 31.730469 9.039062 31.308594 9.429688 30.890625 9.429688 Z M 42.695312 9.703125 L 43.246094 9.703125 L 43.246094 8.546875 L 43.386719 8.546875 L 44.320312 9.703125 L 45.007812 9.703125 L 43.957031 8.46875 C 44.09375 8.417969 44.21875 8.339844 44.324219 8.238281 C 44.472656 8.09375 44.554688 7.894531 44.554688 7.6875 C 44.554688 7.480469 44.472656 7.28125 44.324219 7.136719 C 44.164062 6.972656 43.976562 6.878906 43.496094 6.878906 C 43.496094 6.878906 42.855469 6.882812 42.691406 6.894531 Z M 43.246094 7.234375 C 43.308594 7.226562 43.371094 7.222656 43.4375 7.21875 C 44.003906 7.21875 44.019531 7.644531 44.019531 7.703125 C 44.019531 8 43.761719 8.265625 43.246094 8.175781 Z M 42.558594 9.703125 L 41.332031 6.839844 L 41.101562 6.839844 L 39.832031 9.703125 L 40.355469 9.703125 C 40.429688 9.4375 40.523438 9.171875 40.625 8.914062 L 41.613281 8.914062 C 41.738281 9.21875 41.835938 9.496094 41.910156 9.703125 Z M 40.773438 8.546875 C 40.835938 8.40625 40.847656 8.378906 41.121094 7.730469 C 41.386719 8.347656 41.40625 8.390625 41.46875 8.546875 Z M 50.742188 9.703125 L 50.742188 6.898438 L 50.304688 6.898438 L 50.304688 8.707031 L 48.636719 6.898438 L 48.328125 6.898438 L 48.328125 9.703125 L 48.765625 9.703125 L 48.765625 7.804688 L 50.457031 9.703125 Z M 50.742188 9.703125 "/>
<path style=" stroke:none;fill-rule:nonzero;fill:rgb(0.392157%,34.117648%,30.588236%);fill-opacity:1;" d="M 31.769531 48.03125 L 31.421875 48.03125 L 29.304688 52.804688 L 30.113281 52.804688 C 30.246094 52.351562 30.398438 51.90625 30.574219 51.472656 L 32.304688 51.472656 C 32.515625 51.988281 32.679688 52.460938 32.800781 52.804688 L 33.8125 52.804688 Z M 31.441406 49.414062 C 31.953125 50.601562 31.960938 50.601562 32.082031 50.914062 L 30.804688 50.914062 C 30.9375 50.601562 30.941406 50.59375 31.4375 49.414062 "/>
<path style=" stroke:none;fill-rule:nonzero;fill:rgb(0.392157%,34.117648%,30.588236%);fill-opacity:1;" d="M 64.035156 48.03125 L 63.6875 48.03125 L 61.570312 52.804688 L 62.378906 52.804688 C 62.511719 52.351562 62.664062 51.90625 62.84375 51.472656 L 64.570312 51.472656 C 64.78125 51.988281 64.945312 52.460938 65.070312 52.804688 L 66.078125 52.804688 Z M 63.707031 49.414062 C 64.21875 50.601562 64.226562 50.601562 64.347656 50.914062 L 63.070312 50.914062 C 63.203125 50.601562 63.207031 50.59375 63.703125 49.414062 "/>
<path style=" stroke:none;fill-rule:nonzero;fill:rgb(0.392157%,34.117648%,30.588236%);fill-opacity:1;" d="M 19.625 52.804688 C 19.503906 51.320312 19.414062 50.433594 19.347656 49.839844 C 18.550781 51.28125 18.203125 51.988281 17.882812 52.730469 L 17.609375 52.730469 C 16.804688 51.078125 16.71875 50.917969 16.53125 50.566406 C 16.453125 50.414062 16.363281 50.246094 16.167969 49.867188 C 16.132812 50.164062 15.988281 51.46875 15.890625 52.800781 L 15.164062 52.800781 C 15.394531 51.121094 15.757812 48.289062 15.78125 48.125 L 16.210938 48.125 C 16.277344 48.253906 16.34375 48.382812 16.402344 48.507812 C 16.9375 49.578125 17.359375 50.425781 17.871094 51.300781 L 17.875 51.3125 L 17.882812 51.300781 C 18.113281 50.878906 18.324219 50.480469 18.527344 50.097656 C 18.839844 49.503906 19.164062 48.890625 19.59375 48.121094 L 19.984375 48.121094 C 20 48.269531 20.261719 50.582031 20.535156 52.800781 Z M 19.625 52.804688 "/>
<path style=" stroke:none;fill-rule:nonzero;fill:rgb(0.392157%,34.117648%,30.588236%);fill-opacity:1;" d="M 70.867188 52.804688 C 70.746094 51.320312 70.660156 50.433594 70.59375 49.839844 C 69.792969 51.28125 69.449219 51.988281 69.125 52.730469 L 68.855469 52.730469 C 68.050781 51.078125 67.964844 50.917969 67.78125 50.566406 C 67.699219 50.414062 67.609375 50.246094 67.414062 49.867188 C 67.378906 50.164062 67.234375 51.46875 67.136719 52.800781 L 66.40625 52.800781 C 66.636719 51.121094 67.003906 48.289062 67.023438 48.125 L 67.457031 48.125 L 67.644531 48.507812 C 68.179688 49.578125 68.601562 50.425781 69.113281 51.300781 L 69.121094 51.3125 L 69.125 51.300781 C 69.359375 50.878906 69.566406 50.480469 69.769531 50.097656 C 70.082031 49.503906 70.40625 48.890625 70.835938 48.121094 L 71.226562 48.121094 C 71.246094 48.269531 71.507812 50.582031 71.78125 52.800781 Z M 70.867188 52.804688 "/>
<path style=" stroke:none;fill-rule:nonzero;fill:rgb(0.392157%,34.117648%,30.588236%);fill-opacity:1;" d="M 7.746094 52.964844 C 7.121094 52.972656 6.519531 52.738281 6.0625 52.3125 C 5.671875 51.9375 5.328125 51.335938 5.328125 50.464844 C 5.328125 49.59375 5.667969 48.992188 6.0625 48.617188 C 6.519531 48.191406 7.121094 47.957031 7.746094 47.96875 C 8.335938 47.96875 9.46875 48.214844 9.964844 49.402344 C 10.097656 49.738281 10.167969 50.101562 10.160156 50.464844 C 10.160156 51.335938 9.816406 51.9375 9.421875 52.3125 C 8.96875 52.738281 8.363281 52.972656 7.742188 52.964844 M 7.742188 52.40625 C 8.460938 52.40625 9.195312 51.738281 9.195312 50.464844 C 9.195312 49.191406 8.460938 48.523438 7.742188 48.523438 C 7.023438 48.523438 6.296875 49.191406 6.296875 50.464844 C 6.296875 51.738281 7.027344 52.40625 7.75 52.40625 Z M 7.742188 52.40625 "/>
<path style=" stroke:none;fill-rule:nonzero;fill:rgb(0.392157%,34.117648%,30.588236%);fill-opacity:1;" d="M 38.515625 52.964844 C 37.890625 52.972656 37.289062 52.738281 36.832031 52.3125 C 36.441406 51.9375 36.09375 51.335938 36.09375 50.464844 C 36.09375 49.59375 36.4375 48.992188 36.832031 48.617188 C 37.289062 48.191406 37.890625 47.957031 38.515625 47.96875 C 39.105469 47.96875 40.238281 48.214844 40.734375 49.402344 C 40.867188 49.738281 40.933594 50.101562 40.929688 50.464844 C 40.929688 51.335938 40.585938 51.9375 40.191406 52.3125 C 39.738281 52.738281 39.132812 52.972656 38.511719 52.964844 M 38.511719 52.40625 C 39.234375 52.40625 39.964844 51.738281 39.964844 50.464844 C 39.964844 49.191406 39.234375 48.523438 38.511719 48.523438 C 37.789062 48.523438 37.058594 49.191406 37.058594 50.464844 C 37.058594 51.738281 37.789062 52.40625 38.511719 52.40625 Z M 38.511719 52.40625 "/>
<path style=" stroke:none;fill-rule:nonzero;fill:rgb(0.392157%,34.117648%,30.588236%);fill-opacity:1;" d="M 10.992188 48.121094 C 11.246094 48.105469 12.304688 48.09375 12.316406 48.09375 C 13.113281 48.09375 13.425781 48.25 13.695312 48.523438 C 13.941406 48.765625 14.078125 49.105469 14.070312 49.453125 C 14.058594 49.785156 13.925781 50.101562 13.691406 50.335938 C 13.503906 50.515625 13.277344 50.652344 13.03125 50.738281 L 14.785156 52.804688 L 13.71875 52.804688 L 12.144531 50.851562 L 11.859375 50.851562 L 11.859375 52.804688 L 10.992188 52.804688 Z M 12.207031 48.609375 C 12.089844 48.609375 11.976562 48.617188 11.859375 48.632812 L 11.855469 48.632812 L 11.855469 50.289062 L 11.859375 50.289062 C 11.976562 50.308594 12.09375 50.320312 12.214844 50.324219 C 12.914062 50.324219 13.230469 49.871094 13.230469 49.457031 C 13.230469 49.242188 13.144531 49.035156 12.996094 48.878906 C 12.816406 48.699219 12.550781 48.609375 12.207031 48.609375 "/>
<path style=" stroke:none;fill-rule:nonzero;fill:rgb(0.392157%,34.117648%,30.588236%);fill-opacity:1;" d="M 26.335938 52.804688 L 26.335938 48.125 L 27.199219 48.125 L 27.199219 52.183594 L 29.125 52.183594 L 29.125 52.804688 Z M 26.335938 52.804688 "/>
<path style=" stroke:none;fill-rule:nonzero;fill:rgb(0.392157%,34.117648%,30.588236%);fill-opacity:1;" d="M 50.410156 48.3125 L 50.054688 48.3125 L 50.054688 48.125 L 51 48.125 L 51 48.3125 L 50.636719 48.3125 L 50.636719 49.34375 L 50.410156 49.34375 Z M 50.410156 48.3125 "/>
<path style=" stroke:none;fill-rule:nonzero;fill:rgb(0.392157%,34.117648%,30.588236%);fill-opacity:1;" d="M 52.230469 48.847656 C 52.222656 48.691406 52.214844 48.5 52.214844 48.335938 L 52.210938 48.335938 C 52.167969 48.484375 52.117188 48.648438 52.0625 48.800781 L 51.878906 49.328125 L 51.695312 49.328125 L 51.527344 48.808594 C 51.480469 48.652344 51.4375 48.488281 51.402344 48.335938 C 51.398438 48.492188 51.390625 48.6875 51.382812 48.851562 L 51.351562 49.347656 L 51.140625 49.347656 L 51.222656 48.128906 L 51.527344 48.128906 L 51.6875 48.625 C 51.734375 48.765625 51.773438 48.910156 51.804688 49.046875 L 51.808594 49.046875 C 51.84375 48.914062 51.886719 48.761719 51.933594 48.621094 L 52.105469 48.132812 L 52.410156 48.132812 L 52.480469 49.351562 L 52.257812 49.351562 Z M 52.230469 48.847656 "/>
<path style=" stroke:none;fill-rule:nonzero;fill:rgb(0.392157%,34.117648%,30.588236%);fill-opacity:1;" d="M 45.351562 52.804688 C 45.15625 52.554688 43.769531 51.019531 42.441406 49.542969 L 42.441406 52.804688 L 41.769531 52.804688 L 41.769531 48.128906 L 42.246094 48.128906 L 45.109375 51.242188 L 45.109375 48.128906 L 45.777344 48.128906 L 45.777344 52.804688 Z M 45.351562 52.804688 "/>
<path style=" stroke:none;fill-rule:nonzero;fill:rgb(0.392157%,34.117648%,30.588236%);fill-opacity:1;" d="M 55.535156 52.804688 L 55.535156 48.761719 C 55.046875 48.765625 54.554688 48.796875 54.066406 48.851562 L 54.066406 48.128906 L 57.804688 48.128906 L 57.804688 48.855469 C 57.339844 48.792969 56.871094 48.761719 56.398438 48.757812 L 56.398438 52.800781 Z M 55.535156 52.804688 "/>
<path style=" stroke:none;fill-rule:nonzero;fill:rgb(0.392157%,34.117648%,30.588236%);fill-opacity:1;" d="M 47.683594 52.183594 L 47.683594 50.671875 L 49.347656 50.671875 L 49.347656 50.105469 L 47.683594 50.105469 L 47.683594 48.722656 C 48.078125 48.722656 48.632812 48.722656 49.582031 48.78125 L 49.582031 48.121094 L 46.820312 48.121094 L 46.820312 52.796875 L 49.660156 52.796875 L 49.660156 52.117188 C 49.03125 52.152344 48.308594 52.183594 47.683594 52.183594 "/>
<path style=" stroke:none;fill-rule:nonzero;fill:rgb(0.392157%,34.117648%,30.588236%);fill-opacity:1;" d="M 59.277344 52.183594 L 59.277344 50.671875 L 60.941406 50.671875 L 60.941406 50.105469 L 59.277344 50.105469 L 59.277344 48.722656 C 59.671875 48.722656 60.226562 48.722656 61.175781 48.78125 L 61.175781 48.121094 L 58.414062 48.121094 L 58.414062 52.796875 L 61.25 52.796875 L 61.25 52.117188 C 60.625 52.152344 59.902344 52.183594 59.277344 52.183594 "/>
<path style=" stroke:none;fill-rule:nonzero;fill:rgb(0.392157%,34.117648%,30.588236%);fill-opacity:1;" d="M 24.539062 48.125 C 24.570312 49.921875 24.554688 50.632812 24.554688 50.632812 C 24.554688 51.21875 24.519531 52.269531 23.394531 52.269531 C 22.996094 52.269531 22.199219 52.207031 22.199219 50.871094 C 22.199219 49.664062 22.226562 48.179688 22.230469 48.125 L 21.320312 48.125 L 21.320312 50.867188 C 21.320312 52.785156 22.859375 52.867188 23.242188 52.867188 C 24.34375 52.867188 25.210938 52.363281 25.230469 50.832031 L 25.234375 48.125 Z M 24.539062 48.125 "/>
<path style=" stroke:none;fill-rule:nonzero;fill:rgb(0.392157%,34.117648%,30.588236%);fill-opacity:1;" d="M 4.789062 48.796875 L 4.789062 48.128906 L 1.953125 48.128906 L 1.953125 52.808594 L 2.820312 52.808594 L 2.820312 50.792969 L 4.574219 50.792969 L 4.574219 50.179688 L 2.820312 50.179688 L 2.820312 48.726562 C 3.6875 48.726562 4.195312 48.753906 4.789062 48.792969 "/>
<path style=" stroke:none;fill-rule:nonzero;fill:rgb(0.392157%,34.117648%,30.588236%);fill-opacity:1;" d="M 73.488281 29.609375 C 73.488281 30.117188 73.082031 30.53125 72.574219 30.53125 C 72.070312 30.53125 71.660156 30.117188 71.65625 29.609375 C 71.65625 29.105469 72.066406 28.691406 72.570312 28.691406 C 73.078125 28.691406 73.488281 29.101562 73.488281 29.609375 M 73.367188 29.609375 C 73.359375 29.175781 73.007812 28.824219 72.574219 28.828125 C 72.140625 28.832031 71.789062 29.1875 71.792969 29.621094 C 71.792969 30.058594 72.144531 30.410156 72.578125 30.410156 C 73.015625 30.402344 73.367188 30.046875 73.367188 29.609375 M 72.738281 29.6875 L 73.015625 30.117188 L 72.800781 30.117188 L 72.550781 29.710938 L 72.40625 29.710938 L 72.40625 30.117188 L 72.234375 30.117188 L 72.234375 29.097656 L 72.613281 29.097656 C 72.785156 29.097656 72.925781 29.234375 72.925781 29.402344 C 72.933594 29.53125 72.855469 29.648438 72.734375 29.6875 M 72.40625 29.558594 L 72.59375 29.558594 L 72.40625 29.269531 Z M 39.15625 31.675781 L 40.53125 31.675781 L 40.53125 39.972656 L 39.15625 39.972656 Z M 34.113281 31.492188 C 33.234375 31.492188 32.382812 31.796875 31.703125 32.359375 L 31.703125 31.675781 L 30.328125 31.675781 L 30.328125 39.972656 L 31.703125 39.972656 L 31.703125 35.292969 C 31.703125 33.957031 32.78125 32.871094 34.113281 32.871094 C 35.445312 32.871094 36.523438 33.957031 36.523438 35.292969 L 36.523438 39.96875 L 37.902344 39.96875 L 37.902344 35.292969 C 37.902344 33.195312 36.207031 31.492188 34.113281 31.492188 M 27.574219 31.675781 L 28.953125 31.675781 L 28.953125 39.65625 C 28.953125 42.046875 26.875 43.984375 24.640625 43.984375 C 22.585938 43.984375 21.074219 42.726562 20.535156 40.984375 L 22.011719 40.984375 C 22.46875 41.945312 23.363281 42.601562 24.636719 42.601562 C 26.105469 42.601562 27.570312 41.285156 27.570312 39.65625 L 27.570312 38.988281 C 25.859375 40.585938 23.1875 40.519531 21.554688 38.839844 C 19.921875 37.160156 19.921875 34.476562 21.554688 32.796875 C 23.1875 31.113281 25.859375 31.046875 27.570312 32.648438 Z M 27.574219 35.824219 C 27.574219 34.195312 26.261719 32.878906 24.640625 32.878906 C 23.023438 32.878906 21.707031 34.195312 21.707031 35.824219 C 21.707031 37.449219 23.023438 38.769531 24.640625 38.769531 C 26.261719 38.769531 27.574219 37.449219 27.574219 35.824219 M 6.265625 32.875 C 7.40625 32.875 8.441406 33.539062 8.921875 34.574219 L 10.390625 34.574219 C 9.773438 32.515625 7.75 31.226562 5.636719 31.539062 C 3.519531 31.851562 1.953125 33.671875 1.953125 35.820312 C 1.953125 37.96875 3.519531 39.789062 5.636719 40.101562 C 7.75 40.414062 9.773438 39.125 10.390625 37.066406 L 8.925781 37.066406 C 8.308594 38.394531 6.816406 39.0625 5.421875 38.644531 C 4.027344 38.222656 3.148438 36.839844 3.363281 35.390625 C 3.574219 33.945312 4.8125 32.871094 6.269531 32.875 M 19.667969 35.820312 C 19.667969 38.210938 17.738281 40.148438 15.355469 40.148438 C 12.972656 40.148438 11.042969 38.210938 11.042969 35.820312 C 11.042969 33.429688 12.976562 31.492188 15.355469 31.492188 C 17.738281 31.492188 19.667969 33.429688 19.667969 35.820312 M 18.289062 35.820312 C 18.289062 34.191406 16.976562 32.875 15.355469 32.875 C 13.734375 32.875 12.421875 34.191406 12.421875 35.820312 C 12.421875 37.449219 13.734375 38.765625 15.355469 38.765625 C 16.976562 38.765625 18.289062 37.445312 18.289062 35.820312 M 63.328125 31.492188 C 62.449219 31.492188 61.597656 31.796875 60.917969 32.359375 L 60.917969 31.675781 L 59.542969 31.675781 L 59.542969 39.976562 L 60.917969 39.976562 L 60.917969 35.292969 C 60.917969 33.957031 61.996094 32.871094 63.328125 32.871094 C 64.660156 32.871094 65.738281 33.957031 65.738281 35.292969 L 65.738281 39.96875 L 67.117188 39.96875 L 67.117188 35.292969 C 67.117188 33.195312 65.421875 31.492188 63.332031 31.492188 M 56.789062 31.679688 L 58.167969 31.679688 L 58.167969 39.972656 L 56.789062 39.972656 L 56.789062 38.992188 C 55.375 40.308594 53.257812 40.523438 51.609375 39.511719 C 49.964844 38.503906 49.1875 36.515625 49.707031 34.648438 C 50.230469 32.78125 51.925781 31.492188 53.855469 31.492188 C 54.945312 31.492188 55.992188 31.902344 56.789062 32.648438 Z M 56.789062 35.820312 C 56.789062 34.195312 55.476562 32.875 53.855469 32.875 C 52.234375 32.875 50.921875 34.195312 50.921875 35.820312 C 50.921875 37.449219 52.234375 38.765625 53.855469 38.765625 C 55.476562 38.765625 56.789062 37.449219 56.789062 35.820312 M 71.71875 33.054688 L 71.71875 31.671875 L 69.652344 31.671875 L 69.652344 29.410156 L 68.277344 29.410156 L 68.277344 37.203125 C 68.277344 38.730469 69.507812 39.96875 71.03125 39.96875 L 71.71875 39.96875 L 71.71875 38.585938 L 71.03125 38.585938 C 70.269531 38.585938 69.652344 37.964844 69.652344 37.203125 L 69.652344 33.050781 Z M 39.84375 28.683594 C 39.339844 28.683594 38.929688 29.097656 38.929688 29.601562 C 38.929688 30.109375 39.339844 30.523438 39.84375 30.523438 C 40.347656 30.523438 40.757812 30.109375 40.757812 29.601562 C 40.757812 29.359375 40.664062 29.125 40.492188 28.953125 C 40.320312 28.78125 40.085938 28.683594 39.84375 28.683594 M 48.804688 31.675781 L 41.917969 31.675781 L 41.917969 33.0625 L 47.027344 33.0625 L 41.925781 38.59375 L 41.925781 39.976562 L 48.8125 39.976562 L 48.8125 38.59375 L 43.703125 38.59375 L 48.800781 33.0625 Z M 48.804688 31.675781 "/>
<path style=" stroke:none;fill-rule:nonzero;fill:rgb(0.392157%,34.117648%,30.588236%);fill-opacity:1;" d="M 163.421875 22.285156 C 161.148438 22.277344 159.097656 23.640625 158.21875 25.742188 C 157.34375 27.847656 157.816406 30.273438 159.417969 31.890625 C 161.019531 33.503906 163.433594 33.992188 165.53125 33.121094 C 167.628906 32.253906 169 30.199219 169 27.917969 C 168.992188 24.824219 166.503906 22.3125 163.421875 22.285156 M 163.421875 30.992188 C 162.320312 31.011719 161.296875 30.433594 160.738281 29.480469 C 160.183594 28.527344 160.183594 27.347656 160.738281 26.394531 C 161.296875 25.441406 162.320312 24.863281 163.421875 24.882812 C 165.089844 24.882812 166.445312 26.242188 166.445312 27.921875 C 166.445312 29.601562 165.089844 30.992188 163.421875 30.992188 "/>
<path style=" stroke:none;fill-rule:nonzero;fill:rgb(0.392157%,34.117648%,30.588236%);fill-opacity:1;" d="M 142.871094 22.160156 C 141.675781 22.164062 140.488281 22.386719 139.371094 22.828125 C 138.550781 22.351562 137.761719 22.160156 136.628906 22.160156 C 135.117188 22.152344 133.613281 22.398438 132.183594 22.886719 L 131.898438 22.988281 L 131.898438 33.335938 L 134.703125 33.335938 L 134.703125 24.851562 C 135.210938 24.675781 135.742188 24.589844 136.277344 24.597656 C 137.664062 24.597656 138.074219 25.042969 138.074219 26.496094 L 138.074219 33.335938 L 140.910156 33.335938 L 140.910156 26.308594 C 140.910156 25.675781 140.878906 25.261719 140.789062 24.882812 C 141.355469 24.695312 141.796875 24.597656 142.296875 24.597656 C 143.625 24.597656 144.222656 25.199219 144.222656 26.496094 L 144.222656 33.335938 L 147.03125 33.335938 L 147.03125 26.273438 C 147.03125 24.878906 146.808594 24.058594 146.179688 23.359375 C 145.480469 22.601562 144.316406 22.160156 142.867188 22.160156 "/>
<path style=" stroke:none;fill-rule:nonzero;fill:rgb(0.392157%,34.117648%,30.588236%);fill-opacity:1;" d="M 154.117188 31.105469 C 152.246094 31.105469 151.175781 29.941406 151.175781 27.90625 C 151.175781 25.820312 152.257812 24.625 154.144531 24.625 C 154.914062 24.601562 155.667969 24.847656 156.273438 25.328125 L 157.457031 23.28125 C 156.96875 22.886719 156.398438 22.601562 155.792969 22.4375 C 155.0625 22.21875 153.992188 22.183594 153.992188 22.183594 C 150.621094 22.183594 148.359375 24.535156 148.359375 28.027344 C 148.359375 31.386719 150.503906 33.554688 153.835938 33.554688 C 153.835938 33.554688 156.0625 33.652344 157.5625 32.257812 L 156.164062 30.457031 C 155.40625 30.941406 154.882812 31.105469 154.117188 31.105469 "/>
<path style=" stroke:none;fill-rule:nonzero;fill:rgb(0.392157%,34.117648%,30.588236%);fill-opacity:1;" d="M 117.539062 22.257812 C 113.535156 22.257812 111.675781 24.027344 111.675781 27.796875 L 111.675781 33.335938 L 114.542969 33.335938 L 114.542969 27.765625 C 114.542969 25.863281 115.617188 24.695312 117.289062 24.695312 C 117.832031 24.699219 118.371094 24.773438 118.894531 24.914062 L 119.558594 22.414062 C 118.890625 22.320312 118.214844 22.265625 117.539062 22.257812 "/>
<path style=" stroke:none;fill-rule:nonzero;fill:rgb(0.392157%,34.117648%,30.588236%);fill-opacity:1;" d="M 130.261719 27.480469 L 130.261719 33.335938 L 126.417969 33.335938 C 123.769531 33.335938 122.605469 33.144531 121.21875 32.226562 C 120.019531 31.402344 119.355469 29.855469 119.355469 27.828125 C 119.355469 25.042969 121.183594 22.222656 125.21875 22.222656 C 128.496094 22.222656 130.265625 24.0625 130.265625 27.480469 M 127.457031 27.796875 C 127.457031 25.671875 126.636719 24.632812 124.996094 24.632812 C 123.324219 24.632812 122.253906 25.867188 122.253906 27.734375 C 122.253906 29.984375 123.324219 30.964844 125.722656 30.964844 L 127.457031 30.964844 Z M 127.457031 27.796875 "/>
<path style=" stroke:none;fill-rule:nonzero;fill:rgb(0.392157%,34.117648%,30.588236%);fill-opacity:1;" d="M 110.117188 27.480469 L 110.117188 33.335938 L 106.300781 33.335938 C 103.652344 33.335938 102.484375 33.144531 101.097656 32.226562 C 99.902344 31.402344 99.238281 29.855469 99.238281 27.828125 C 99.238281 25.042969 101.066406 22.222656 105.101562 22.222656 C 108.378906 22.222656 110.121094 24.0625 110.121094 27.480469 M 107.21875 27.796875 C 107.21875 25.644531 106.460938 24.632812 104.792969 24.632812 C 103.121094 24.632812 102.046875 25.867188 102.046875 27.734375 C 102.046875 29.984375 103.121094 30.964844 105.515625 30.964844 L 107.21875 30.964844 Z M 107.21875 27.796875 "/>
</g>
</svg>
