<?xml version="1.0" encoding="UTF-8"?>
<svg xmlns="http://www.w3.org/2000/svg" xmlns:xlink="http://www.w3.org/1999/xlink" width="170px" height="px" viewBox="0 0 170 51" version="1.1">
<g id="surface1">
<path style=" stroke:none;fill-rule:nonzero;fill:rgb(0%,0%,0%);fill-opacity:1;" d="M 89.480469 24.367188 C 89.480469 25.046875 89.183594 25.539062 88.253906 25.539062 L 82.320312 25.539062 C 81.554688 25.539062 81.117188 25.320312 81.117188 24.609375 C 81.117188 23.902344 81.417969 23.550781 82.320312 23.550781 L 89.480469 23.550781 Z M 115.644531 21.535156 L 115.644531 20.769531 C 115.644531 20.058594 115.945312 19.59375 116.902344 19.59375 L 122.835938 19.59375 C 123.652344 19.59375 124.058594 19.839844 124.058594 20.605469 C 124.058594 21.253906 123.738281 21.554688 122.894531 21.554688 Z M 131.222656 16.28125 L 131.222656 28.804688 L 137.222656 28.804688 L 137.222656 19.707031 L 142.121094 19.707031 C 143.785156 19.707031 144.628906 20.230469 144.628906 21.832031 L 144.628906 28.832031 L 150.621094 28.832031 L 150.621094 21.339844 C 150.621094 17.828125 148.683594 16.304688 143.214844 16.304688 Z M 116.488281 16.28125 C 111.667969 16.28125 109.734375 17.882812 109.734375 21.503906 L 109.734375 23.988281 C 109.734375 27.113281 111.667969 28.804688 116.023438 28.804688 L 128.691406 28.804688 L 128.691406 25.535156 L 117.199219 25.535156 C 116.066406 25.535156 115.671875 25.207031 115.671875 24.359375 L 115.671875 23.84375 L 124.742188 23.84375 C 127.867188 23.84375 129.636719 22.863281 129.636719 20.523438 L 129.636719 19.957031 C 129.636719 17.832031 128.578125 16.308594 123.265625 16.308594 Z M 97.222656 28.804688 L 103.210938 28.804688 L 103.210938 20.605469 C 103.210938 20.039062 103.433594 19.703125 104.171875 19.703125 L 108.800781 19.703125 L 108.800781 16.304688 L 102.140625 16.304688 C 98.570312 16.304688 97.210938 17.632812 97.210938 19.867188 Z M 76.75 16.28125 L 76.75 19.578125 L 87.996094 19.578125 C 89.132812 19.578125 89.5 19.964844 89.5 20.78125 L 89.5 21.261719 L 80.464844 21.261719 C 76.679688 21.261719 75.542969 22.820312 75.542969 24.804688 L 75.542969 25.289062 C 75.542969 28.042969 77.746094 28.804688 82.074219 28.804688 L 88.722656 28.804688 C 93.433594 28.804688 95.472656 27.742188 95.472656 24.039062 L 95.472656 21.148438 C 95.472656 18.015625 93.539062 16.304688 89.160156 16.304688 Z M 40.902344 23.273438 C 40.902344 27.238281 42.914062 28.828125 48.117188 28.828125 L 59.527344 28.828125 L 59.527344 25.425781 L 48.988281 25.425781 C 47.734375 25.425781 46.890625 24.859375 46.890625 23.058594 L 46.890625 21.992188 C 46.890625 20.382812 47.679688 19.726562 48.960938 19.726562 L 59.527344 19.726562 L 59.527344 16.324219 L 47.953125 16.324219 C 42.851562 16.324219 40.902344 18.472656 40.902344 21.90625 Z M 61.300781 14.3125 L 61.300781 28.828125 L 74.335938 28.828125 L 74.335938 25.425781 L 67.308594 25.425781 L 67.308594 14.3125 Z M 23.902344 22.429688 L 23.902344 14.3125 L 20.503906 14.3125 C 18.40625 14.3125 17.210938 15.152344 15.96875 16.136719 L 0 28.828125 L 7.214844 28.828125 L 17.839844 20.222656 L 17.839844 28.828125 L 22.820312 28.828125 L 33.109375 20.167969 L 33.109375 28.828125 L 39.214844 28.828125 L 39.214844 14.3125 L 35.886719 14.3125 C 34.089844 14.3125 32.839844 15.050781 31.585938 16.082031 Z M 23.902344 22.429688 "/>
<path style=" stroke:none;fill-rule:nonzero;fill:rgb(100%,50.196081%,0%);fill-opacity:1;" d="M 165.023438 3.773438 C 161.679688 3.773438 156.972656 4.769531 151.867188 6.640625 C 147.300781 8.300781 142.929688 10.453125 138.832031 13.0625 C 142.765625 11.617188 146.910156 10.839844 151.097656 10.765625 C 156.957031 10.765625 161.125 13.035156 154.964844 20.871094 C 173.101562 8.96875 172.628906 3.800781 165.023438 3.800781 "/>
<path style=" stroke:none;fill-rule:nonzero;fill:rgb(0%,0%,0%);fill-opacity:1;" d="M 33.386719 41.367188 L 37.105469 41.367188 L 37.105469 42.460938 L 34.566406 42.460938 L 34.566406 43.753906 L 36.832031 43.753906 L 36.832031 44.851562 L 34.566406 44.851562 L 34.566406 47.117188 L 33.386719 47.117188 Z M 33.386719 41.367188 "/>
<path style=" stroke:none;fill-rule:nonzero;fill:rgb(0%,0%,0%);fill-opacity:1;" d="M 41.609375 44.296875 L 41.609375 44.199219 C 41.609375 42.464844 42.699219 41.253906 44.226562 41.253906 C 45.757812 41.253906 46.835938 42.453125 46.835938 44.183594 L 46.835938 44.28125 C 46.835938 45.980469 45.742188 47.226562 44.21875 47.226562 C 42.691406 47.226562 41.609375 46.019531 41.609375 44.296875 Z M 45.578125 44.296875 L 45.578125 44.199219 C 45.578125 43.066406 45.011719 42.347656 44.199219 42.347656 C 43.390625 42.347656 42.839844 43.066406 42.839844 44.199219 L 42.839844 44.257812 C 42.839844 45.390625 43.40625 46.117188 44.226562 46.117188 C 45.050781 46.117188 45.59375 45.402344 45.59375 44.269531 Z M 45.578125 44.296875 "/>
<path style=" stroke:none;fill-rule:nonzero;fill:rgb(0%,0%,0%);fill-opacity:1;" d="M 51.804688 41.367188 L 53.976562 41.367188 C 54.550781 41.339844 55.109375 41.542969 55.535156 41.933594 C 55.871094 42.292969 56.046875 42.777344 56.019531 43.269531 C 56.058594 44.007812 55.628906 44.6875 54.949219 44.96875 L 56.179688 47.113281 L 54.8125 47.113281 L 53.75 45.214844 L 53 45.214844 L 53 47.113281 L 51.800781 47.113281 Z M 53.882812 44.199219 C 54.128906 44.230469 54.375 44.152344 54.558594 43.988281 C 54.738281 43.820312 54.835938 43.578125 54.824219 43.332031 C 54.824219 42.765625 54.46875 42.464844 53.863281 42.464844 L 53.007812 42.464844 L 53.007812 44.199219 Z M 53.882812 44.199219 "/>
<path style=" stroke:none;fill-rule:nonzero;fill:rgb(0%,0%,0%);fill-opacity:1;" d="M 61.011719 41.367188 L 62.265625 41.367188 L 63.550781 43.707031 L 64.828125 41.367188 L 66.085938 41.367188 L 66.085938 47.125 L 64.910156 47.125 L 64.910156 43.441406 L 63.550781 45.820312 L 62.199219 43.457031 L 62.199219 47.125 L 61.0625 47.125 Z M 61.011719 41.367188 "/>
<path style=" stroke:none;fill-rule:nonzero;fill:rgb(0%,0%,0%);fill-opacity:1;" d="M 71.246094 44.878906 L 71.246094 41.367188 L 72.449219 41.367188 L 72.449219 44.902344 C 72.449219 45.71875 72.832031 46.121094 73.453125 46.121094 C 74.070312 46.121094 74.460938 45.722656 74.460938 44.925781 L 74.460938 41.367188 L 75.644531 41.367188 L 75.644531 44.867188 C 75.644531 46.460938 74.773438 47.230469 73.433594 47.230469 C 72.097656 47.230469 71.246094 46.464844 71.246094 44.878906 Z M 71.246094 44.878906 "/>
<path style=" stroke:none;fill-rule:nonzero;fill:rgb(0%,0%,0%);fill-opacity:1;" d="M 80.808594 41.367188 L 82.003906 41.367188 L 82.003906 46.042969 L 84.335938 46.042969 L 84.335938 47.140625 L 80.808594 47.140625 Z M 80.808594 41.367188 "/>
<path style=" stroke:none;fill-rule:nonzero;fill:rgb(0%,0%,0%);fill-opacity:1;" d="M 90.949219 41.320312 L 92.082031 41.320312 L 94.15625 47.125 L 92.933594 47.125 L 92.492188 45.898438 L 90.507812 45.898438 L 90.101562 47.125 L 88.90625 47.125 Z M 92.128906 44.816406 L 91.5 42.9375 L 90.863281 44.816406 Z M 92.128906 44.816406 "/>
<path style=" stroke:none;fill-rule:nonzero;fill:rgb(0%,0%,0%);fill-opacity:1;" d="M 105.632812 42.539062 L 104.753906 42.777344 L 104.5625 41.742188 L 105.964844 41.308594 L 106.792969 41.308594 L 106.792969 47.125 L 105.617188 47.125 Z M 105.632812 42.539062 "/>
<path style=" stroke:none;fill-rule:nonzero;fill:rgb(0%,0%,0%);fill-opacity:1;" d="M 119.230469 42.460938 L 117.78125 42.460938 L 117.78125 41.367188 L 121.871094 41.367188 L 121.871094 42.5 L 120.417969 42.5 L 120.417969 47.164062 L 119.230469 47.164062 Z M 119.230469 42.460938 "/>
<path style=" stroke:none;fill-rule:nonzero;fill:rgb(0%,0%,0%);fill-opacity:1;" d="M 126.617188 41.367188 L 130.332031 41.367188 L 130.332031 42.441406 L 127.8125 42.441406 L 127.8125 43.691406 L 130.039062 43.691406 L 130.039062 44.765625 L 127.8125 44.765625 L 127.8125 46.054688 L 130.371094 46.054688 L 130.371094 47.136719 L 126.621094 47.136719 Z M 126.617188 41.367188 "/>
<path style=" stroke:none;fill-rule:nonzero;fill:rgb(0%,0%,0%);fill-opacity:1;" d="M 137.042969 41.320312 L 138.175781 41.320312 L 140.246094 47.125 L 139.007812 47.125 L 138.589844 45.898438 L 136.601562 45.898438 L 136.179688 47.152344 L 134.980469 47.152344 Z M 138.222656 44.816406 L 137.597656 42.9375 L 136.964844 44.816406 Z M 138.222656 44.816406 "/>
<path style=" stroke:none;fill-rule:nonzero;fill:rgb(0%,0%,0%);fill-opacity:1;" d="M 144.960938 41.367188 L 146.199219 41.367188 L 147.488281 43.707031 L 148.773438 41.367188 L 150.035156 41.367188 L 150.035156 47.125 L 148.863281 47.125 L 148.863281 43.441406 L 147.503906 45.820312 L 146.148438 43.457031 L 146.148438 47.125 L 144.980469 47.125 Z M 144.960938 41.367188 "/>
</g>
</svg>
