<?xml version="1.0" encoding="UTF-8"?>
<svg xmlns="http://www.w3.org/2000/svg" xmlns:xlink="http://www.w3.org/1999/xlink" width="170px" height="px" viewBox="0 0 169 53" version="1.1">
<defs>
<linearGradient id="linear0" gradientUnits="userSpaceOnUse" x1="0" y1="0" x2="1" y2="0" gradientTransform="matrix(39.417974,33.092783,-33.012554,39.51377,6.766892,9.823949)">
<stop offset="0" style="stop-color:rgb(100%,100%,100%);stop-opacity:1;"/>
<stop offset="0.1" style="stop-color:rgb(90.588235%,90.980392%,90.196078%);stop-opacity:1;"/>
<stop offset="0.1" style="stop-color:rgb(80.392157%,81.568627%,81.568627%);stop-opacity:1;"/>
<stop offset="0.2" style="stop-color:rgb(70.980392%,73.333333%,74.117647%);stop-opacity:1;"/>
<stop offset="0.2" style="stop-color:rgb(64.705882%,67.45098%,68.627451%);stop-opacity:1;"/>
<stop offset="0.3" style="stop-color:rgb(60.784314%,63.921569%,65.490196%);stop-opacity:1;"/>
<stop offset="0.3" style="stop-color:rgb(59.607843%,62.745098%,64.313725%);stop-opacity:1;"/>
<stop offset="0.4" style="stop-color:rgb(50.980392%,54.117647%,56.078431%);stop-opacity:1;"/>
<stop offset="0.5" style="stop-color:rgb(40%,43.921569%,45.882353%);stop-opacity:1;"/>
<stop offset="0.6" style="stop-color:rgb(32.54902%,36.078431%,38.823529%);stop-opacity:1;"/>
<stop offset="0.7" style="stop-color:rgb(27.843137%,31.764706%,34.509804%);stop-opacity:1;"/>
<stop offset="0.8" style="stop-color:rgb(26.27451%,30.196078%,32.941176%);stop-opacity:1;"/>
<stop offset="1" style="stop-color:rgb(27.843137%,31.764706%,34.117647%);stop-opacity:1;"/>
</linearGradient>
<linearGradient id="linear1" gradientUnits="userSpaceOnUse" x1="0" y1="0" x2="1" y2="0" gradientTransform="matrix(36.954351,31.117093,-31.041654,37.04416,7.998704,10.811793)">
<stop offset="0" style="stop-color:rgb(4.313725%,12.156863%,16.470588%);stop-opacity:1;"/>
<stop offset="0.2" style="stop-color:rgb(20%,24.705882%,27.843137%);stop-opacity:1;"/>
<stop offset="0.5" style="stop-color:rgb(46.666667%,49.803922%,51.764706%);stop-opacity:1;"/>
<stop offset="0.5" style="stop-color:rgb(50.588235%,53.72549%,55.294118%);stop-opacity:1;"/>
<stop offset="0.7" style="stop-color:rgb(70.196078%,72.156863%,72.156863%);stop-opacity:1;"/>
<stop offset="0.8" style="stop-color:rgb(82.352941%,83.529412%,82.745098%);stop-opacity:1;"/>
<stop offset="0.8" style="stop-color:rgb(87.058824%,87.843137%,86.666667%);stop-opacity:1;"/>
<stop offset="1" style="stop-color:rgb(98.431373%,98.431373%,98.431373%);stop-opacity:1;"/>
</linearGradient>
<linearGradient id="linear2" gradientUnits="userSpaceOnUse" x1="0" y1="0" x2="1" y2="0" gradientTransform="matrix(-17.98445,-49.556854,49.43671,-18.028157,35.486992,51.154528)">
<stop offset="0" style="stop-color:rgb(88.235294%,89.019608%,88.235294%);stop-opacity:0.4;"/>
<stop offset="0.1" style="stop-color:rgb(75.686275%,77.254902%,76.862745%);stop-opacity:0.4;"/>
<stop offset="0.3" style="stop-color:rgb(60.784314%,63.137255%,63.529412%);stop-opacity:0.4;"/>
<stop offset="0.5" style="stop-color:rgb(49.019608%,51.764706%,52.941176%);stop-opacity:0.4;"/>
<stop offset="0.7" style="stop-color:rgb(40.784314%,43.921569%,45.490196%);stop-opacity:0;"/>
<stop offset="0.8" style="stop-color:rgb(35.686275%,39.215686%,41.176471%);stop-opacity:0;"/>
<stop offset="1" style="stop-color:rgb(34.117647%,37.647059%,39.607843%);stop-opacity:0;"/>
</linearGradient>
<linearGradient id="linear3" gradientUnits="userSpaceOnUse" x1="0" y1="0" x2="1" y2="0" gradientTransform="matrix(22.665335,39.349129,-39.253732,22.720418,15.143213,6.695776)">
<stop offset="0" style="stop-color:rgb(88.235294%,89.019608%,88.235294%);stop-opacity:0.4;"/>
<stop offset="0.1" style="stop-color:rgb(75.686275%,77.254902%,76.862745%);stop-opacity:0.4;"/>
<stop offset="0.3" style="stop-color:rgb(60.784314%,63.137255%,63.529412%);stop-opacity:0.4;"/>
<stop offset="0.5" style="stop-color:rgb(49.019608%,51.764706%,52.941176%);stop-opacity:0.4;"/>
<stop offset="0.7" style="stop-color:rgb(40.784314%,43.921569%,45.490196%);stop-opacity:0;"/>
<stop offset="0.8" style="stop-color:rgb(35.686275%,39.215686%,41.176471%);stop-opacity:0;"/>
<stop offset="1" style="stop-color:rgb(34.117647%,37.647059%,39.607843%);stop-opacity:0;"/>
</linearGradient>
<linearGradient id="linear4" gradientUnits="userSpaceOnUse" x1="0" y1="0" x2="1" y2="0" gradientTransform="matrix(-1.396053,2.30497,-2.299382,-1.399446,36.740977,32.462048)">
<stop offset="0" style="stop-color:rgb(15.294118%,20.392157%,23.529412%);stop-opacity:1;"/>
<stop offset="1" style="stop-color:rgb(0%,6.666667%,11.764706%);stop-opacity:0;"/>
</linearGradient>
<linearGradient id="linear5" gradientUnits="userSpaceOnUse" x1="0" y1="0" x2="1" y2="0" gradientTransform="matrix(-2.299382,-3.704416,3.695435,-2.30497,32.717057,23.98305)">
<stop offset="0" style="stop-color:rgb(0.784314%,7.45098%,12.156863%);stop-opacity:1;"/>
<stop offset="0.1" style="stop-color:rgb(0.784314%,7.45098%,12.156863%);stop-opacity:1;"/>
<stop offset="0.9" style="stop-color:rgb(0.784314%,7.45098%,12.156863%);stop-opacity:0;"/>
<stop offset="1" style="stop-color:rgb(0.784314%,7.45098%,12.156863%);stop-opacity:0;"/>
</linearGradient>
<linearGradient id="linear6" gradientUnits="userSpaceOnUse" x1="0" y1="0" x2="1" y2="0" gradientTransform="matrix(-3.449073,0.987844,-0.985449,-3.457455,26.475879,29.992437)">
<stop offset="0" style="stop-color:rgb(0.784314%,7.45098%,12.156863%);stop-opacity:0.8;"/>
<stop offset="0.2" style="stop-color:rgb(0.784314%,7.45098%,12.156863%);stop-opacity:0.8;"/>
<stop offset="0.9" style="stop-color:rgb(0.784314%,7.45098%,12.156863%);stop-opacity:0;"/>
<stop offset="1" style="stop-color:rgb(0.784314%,7.45098%,12.156863%);stop-opacity:0;"/>
</linearGradient>
<linearGradient id="linear7" gradientUnits="userSpaceOnUse" x1="0" y1="0" x2="1" y2="0" gradientTransform="matrix(-0.492725,-1.234805,1.231812,-0.493922,17.278352,34.520056)">
<stop offset="0" style="stop-color:rgb(0.784314%,7.45098%,12.156863%);stop-opacity:0.8;"/>
<stop offset="0.1" style="stop-color:rgb(0.784314%,7.45098%,12.156863%);stop-opacity:0.8;"/>
<stop offset="1" style="stop-color:rgb(0.784314%,7.45098%,12.156863%);stop-opacity:0;"/>
</linearGradient>
<linearGradient id="linear8" gradientUnits="userSpaceOnUse" x1="0" y1="0" x2="1" y2="0" gradientTransform="matrix(-2.792107,0.329281,-0.328483,-2.798892,29.432226,14.186928)">
<stop offset="0" style="stop-color:rgb(0.784314%,7.45098%,12.156863%);stop-opacity:1;"/>
<stop offset="0.3" style="stop-color:rgb(0.784314%,7.45098%,12.156863%);stop-opacity:1;"/>
<stop offset="0.8" style="stop-color:rgb(0.784314%,7.45098%,12.156863%);stop-opacity:0;"/>
<stop offset="1" style="stop-color:rgb(0.784314%,7.45098%,12.156863%);stop-opacity:0;"/>
</linearGradient>
<linearGradient id="linear9" gradientUnits="userSpaceOnUse" x1="0" y1="0" x2="1" y2="0" gradientTransform="matrix(-1.888778,0.246961,-0.246362,-1.893368,29.514349,14.104608)">
<stop offset="0" style="stop-color:rgb(15.294118%,20.392157%,23.529412%);stop-opacity:1;"/>
<stop offset="0.4" style="stop-color:rgb(15.294118%,20.392157%,23.529412%);stop-opacity:1;"/>
<stop offset="1" style="stop-color:rgb(23.137255%,27.843137%,30.588235%);stop-opacity:0;"/>
</linearGradient>
<linearGradient id="linear10" gradientUnits="userSpaceOnUse" x1="0" y1="0" x2="1" y2="0" gradientTransform="matrix(22.911697,13.253577,-13.221446,22.967379,-0.131253,27.111225)">
<stop offset="0" style="stop-color:rgb(14.117647%,18.823529%,22.745098%);stop-opacity:0;"/>
<stop offset="0" style="stop-color:rgb(14.509804%,19.607843%,23.137255%);stop-opacity:0;"/>
<stop offset="0.1" style="stop-color:rgb(15.294118%,20.392157%,23.529412%);stop-opacity:1;"/>
<stop offset="1" style="stop-color:rgb(15.294118%,20.392157%,23.529412%);stop-opacity:1;"/>
</linearGradient>
<linearGradient id="linear11" gradientUnits="userSpaceOnUse" x1="0" y1="0" x2="1" y2="0" gradientTransform="matrix(0,-3.951377,3.941798,0,26.475879,30.815641)">
<stop offset="0" style="stop-color:rgb(64.705882%,67.058824%,68.627451%);stop-opacity:1;"/>
<stop offset="0.3" style="stop-color:rgb(64.705882%,67.058824%,68.627451%);stop-opacity:1;"/>
<stop offset="1" style="stop-color:rgb(64.705882%,67.058824%,68.627451%);stop-opacity:0;"/>
</linearGradient>
<linearGradient id="linear12" gradientUnits="userSpaceOnUse" x1="0" y1="0" x2="1" y2="0" gradientTransform="matrix(0,50.215416,-50.093675,0,39.368842,1.921195)">
<stop offset="0" style="stop-color:rgb(87.058824%,87.843137%,86.666667%);stop-opacity:1;"/>
<stop offset="0" style="stop-color:rgb(77.254902%,78.823529%,78.039216%);stop-opacity:1;"/>
<stop offset="0" style="stop-color:rgb(61.960784%,64.313725%,64.705882%);stop-opacity:1;"/>
<stop offset="0" style="stop-color:rgb(50.980392%,53.72549%,54.901961%);stop-opacity:1;"/>
<stop offset="0" style="stop-color:rgb(44.313725%,47.45098%,49.019608%);stop-opacity:1;"/>
<stop offset="0" style="stop-color:rgb(41.960784%,45.098039%,47.058824%);stop-opacity:1;"/>
<stop offset="0.2" style="stop-color:rgb(20%,24.705882%,27.843137%);stop-opacity:1;"/>
<stop offset="0.5" style="stop-color:rgb(15.294118%,20.392157%,23.529412%);stop-opacity:1;"/>
<stop offset="0.8" style="stop-color:rgb(20%,24.705882%,27.843137%);stop-opacity:1;"/>
<stop offset="1" style="stop-color:rgb(26.27451%,30.196078%,32.941176%);stop-opacity:1;"/>
</linearGradient>
<linearGradient id="linear13" gradientUnits="userSpaceOnUse" x1="0" y1="0" x2="1" y2="0" gradientTransform="matrix(-11.086305,16.29943,-16.259914,-11.113248,47.252436,6.695776)">
<stop offset="0" style="stop-color:rgb(15.294118%,20.392157%,23.529412%);stop-opacity:1;"/>
<stop offset="0.7" style="stop-color:rgb(15.294118%,20.392157%,23.529412%);stop-opacity:1;"/>
<stop offset="0.7" style="stop-color:rgb(16.862745%,21.568627%,24.705882%);stop-opacity:1;"/>
<stop offset="0.7" style="stop-color:rgb(21.176471%,25.882353%,29.019608%);stop-opacity:1;"/>
<stop offset="0.7" style="stop-color:rgb(28.627451%,32.941176%,35.686275%);stop-opacity:1;"/>
<stop offset="0.8" style="stop-color:rgb(39.215686%,42.745098%,45.098039%);stop-opacity:0;"/>
<stop offset="0.8" style="stop-color:rgb(52.54902%,55.294118%,57.254902%);stop-opacity:0;"/>
<stop offset="0.8" style="stop-color:rgb(69.019608%,70.980392%,72.156863%);stop-opacity:0;"/>
<stop offset="0.8" style="stop-color:rgb(88.235294%,89.019608%,89.411765%);stop-opacity:0;"/>
<stop offset="0.8" style="stop-color:rgb(100%,100%,100%);stop-opacity:0;"/>
<stop offset="1" style="stop-color:rgb(100%,100%,100%);stop-opacity:0;"/>
</linearGradient>
</defs>
<g id="surface1">
<path style=" stroke:none;fill-rule:nonzero;fill:url(#linear0);" d="M 52.179688 26.371094 C 52.179688 40.613281 40.683594 52.136719 26.476562 52.136719 C 12.269531 52.136719 0.773438 40.613281 0.773438 26.371094 C 0.773438 12.128906 12.269531 0.605469 26.476562 0.605469 C 40.683594 0.605469 52.179688 12.128906 52.179688 26.371094 Z M 26.476562 2.167969 C 13.089844 2.167969 2.332031 12.953125 2.332031 26.371094 C 2.332031 39.789062 13.171875 50.574219 26.476562 50.574219 C 39.863281 50.574219 50.621094 39.707031 50.621094 26.371094 C 50.621094 12.953125 39.863281 2.167969 26.476562 2.167969 Z M 26.476562 2.167969 "/>
<path style=" stroke:none;fill-rule:nonzero;fill:url(#linear1);" d="M 26.476562 2.167969 C 13.089844 2.167969 2.332031 12.953125 2.332031 26.371094 C 2.332031 39.789062 13.171875 50.574219 26.476562 50.574219 C 39.863281 50.574219 50.621094 39.707031 50.621094 26.371094 C 50.621094 12.953125 39.863281 2.167969 26.476562 2.167969 Z M 26.476562 49.007812 C 13.992188 49.007812 3.894531 38.882812 3.894531 26.371094 C 3.894531 13.859375 13.992188 3.730469 26.476562 3.730469 C 38.957031 3.730469 49.058594 13.859375 49.058594 26.371094 C 49.058594 38.882812 38.957031 49.007812 26.476562 49.007812 Z M 26.476562 49.007812 "/>
<path style=" stroke:none;fill-rule:nonzero;fill:url(#linear2);" d="M 26.476562 52.136719 C 40.683594 52.136719 52.179688 40.613281 52.179688 26.371094 C 52.179688 12.128906 40.683594 0.605469 26.476562 0.605469 C 12.269531 0.605469 0.773438 12.128906 0.773438 26.371094 C 0.773438 40.613281 12.269531 52.136719 26.476562 52.136719 Z M 26.476562 0.0273438 C 40.929688 0.0273438 52.753906 11.882812 52.753906 26.371094 C 52.753906 40.859375 40.929688 52.710938 26.476562 52.710938 C 12.023438 52.710938 0.195312 40.859375 0.195312 26.371094 C 0.195312 11.882812 12.023438 0.0273438 26.476562 0.0273438 Z M 26.476562 0.0273438 "/>
<path style=" stroke:none;fill-rule:nonzero;fill:rgb(100%,100%,100%);fill-opacity:1;" d="M 2.003906 26.453125 C 2.003906 12.953125 12.925781 1.839844 26.476562 1.839844 C 40.027344 1.839844 50.949219 12.871094 50.949219 26.453125 C 50.949219 39.953125 40.027344 50.902344 26.476562 50.902344 C 12.925781 50.902344 2.003906 39.953125 2.003906 26.453125 Z M 9.640625 9.496094 C 5.289062 13.859375 2.578125 19.867188 2.578125 26.453125 C 2.578125 33.039062 5.289062 39.046875 9.558594 43.328125 C 13.910156 47.609375 19.90625 50.324219 26.476562 50.324219 C 33.046875 50.324219 39.039062 47.691406 43.3125 43.328125 C 47.664062 39.046875 50.289062 33.039062 50.289062 26.453125 C 50.289062 19.867188 47.582031 13.859375 43.3125 9.496094 C 39.039062 5.132812 33.046875 2.414062 26.476562 2.414062 C 19.90625 2.414062 13.910156 5.132812 9.640625 9.496094 Z M 9.640625 9.496094 "/>
<path style=" stroke:none;fill-rule:nonzero;fill:url(#linear3);" d="M 26.476562 49.089844 C 20.398438 49.089844 14.734375 46.703125 10.460938 42.421875 C 6.191406 38.140625 3.808594 32.460938 3.808594 26.371094 C 3.808594 20.277344 6.191406 14.597656 10.460938 10.316406 C 14.734375 6.039062 20.398438 3.648438 26.476562 3.648438 C 32.554688 3.648438 38.21875 6.039062 42.488281 10.316406 C 46.757812 14.597656 49.140625 20.277344 49.140625 26.371094 C 49.140625 32.460938 46.757812 38.140625 42.488281 42.421875 C 38.21875 46.703125 32.554688 49.089844 26.476562 49.089844 Z M 26.476562 48.433594 C 32.304688 48.433594 37.890625 46.128906 41.996094 42.011719 C 46.183594 37.8125 48.402344 32.296875 48.402344 26.453125 C 48.402344 20.609375 46.101562 15.011719 41.996094 10.894531 C 37.808594 6.695312 32.304688 4.472656 26.476562 4.472656 C 20.644531 4.472656 15.0625 6.777344 10.953125 10.894531 C 6.765625 14.929688 4.46875 20.527344 4.46875 26.371094 C 4.46875 32.214844 6.765625 37.8125 10.871094 41.929688 C 15.0625 46.128906 20.644531 48.433594 26.476562 48.433594 Z M 26.476562 48.433594 "/>
<path style=" stroke:none;fill-rule:nonzero;fill:rgb(100%,100%,100%);fill-opacity:1;" d="M 46.429688 37.070312 C 46.019531 36.742188 30.171875 24.148438 30.171875 24.148438 L 26.476562 2.992188 C 26.230469 3.074219 25.902344 3.320312 25.738281 3.648438 L 23.109375 24.230469 L 6.765625 36.824219 C 6.765625 36.824219 6.4375 37.238281 6.273438 37.484375 C 6.191406 37.648438 6.191406 37.894531 6.191406 38.140625 L 26.394531 29.828125 L 46.59375 38.140625 C 46.757812 37.730469 46.59375 37.320312 46.429688 37.070312 Z M 46.429688 37.070312 "/>
<path style=" stroke:none;fill-rule:nonzero;fill:rgb(33.725491%,37.254903%,39.215687%);fill-opacity:1;" d="M 26.640625 27.027344 L 26.476562 30.816406 L 45.035156 38.308594 C 45.691406 38.636719 46.183594 38.472656 46.675781 38.140625 L 26.886719 26.945312 C 26.804688 26.863281 26.640625 26.945312 26.640625 27.027344 Z M 26.640625 27.027344 "/>
<path style=" stroke:none;fill-rule:nonzero;fill:url(#linear4);" d="M 26.640625 27.027344 C 26.640625 27.027344 27.707031 28.921875 28.941406 30.238281 C 30.664062 32.132812 32.964844 33.449219 32.964844 33.449219 L 45.035156 38.308594 C 45.691406 38.636719 46.183594 38.472656 46.675781 38.140625 L 26.886719 26.945312 C 26.804688 26.863281 26.640625 26.945312 26.640625 27.027344 Z M 26.640625 27.027344 "/>
<path style=" stroke:none;fill-rule:nonzero;fill:rgb(64.313728%,66.666669%,68.235296%);fill-opacity:0.6;" d="M 46.59375 37.402344 C 46.59375 37.320312 46.511719 37.238281 46.429688 37.070312 L 29.515625 24.640625 L 27.214844 26.125 C 27.214844 26.125 27.378906 26.207031 27.460938 26.125 C 27.707031 26.042969 28.199219 25.957031 28.691406 26.125 C 29.105469 26.289062 46.59375 37.484375 46.59375 37.484375 Z M 46.59375 37.402344 "/>
<path style=" stroke:none;fill-rule:nonzero;fill:rgb(20%,24.313726%,27.450982%);fill-opacity:1;" d="M 46.019531 36.660156 L 30.253906 24.148438 L 29.515625 24.640625 L 46.429688 37.15625 C 46.347656 36.988281 46.183594 36.824219 46.019531 36.660156 Z M 46.019531 36.660156 "/>
<path style=" stroke:none;fill-rule:nonzero;fill:rgb(33.725491%,37.254903%,39.215687%);fill-opacity:1;" d="M 26.886719 25.792969 L 26.804688 25.875 C 26.804688 25.875 26.804688 26.042969 26.96875 25.957031 C 27.050781 25.875 29.433594 24.640625 30.253906 24.148438 L 27.378906 4.390625 C 27.296875 3.648438 26.96875 3.320312 26.394531 3.074219 L 26.722656 25.957031 Z M 26.886719 25.792969 "/>
<path style=" stroke:none;fill-rule:nonzero;fill:rgb(64.313728%,66.666669%,68.235296%);fill-opacity:0.6;" d="M 25.492188 4.390625 L 25.492188 5.460938 L 23.683594 23.652344 C 23.683594 23.902344 23.765625 24.148438 24.011719 24.3125 L 25.078125 25.136719 L 25.820312 5.050781 L 25.902344 3.484375 C 25.65625 3.648438 25.574219 3.980469 25.492188 4.390625 Z M 25.492188 4.390625 "/>
<path style=" stroke:none;fill-rule:nonzero;fill:rgb(64.313728%,66.666669%,68.235296%);fill-opacity:0.6;" d="M 24.503906 25.464844 L 23.519531 24.640625 L 6.847656 36.742188 C 6.847656 36.742188 6.355469 37.070312 6.273438 37.402344 L 6.847656 37.070312 L 24.339844 26.042969 C 24.667969 25.875 24.75 25.710938 24.503906 25.464844 Z M 24.503906 25.464844 "/>
<path style=" stroke:none;fill-rule:nonzero;fill:rgb(33.725491%,37.254903%,39.215687%);fill-opacity:1;" d="M 26.230469 27.027344 C 26.230469 26.945312 26.148438 26.863281 26.066406 26.945312 L 6.191406 38.222656 C 6.683594 38.554688 7.175781 38.636719 7.835938 38.390625 L 26.394531 30.898438 Z M 26.230469 27.027344 "/>
<path style=" stroke:none;fill-rule:nonzero;fill:url(#linear5);" d="M 26.804688 25.875 L 26.886719 25.792969 L 26.804688 25.875 C 26.804688 25.875 26.804688 25.957031 26.886719 25.957031 L 26.96875 25.957031 C 27.050781 25.875 29.433594 24.640625 30.253906 24.148438 L 29.925781 21.761719 L 27.378906 4.390625 C 27.378906 4.0625 27.296875 3.816406 27.132812 3.648438 C 27.132812 3.648438 28.363281 20.277344 28.363281 22.089844 C 28.363281 24.476562 26.804688 25.875 26.804688 25.875 Z M 26.804688 25.875 "/>
<path style=" stroke:none;fill-rule:nonzero;fill:url(#linear6);" d="M 26.230469 27.027344 C 26.230469 26.945312 26.148438 26.863281 26.066406 26.945312 L 6.191406 38.222656 C 6.683594 38.554688 7.175781 38.636719 7.835938 38.390625 L 26.394531 30.898438 Z M 26.230469 27.027344 "/>
<path style=" stroke:none;fill-rule:nonzero;fill:url(#linear7);" d="M 7.835938 38.308594 L 26.394531 30.816406 L 26.230469 27.195312 C 25.902344 28.179688 25.328125 29.25 23.765625 30.074219 C 22.617188 30.734375 11.613281 36.167969 7.671875 38.058594 C 7.425781 38.222656 7.09375 38.308594 6.929688 38.390625 C 7.257812 38.554688 7.507812 38.472656 7.835938 38.308594 Z M 7.835938 38.308594 "/>
<path style=" stroke:none;fill-rule:nonzero;fill:url(#linear8);" d="M 26.886719 25.792969 L 26.804688 25.875 C 26.804688 25.875 26.804688 26.042969 26.96875 25.957031 C 27.050781 25.875 29.433594 24.640625 30.253906 24.148438 L 27.378906 4.390625 C 27.296875 3.648438 26.96875 3.320312 26.394531 3.074219 L 26.722656 25.957031 Z M 26.886719 25.792969 "/>
<path style=" stroke:none;fill-rule:nonzero;fill:url(#linear9);" d="M 26.886719 25.792969 L 26.804688 25.875 C 26.804688 25.875 26.804688 26.042969 26.96875 25.957031 C 27.050781 25.875 29.433594 24.640625 30.253906 24.148438 L 27.378906 4.390625 C 27.296875 3.648438 26.96875 3.320312 26.394531 3.074219 L 26.722656 25.957031 Z M 26.886719 25.792969 "/>
<path style=" stroke:none;fill-rule:nonzero;fill:url(#linear10);" d="M 4.386719 36.578125 C 3.808594 35.261719 0.527344 28.839844 4.140625 16.492188 L 2.742188 16.492188 C 2.003906 18.960938 1.429688 20.441406 1.101562 22.664062 C 1.101562 22.664062 0.9375 23.488281 0.855469 24.394531 C 0.773438 25.300781 0.773438 25.792969 0.773438 26.371094 C 0.773438 31.308594 2.003906 34.191406 2.003906 34.191406 C 3.316406 38.308594 5.617188 42.011719 8.738281 44.808594 C 11.449219 47.199219 15.636719 49.007812 19.085938 49.667969 C 18.511719 49.585938 8.65625 45.386719 4.386719 36.578125 Z M 4.386719 36.578125 "/>
<path style=" stroke:none;fill-rule:nonzero;fill:url(#linear11);" d="M 26.804688 26.863281 L 26.066406 26.863281 C 26.148438 26.863281 26.230469 26.863281 26.230469 26.945312 L 26.394531 30.734375 L 26.476562 30.734375 L 26.640625 26.945312 C 26.640625 26.863281 26.722656 26.78125 26.804688 26.863281 Z M 26.804688 26.863281 "/>
<path style=" stroke:none;fill-rule:nonzero;fill:url(#linear12);" d="M 34.6875 1.921875 C 43.3125 5.214844 51.441406 14.269531 51.441406 25.710938 C 51.441406 39.542969 40.4375 50.820312 26.476562 50.820312 L 26.476562 52.136719 C 40.4375 52.136719 52.179688 40.613281 52.179688 26.371094 C 52.179688 15.011719 44.953125 5.460938 34.6875 1.921875 Z M 34.6875 1.921875 "/>
<path style=" stroke:none;fill-rule:nonzero;fill:url(#linear13);" d="M 48.484375 16.65625 C 42.734375 3.402344 29.761719 2.660156 29.023438 2.578125 L 28.941406 2.578125 C 38.875 4.390625 45.199219 10.894531 47.417969 17.726562 L 47.417969 17.808594 C 48.402344 20.441406 48.894531 23.242188 48.976562 26.289062 C 49.058594 29.167969 48.402344 32.378906 47.171875 35.34375 C 47.089844 35.753906 47.007812 36.25 46.925781 36.25 L 48.238281 36.25 C 52.179688 28.839844 50.457031 21.347656 48.484375 16.65625 Z M 48.484375 16.65625 "/>
<path style=" stroke:none;fill-rule:nonzero;fill:rgb(98.431373%,98.431373%,98.431373%);fill-opacity:1;" d="M 2.003906 26.453125 C 2.003906 12.953125 12.925781 1.839844 26.476562 1.839844 C 40.027344 1.839844 50.949219 12.871094 50.949219 26.453125 C 50.949219 39.953125 40.027344 50.902344 26.476562 50.902344 C 12.925781 50.902344 2.003906 39.953125 2.003906 26.453125 Z M 9.640625 9.496094 C 5.289062 13.859375 2.578125 19.867188 2.578125 26.453125 C 2.578125 33.039062 5.289062 39.046875 9.558594 43.328125 C 13.910156 47.609375 19.90625 50.324219 26.476562 50.324219 C 33.046875 50.324219 39.039062 47.691406 43.3125 43.328125 C 47.664062 39.046875 50.289062 33.039062 50.289062 26.453125 C 50.289062 19.867188 47.582031 13.859375 43.3125 9.496094 C 39.039062 5.132812 33.046875 2.414062 26.476562 2.414062 C 19.90625 2.414062 13.910156 5.132812 9.640625 9.496094 Z M 9.640625 9.496094 "/>
<path style=" stroke:none;fill-rule:nonzero;fill:rgb(20%,24.705882%,27.843139%);fill-opacity:1;" d="M 6.683594 36.90625 L 23.4375 24.804688 C 24.339844 25.300781 25.820312 25.957031 25.984375 25.957031 C 26.148438 26.042969 26.148438 25.875 26.148438 25.875 L 24.09375 24.148438 C 23.847656 23.984375 23.765625 23.734375 23.765625 23.488281 L 25.738281 3.648438 C 25.65625 3.730469 25.65625 3.898438 25.574219 3.980469 C 25.492188 4.144531 25.492188 4.226562 25.492188 4.390625 L 22.617188 24.230469 L 6.847656 36.660156 C 6.765625 36.742188 6.683594 36.824219 6.683594 36.90625 Z M 6.683594 36.90625 "/>
<path style=" stroke:none;fill-rule:evenodd;fill:rgb(0%,0%,0%);fill-opacity:1;" d="M 151.089844 19.074219 L 167.917969 19.074219 C 168.191406 19.074219 168.417969 18.847656 168.417969 18.574219 L 168.417969 14.363281 C 168.417969 14.085938 168.191406 13.859375 167.917969 13.859375 L 159.648438 13.859375 C 159.375 13.859375 159.148438 14.085938 159.148438 14.363281 L 159.148438 15.125 C 159.148438 15.398438 159.375 15.625 159.648438 15.625 L 165.082031 15.625 C 165.171875 15.625 165.246094 15.703125 165.246094 15.792969 L 165.246094 16.605469 C 165.246094 16.695312 165.171875 16.769531 165.082031 16.769531 L 154.265625 16.769531 C 153.992188 16.769531 153.765625 16.542969 153.765625 16.269531 L 153.765625 13.144531 C 153.765625 12.871094 153.992188 12.644531 154.265625 12.644531 L 167.921875 12.644531 C 168.199219 12.644531 168.425781 12.417969 168.425781 12.144531 L 168.425781 10.996094 C 168.425781 10.722656 168.199219 10.496094 167.921875 10.496094 L 151.09375 10.496094 C 150.820312 10.496094 150.59375 10.722656 150.59375 10.996094 L 150.59375 18.570312 C 150.589844 18.847656 150.816406 19.074219 151.089844 19.074219 Z M 146.378906 19.074219 L 148.550781 19.074219 C 148.824219 19.074219 149.050781 18.847656 149.050781 18.574219 L 149.050781 11.003906 C 149.050781 10.726562 148.824219 10.5 148.550781 10.5 L 146.109375 10.5 C 146.011719 10.5 145.921875 10.523438 145.835938 10.582031 L 139.882812 14.476562 C 139.714844 14.585938 139.503906 14.585938 139.335938 14.476562 L 133.382812 10.582031 C 133.296875 10.523438 133.210938 10.5 133.109375 10.5 L 130.667969 10.5 C 130.394531 10.5 130.167969 10.726562 130.167969 11.003906 L 130.167969 18.574219 C 130.167969 18.847656 130.394531 19.074219 130.667969 19.074219 L 132.839844 19.074219 C 133.113281 19.074219 133.339844 18.847656 133.339844 18.574219 L 133.339844 14.011719 C 133.339844 13.925781 133.382812 13.851562 133.457031 13.808594 C 133.535156 13.765625 133.625 13.769531 133.695312 13.8125 L 138.300781 16.710938 C 138.386719 16.761719 138.464844 16.785156 138.566406 16.785156 L 140.632812 16.785156 C 140.734375 16.785156 140.816406 16.761719 140.898438 16.710938 L 145.503906 13.8125 C 145.582031 13.765625 145.664062 13.765625 145.742188 13.808594 C 145.816406 13.851562 145.863281 13.925781 145.863281 14.011719 L 145.863281 18.574219 C 145.878906 18.847656 146.105469 19.074219 146.378906 19.074219 Z M 128.132812 19.074219 L 125.960938 19.074219 C 125.6875 19.074219 125.460938 18.847656 125.460938 18.574219 L 125.460938 17.238281 C 125.460938 17.148438 125.386719 17.074219 125.296875 17.074219 L 113.875 17.074219 C 113.714844 17.074219 113.578125 17.140625 113.480469 17.269531 L 112.285156 18.816406 C 112.152344 18.984375 111.96875 19.074219 111.757812 19.074219 L 108.773438 19.074219 C 108.683594 19.074219 108.605469 19.027344 108.566406 18.941406 C 108.523438 18.863281 108.53125 18.769531 108.589844 18.695312 L 114.757812 10.695312 C 114.859375 10.566406 114.996094 10.5 115.15625 10.5 L 128.132812 10.5 C 128.40625 10.5 128.632812 10.726562 128.632812 11.003906 L 128.632812 18.574219 C 128.632812 18.847656 128.410156 19.074219 128.132812 19.074219 Z M 125.460938 14.699219 L 125.460938 12.820312 C 125.460938 12.730469 125.386719 12.652344 125.296875 12.652344 L 117.203125 12.652344 C 117.097656 12.652344 117.007812 12.699219 116.941406 12.78125 L 115.5 14.652344 C 115.46875 14.691406 115.460938 14.746094 115.488281 14.792969 C 115.511719 14.839844 115.550781 14.867188 115.605469 14.867188 L 125.296875 14.867188 C 125.386719 14.863281 125.460938 14.789062 125.460938 14.699219 Z M 87.984375 19.074219 L 80.824219 19.074219 C 80.734375 19.074219 80.652344 19.027344 80.613281 18.941406 C 80.574219 18.863281 80.582031 18.769531 80.636719 18.695312 L 86.808594 10.695312 C 86.90625 10.566406 87.042969 10.5 87.203125 10.5 L 94.296875 10.5 C 94.398438 10.5 94.488281 10.558594 94.535156 10.652344 C 94.582031 10.746094 94.570312 10.851562 94.507812 10.9375 L 88.378906 18.882812 C 88.28125 19.007812 88.144531 19.074219 87.984375 19.074219 Z M 93.191406 19.074219 L 89.800781 19.074219 C 89.710938 19.074219 89.632812 19.027344 89.59375 18.941406 C 89.550781 18.863281 89.5625 18.769531 89.617188 18.695312 L 95.789062 10.695312 C 95.886719 10.566406 96.023438 10.5 96.183594 10.5 L 99.507812 10.5 C 99.609375 10.5 99.699219 10.558594 99.746094 10.652344 C 99.796875 10.746094 99.78125 10.851562 99.71875 10.9375 L 93.59375 18.882812 C 93.488281 19.007812 93.351562 19.074219 93.191406 19.074219 Z M 97.859375 19.074219 L 95.238281 19.074219 C 95.148438 19.074219 95.070312 19.027344 95.03125 18.941406 C 94.988281 18.863281 95 18.769531 95.054688 18.695312 L 101.226562 10.695312 C 101.324219 10.566406 101.460938 10.5 101.621094 10.5 L 104.171875 10.5 C 104.273438 10.5 104.363281 10.558594 104.410156 10.652344 C 104.460938 10.746094 104.449219 10.851562 104.382812 10.9375 L 98.257812 18.882812 C 98.15625 19.007812 98.019531 19.074219 97.859375 19.074219 Z M 102.074219 19.074219 L 100.25 19.074219 C 100.160156 19.074219 100.078125 19.027344 100.039062 18.941406 C 99.996094 18.863281 100.007812 18.769531 100.0625 18.695312 L 106.234375 10.695312 C 106.332031 10.566406 106.46875 10.5 106.628906 10.5 L 108.390625 10.5 C 108.496094 10.5 108.585938 10.558594 108.632812 10.652344 C 108.679688 10.746094 108.664062 10.851562 108.605469 10.9375 L 102.476562 18.882812 C 102.371094 19.007812 102.234375 19.074219 102.074219 19.074219 Z M 106.117188 19.074219 L 104.769531 19.074219 C 104.679688 19.074219 104.601562 19.027344 104.5625 18.941406 C 104.519531 18.863281 104.53125 18.769531 104.585938 18.695312 L 110.757812 10.695312 C 110.855469 10.566406 110.992188 10.5 111.152344 10.5 L 112.425781 10.5 C 112.53125 10.5 112.621094 10.558594 112.667969 10.652344 C 112.714844 10.746094 112.703125 10.851562 112.640625 10.9375 L 106.511719 18.882812 C 106.414062 19.007812 106.277344 19.074219 106.117188 19.074219 Z M 106.117188 19.074219 "/>
<path style=" stroke:none;fill-rule:nonzero;fill:rgb(0%,63.137257%,60.784316%);fill-opacity:1;" d="M 74.925781 23.808594 C 74.441406 23.503906 73.488281 23.363281 72.015625 23.363281 L 65.609375 23.363281 L 65.609375 32 L 66.972656 32 L 66.972656 28.6875 L 72.015625 28.6875 C 73.492188 28.6875 74.445312 28.542969 74.925781 28.246094 C 75.421875 27.941406 75.671875 27.378906 75.671875 26.582031 L 75.671875 25.476562 C 75.675781 24.679688 75.425781 24.113281 74.925781 23.808594 Z M 74.234375 25.804688 L 74.234375 26.207031 C 74.234375 26.742188 74.113281 27.089844 73.886719 27.242188 C 73.640625 27.410156 73.125 27.492188 72.339844 27.492188 L 66.976562 27.492188 L 66.976562 24.515625 L 72.339844 24.515625 C 73.125 24.515625 73.648438 24.601562 73.886719 24.769531 C 74.113281 24.925781 74.234375 25.273438 74.234375 25.804688 Z M 74.234375 25.804688 "/>
<path style=" stroke:none;fill-rule:nonzero;fill:rgb(0%,63.137257%,60.784316%);fill-opacity:1;" d="M 79.84375 24.539062 L 87.648438 24.539062 L 87.648438 23.363281 L 78.503906 23.363281 L 78.503906 32 L 87.648438 32 L 87.648438 30.820312 L 79.84375 30.820312 L 79.84375 28.109375 L 87.324219 28.109375 L 87.324219 26.929688 L 79.84375 26.929688 Z M 79.84375 24.539062 "/>
<path style=" stroke:none;fill-rule:nonzero;fill:rgb(0%,63.137257%,60.784316%);fill-opacity:1;" d="M 89.621094 24.539062 L 94.101562 24.539062 L 94.101562 32 L 95.464844 32 L 95.464844 24.539062 L 99.941406 24.539062 L 99.941406 23.363281 L 89.621094 23.363281 Z M 89.621094 24.539062 "/>
<path style=" stroke:none;fill-rule:nonzero;fill:rgb(0%,63.137257%,60.784316%);fill-opacity:1;" d="M 111.980469 23.800781 C 111.488281 23.503906 110.535156 23.359375 109.058594 23.359375 L 102.480469 23.359375 L 102.480469 31.992188 L 103.84375 31.992188 L 103.84375 28.699219 L 109.207031 28.699219 C 110.34375 28.699219 110.773438 28.847656 110.9375 28.976562 C 111.164062 29.148438 111.277344 29.496094 111.277344 30 L 111.277344 31.992188 L 112.640625 31.992188 L 112.640625 29.792969 C 112.640625 29.277344 112.503906 28.863281 112.230469 28.5625 C 112.058594 28.378906 111.835938 28.238281 111.566406 28.148438 C 111.917969 28.035156 112.175781 27.886719 112.351562 27.707031 C 112.605469 27.441406 112.734375 27.03125 112.734375 26.480469 L 112.734375 25.476562 C 112.738281 24.671875 112.484375 24.109375 111.980469 23.800781 Z M 111.3125 25.804688 L 111.3125 26.207031 C 111.3125 26.726562 111.195312 27.078125 110.96875 27.238281 C 110.722656 27.410156 110.203125 27.492188 109.425781 27.492188 L 103.851562 27.492188 L 103.851562 24.515625 L 109.425781 24.515625 C 110.203125 24.515625 110.722656 24.601562 110.96875 24.777344 C 111.195312 24.941406 111.3125 25.289062 111.3125 25.804688 Z M 111.3125 25.804688 "/>
<path style=" stroke:none;fill-rule:nonzero;fill:rgb(0%,63.137257%,60.784316%);fill-opacity:1;" d="M 126.324219 23.867188 C 126.023438 23.648438 125.625 23.492188 125.136719 23.394531 C 124.660156 23.304688 123.933594 23.257812 122.976562 23.257812 L 119.957031 23.257812 C 119.003906 23.257812 118.277344 23.304688 117.800781 23.394531 C 117.3125 23.492188 116.914062 23.648438 116.609375 23.867188 C 116.269531 24.121094 116.023438 24.464844 115.875 24.902344 C 115.726562 25.328125 115.65625 25.898438 115.65625 26.609375 L 115.65625 28.898438 C 115.65625 29.546875 115.730469 30.082031 115.878906 30.484375 C 116.03125 30.894531 116.28125 31.230469 116.625 31.488281 C 116.929688 31.710938 117.328125 31.871094 117.804688 31.960938 C 118.273438 32.050781 119.003906 32.09375 119.972656 32.09375 L 122.976562 32.09375 C 123.957031 32.09375 124.6875 32.046875 125.15625 31.960938 C 125.632812 31.871094 126.023438 31.710938 126.324219 31.488281 C 126.65625 31.246094 126.902344 30.90625 127.050781 30.480469 C 127.203125 30.0625 127.277344 29.515625 127.277344 28.847656 L 127.277344 26.507812 C 127.277344 25.847656 127.203125 25.304688 127.050781 24.882812 C 126.902344 24.449219 126.65625 24.109375 126.324219 23.867188 Z M 123.511719 30.886719 L 119.421875 30.886719 C 118.851562 30.886719 118.414062 30.839844 118.105469 30.75 C 117.8125 30.664062 117.585938 30.519531 117.425781 30.320312 C 117.308594 30.175781 117.222656 30 117.175781 29.808594 C 117.125 29.597656 117.101562 29.246094 117.101562 28.757812 L 117.101562 26.550781 C 117.101562 26.066406 117.125 25.710938 117.175781 25.5 C 117.222656 25.304688 117.308594 25.132812 117.425781 24.992188 C 117.585938 24.792969 117.820312 24.648438 118.105469 24.566406 C 118.410156 24.476562 118.851562 24.425781 119.421875 24.425781 L 123.511719 24.425781 C 124.082031 24.425781 124.523438 24.476562 124.824219 24.566406 C 125.113281 24.648438 125.34375 24.796875 125.503906 24.992188 C 125.613281 25.128906 125.691406 25.292969 125.738281 25.476562 C 125.792969 25.675781 125.816406 25.992188 125.816406 26.425781 L 125.816406 28.890625 C 125.816406 29.316406 125.792969 29.632812 125.738281 29.832031 C 125.691406 30.019531 125.613281 30.1875 125.503906 30.324219 C 125.34375 30.523438 125.113281 30.664062 124.824219 30.753906 C 124.523438 30.839844 124.082031 30.886719 123.511719 30.886719 Z M 123.511719 30.886719 "/>
<path style=" stroke:none;fill-rule:nonzero;fill:rgb(0%,63.137257%,60.784316%);fill-opacity:1;" d="M 141.714844 23.363281 L 140.355469 23.363281 L 140.355469 30.644531 L 132.347656 23.363281 L 130.414062 23.363281 L 130.414062 32 L 131.78125 32 L 131.78125 24.601562 L 139.90625 32 L 141.714844 32 Z M 141.714844 23.363281 "/>
<path style=" stroke:none;fill-rule:nonzero;fill:rgb(0%,63.137257%,60.784316%);fill-opacity:1;" d="M 149.234375 23.363281 L 143.835938 32 L 145.402344 32 L 146.554688 30.148438 L 153.609375 30.148438 L 154.796875 32 L 156.273438 32 L 150.859375 23.363281 Z M 147.257812 29.023438 L 150.0625 24.546875 L 152.910156 29.023438 Z M 147.257812 29.023438 "/>
<path style=" stroke:none;fill-rule:nonzero;fill:rgb(0%,63.137257%,60.784316%);fill-opacity:1;" d="M 168.410156 28.09375 C 168.269531 27.769531 168.027344 27.507812 167.691406 27.328125 C 167.464844 27.199219 167.164062 27.109375 166.789062 27.054688 C 166.425781 27 165.882812 26.972656 165.171875 26.972656 L 161.921875 26.972656 C 160.945312 26.972656 160.304688 26.878906 160.007812 26.6875 C 159.722656 26.507812 159.585938 26.179688 159.585938 25.675781 C 159.585938 25.183594 159.730469 24.859375 160.015625 24.683594 C 160.324219 24.5 160.941406 24.402344 161.851562 24.402344 L 164.933594 24.402344 C 165.828125 24.402344 166.417969 24.492188 166.683594 24.671875 C 166.933594 24.84375 167.054688 25.183594 167.054688 25.691406 L 167.054688 25.941406 L 168.375 25.941406 L 168.375 25.578125 C 168.375 25.15625 168.324219 24.800781 168.222656 24.523438 C 168.117188 24.234375 167.949219 23.996094 167.71875 23.816406 C 167.453125 23.609375 167.078125 23.460938 166.613281 23.382812 C 166.15625 23.300781 165.355469 23.261719 164.230469 23.261719 L 162.179688 23.261719 C 160.660156 23.261719 159.640625 23.4375 159.058594 23.800781 C 158.46875 24.171875 158.167969 24.820312 158.167969 25.722656 C 158.167969 26.609375 158.429688 27.242188 158.949219 27.613281 C 159.464844 27.976562 160.320312 28.15625 161.558594 28.15625 L 165.378906 28.15625 C 166.152344 28.15625 166.667969 28.246094 166.902344 28.425781 C 167.128906 28.597656 167.242188 28.933594 167.242188 29.417969 C 167.242188 30.015625 167.078125 30.402344 166.742188 30.609375 C 166.390625 30.820312 165.605469 30.929688 164.40625 30.929688 L 162.046875 30.929688 C 161.050781 30.929688 160.371094 30.828125 160.015625 30.636719 C 159.679688 30.453125 159.519531 30.125 159.519531 29.640625 C 159.519531 29.585938 159.527344 29.476562 159.535156 29.316406 L 159.558594 29.023438 L 158.242188 29.023438 L 158.222656 29.121094 C 158.21875 29.148438 158.214844 29.1875 158.214844 29.234375 C 158.199219 29.492188 158.195312 29.671875 158.195312 29.773438 C 158.195312 30.601562 158.472656 31.207031 159.023438 31.566406 C 159.566406 31.921875 160.4375 32.097656 161.6875 32.097656 L 164.757812 32.097656 C 166.199219 32.097656 167.183594 31.910156 167.75 31.527344 C 168.320312 31.132812 168.613281 30.445312 168.613281 29.476562 C 168.617188 28.878906 168.546875 28.417969 168.410156 28.09375 Z M 168.410156 28.09375 "/>
<path style=" stroke:none;fill-rule:nonzero;fill:rgb(0%,0%,0%);fill-opacity:1;" d="M 83.4375 39.148438 L 83.4375 39.617188 L 80.882812 39.617188 L 80.882812 42.632812 L 80.351562 42.632812 L 80.351562 36.351562 L 83.625 36.351562 L 83.625 36.820312 L 80.882812 36.820312 L 80.882812 39.144531 L 83.4375 39.144531 Z M 83.4375 39.148438 "/>
<path style=" stroke:none;fill-rule:nonzero;fill:rgb(0%,0%,0%);fill-opacity:1;" d="M 90.046875 39.484375 C 90.046875 41.398438 89.03125 42.730469 87.597656 42.730469 C 86.125 42.730469 85.128906 41.402344 85.128906 39.445312 C 85.128906 37.582031 86.160156 36.25 87.585938 36.25 C 89.03125 36.25 90.046875 37.585938 90.046875 39.484375 Z M 85.703125 39.457031 C 85.703125 41.101562 86.472656 42.253906 87.582031 42.253906 C 88.683594 42.253906 89.460938 41.101562 89.460938 39.484375 C 89.460938 37.875 88.683594 36.726562 87.582031 36.726562 C 86.496094 36.726562 85.703125 37.875 85.703125 39.457031 Z M 85.703125 39.457031 "/>
<path style=" stroke:none;fill-rule:nonzero;fill:rgb(0%,0%,0%);fill-opacity:1;" d="M 92.964844 36.351562 C 93.933594 36.351562 94.214844 36.378906 94.625 36.523438 C 95.273438 36.730469 95.679688 37.324219 95.679688 38.074219 C 95.679688 38.902344 95.230469 39.464844 94.328125 39.769531 L 96.046875 42.632812 L 95.390625 42.632812 L 93.710938 39.84375 L 92.542969 39.84375 L 92.542969 42.632812 L 92.011719 42.632812 L 92.011719 36.351562 Z M 92.984375 39.371094 C 93.808594 39.371094 94.015625 39.351562 94.332031 39.238281 C 94.820312 39.070312 95.09375 38.648438 95.09375 38.0625 C 95.09375 37.527344 94.847656 37.128906 94.4375 36.957031 C 94.136719 36.84375 93.882812 36.816406 92.992188 36.816406 L 92.542969 36.816406 L 92.542969 39.367188 L 92.984375 39.367188 Z M 92.984375 39.371094 "/>
<path style=" stroke:none;fill-rule:nonzero;fill:rgb(0%,0%,0%);fill-opacity:1;" d="M 98.660156 36.351562 L 100.550781 42.03125 L 102.4375 36.351562 L 103.300781 36.351562 L 103.300781 42.632812 L 102.769531 42.632812 L 102.769531 36.84375 L 100.824219 42.632812 L 100.289062 42.632812 L 98.335938 36.84375 L 98.335938 42.632812 L 97.804688 42.632812 L 97.804688 36.351562 Z M 98.660156 36.351562 "/>
<path style=" stroke:none;fill-rule:nonzero;fill:rgb(0%,0%,0%);fill-opacity:1;" d="M 106.003906 36.351562 L 106.003906 40.082031 C 106.011719 41.210938 106.03125 41.382812 106.238281 41.671875 C 106.484375 42.039062 106.988281 42.253906 107.589844 42.253906 C 108.265625 42.253906 108.800781 41.988281 109.023438 41.546875 C 109.164062 41.273438 109.175781 41.117188 109.183594 40.082031 L 109.183594 36.351562 L 109.71875 36.351562 L 109.71875 40.089844 C 109.71875 41.117188 109.707031 41.242188 109.59375 41.558594 C 109.332031 42.300781 108.589844 42.734375 107.585938 42.734375 C 106.683594 42.734375 105.996094 42.386719 105.675781 41.773438 C 105.515625 41.464844 105.460938 41.15625 105.460938 40.550781 L 105.460938 36.351562 Z M 106.003906 36.351562 "/>
<path style=" stroke:none;fill-rule:nonzero;fill:rgb(0%,0%,0%);fill-opacity:1;" d="M 112.433594 36.351562 L 112.433594 42.160156 L 115.097656 42.160156 L 115.097656 42.628906 L 111.878906 42.628906 L 111.878906 36.347656 L 112.433594 36.347656 Z M 112.433594 36.351562 "/>
<path style=" stroke:none;fill-rule:nonzero;fill:rgb(0%,0%,0%);fill-opacity:1;" d="M 119.078125 36.304688 L 121.25 42.632812 L 120.6875 42.632812 L 120.078125 40.851562 L 117.675781 40.851562 L 117.058594 42.632812 L 116.507812 42.632812 L 118.675781 36.304688 Z M 118.871094 37.066406 L 117.820312 40.378906 L 119.914062 40.378906 Z M 118.871094 37.066406 "/>
<path style=" stroke:none;fill-rule:nonzero;fill:rgb(0%,0%,0%);fill-opacity:1;" d="M 130.492188 39.484375 C 130.492188 41.398438 129.480469 42.730469 128.042969 42.730469 C 126.570312 42.730469 125.574219 41.402344 125.574219 39.445312 C 125.574219 37.582031 126.609375 36.25 128.035156 36.25 C 129.480469 36.25 130.492188 37.585938 130.492188 39.484375 Z M 126.15625 39.457031 C 126.15625 41.101562 126.925781 42.253906 128.035156 42.253906 C 129.132812 42.253906 129.914062 41.101562 129.914062 39.484375 C 129.914062 37.875 129.132812 36.726562 128.035156 36.726562 C 126.945312 36.726562 126.15625 37.875 126.15625 39.457031 Z M 126.15625 39.457031 "/>
<path style=" stroke:none;fill-rule:nonzero;fill:rgb(0%,0%,0%);fill-opacity:1;" d="M 133.042969 36.351562 L 136.195312 41.851562 L 136.195312 36.351562 L 136.691406 36.351562 L 136.691406 42.632812 L 136.074219 42.632812 L 132.957031 37.152344 L 132.957031 42.632812 L 132.453125 42.632812 L 132.453125 36.351562 Z M 133.042969 36.351562 "/>
<path style=" stroke:none;fill-rule:nonzero;fill:rgb(0%,0%,0%);fill-opacity:1;" d="M 142.035156 39.148438 L 142.035156 39.617188 L 139.480469 39.617188 L 139.480469 42.160156 L 142.261719 42.160156 L 142.261719 42.628906 L 138.949219 42.628906 L 138.949219 36.347656 L 142.222656 36.347656 L 142.222656 36.816406 L 139.480469 36.816406 L 139.480469 39.140625 L 142.035156 39.140625 Z M 142.035156 39.148438 "/>
<path style=" stroke:none;fill-rule:nonzero;fill:rgb(0%,0%,0%);fill-opacity:1;" d="M 150.289062 36.351562 L 150.289062 36.820312 L 148.671875 36.820312 L 148.671875 42.628906 L 148.140625 42.628906 L 148.140625 36.820312 L 146.515625 36.820312 L 146.515625 36.351562 Z M 150.289062 36.351562 "/>
<path style=" stroke:none;fill-rule:nonzero;fill:rgb(0%,0%,0%);fill-opacity:1;" d="M 155.035156 39.148438 L 155.035156 39.617188 L 152.480469 39.617188 L 152.480469 42.160156 L 155.261719 42.160156 L 155.261719 42.628906 L 151.949219 42.628906 L 151.949219 36.347656 L 155.226562 36.347656 L 155.226562 36.816406 L 152.480469 36.816406 L 152.480469 39.140625 L 155.035156 39.140625 Z M 155.035156 39.148438 "/>
<path style=" stroke:none;fill-rule:nonzero;fill:rgb(0%,0%,0%);fill-opacity:1;" d="M 159.136719 36.304688 L 161.308594 42.632812 L 160.75 42.632812 L 160.140625 40.851562 L 157.738281 40.851562 L 157.117188 42.632812 L 156.566406 42.632812 L 158.738281 36.304688 Z M 158.929688 37.066406 L 157.878906 40.378906 L 159.972656 40.378906 Z M 158.929688 37.066406 "/>
<path style=" stroke:none;fill-rule:nonzero;fill:rgb(0%,0%,0%);fill-opacity:1;" d="M 163.832031 36.351562 L 165.71875 42.03125 L 167.605469 36.351562 L 168.472656 36.351562 L 168.472656 42.632812 L 167.9375 42.632812 L 167.9375 36.84375 L 165.992188 42.632812 L 165.460938 42.632812 L 163.503906 36.84375 L 163.503906 42.632812 L 162.972656 42.632812 L 162.972656 36.351562 Z M 163.832031 36.351562 "/>
</g>
</svg>
