<?xml version="1.0" encoding="UTF-8"?>
<svg xmlns="http://www.w3.org/2000/svg" xmlns:xlink="http://www.w3.org/1999/xlink" width="170px" height="px" viewBox="0 0 170 66" version="1.1">
<g id="surface1">
<path style=" stroke:none;fill-rule:nonzero;fill:rgb(100%,76.862746%,13.725491%);fill-opacity:1;" d="M 88.363281 1.867188 C 85.203125 1.867188 82.394531 3.417969 80.652344 5.785156 L 80.621094 5.71875 C 80.375 5.609375 80.097656 5.574219 79.800781 5.554688 C 79.148438 5.519531 78.585938 5.765625 78.097656 6.148438 C 77.242188 6.710938 76.144531 6.695312 75.339844 7.398438 C 75.15625 7.535156 74.996094 7.789062 74.785156 7.894531 C 74.511719 7.9375 74.226562 7.964844 73.964844 8.023438 C 73.351562 8.171875 72.847656 8.527344 72.390625 8.980469 C 72.109375 9.203125 71.8125 9.339844 71.472656 9.40625 C 70.726562 9.433594 69.996094 9.621094 69.40625 10.066406 C 68.785156 10.542969 68.171875 10.996094 67.46875 11.285156 C 67.097656 11.429688 66.59375 11.410156 66.289062 11.121094 C 65.992188 10.882812 65.933594 10.546875 66.027344 10.199219 C 66.246094 9.722656 66.667969 9.328125 67.109375 9.011719 C 67.695312 8.570312 68.195312 7.953125 67.996094 7.167969 C 67.6875 6.171875 66.613281 6.15625 65.796875 5.886719 L 65.601562 5.785156 C 65.296875 5.625 65.191406 5.453125 64.878906 5.324219 C 64.757812 5.28125 64.683594 5.378906 64.617188 5.457031 C 64.414062 5.8125 64.316406 6.183594 64.417969 6.609375 C 64.5625 7.25 65.210938 7.824219 65.863281 7.925781 C 66.007812 7.960938 66.175781 7.949219 66.320312 7.992188 C 65.878906 8.332031 65.4375 8.738281 65.074219 9.175781 C 64.589844 9.75 64.472656 10.679688 64.78125 11.351562 C 65.042969 12.023438 65.714844 12.558594 66.421875 12.667969 C 66.871094 12.753906 67.367188 12.675781 67.796875 12.636719 C 67.824219 13.207031 67.871094 13.78125 68.125 14.25 L 68.125 14.414062 C 67.929688 14.609375 67.691406 14.730469 67.4375 14.808594 C 67.257812 14.824219 67.054688 14.773438 66.878906 14.808594 C 66.617188 14.824219 66.511719 15.058594 66.421875 15.269531 C 66.21875 15.582031 66.316406 15.988281 65.929688 16.15625 L 65.46875 15.761719 C 65.054688 15.523438 64.71875 15.945312 64.386719 16.125 C 64.21875 16.21875 64.09375 16.390625 64.058594 16.585938 C 63.804688 16.714844 63.53125 16.867188 63.402344 17.144531 C 63.320312 17.316406 63.335938 17.550781 63.304688 17.738281 C 63.226562 17.890625 63.117188 18.023438 63.105469 18.199219 C 63.132812 18.320312 63.136719 18.46875 63.238281 18.5625 C 63.484375 18.707031 63.753906 18.757812 64.027344 18.824219 C 64.171875 18.859375 64.265625 18.746094 64.386719 18.695312 C 64.777344 18.785156 65.257812 18.902344 65.664062 18.792969 C 66.074219 18.679688 66.164062 18.207031 66.421875 17.9375 C 66.625 17.875 66.804688 18.027344 67.011719 18.035156 C 67.367188 18.007812 67.648438 17.742188 67.960938 17.605469 C 68.15625 17.472656 68.332031 17.273438 68.519531 17.144531 C 68.707031 17.070312 68.863281 17.0625 69.078125 17.078125 C 69.601562 17.191406 70.28125 17.277344 70.78125 17.015625 C 71.0625 16.871094 71.320312 16.671875 71.636719 16.585938 C 72.082031 16.363281 72.101562 15.824219 72.390625 15.5 L 72.585938 15.070312 C 73.214844 15.164062 73.753906 14.785156 74.390625 14.941406 C 75.074219 15.078125 75.90625 15.207031 76.621094 15.039062 C 76.746094 15.167969 76.886719 15.230469 76.980469 15.367188 C 76.734375 15.417969 76.46875 15.394531 76.292969 15.597656 C 75.917969 15.425781 75.476562 15.5625 75.078125 15.597656 C 74.867188 15.609375 74.632812 15.691406 74.519531 15.894531 C 74.460938 16.011719 74.472656 16.203125 74.519531 16.324219 L 75.078125 17.210938 C 75.15625 17.296875 75.214844 17.390625 75.339844 17.410156 C 75.46875 17.445312 75.640625 17.382812 75.765625 17.441406 C 75.894531 17.671875 76.015625 17.914062 76.226562 18.101562 C 76.5 18.339844 76.9375 18.417969 77.308594 18.332031 C 77.9375 18.101562 78.558594 17.871094 79.179688 17.605469 L 79.964844 17.507812 C 80.21875 17.421875 80.355469 17.136719 80.457031 16.914062 C 82.179688 19.421875 85.097656 21.0625 88.363281 21.0625 C 91.589844 21.0625 94.4375 19.441406 96.167969 16.980469 C 96.179688 17.007812 96.191406 17.058594 96.199219 17.078125 C 96.234375 17.167969 96.296875 17.3125 96.363281 17.375 C 96.535156 17.582031 96.824219 17.5 97.054688 17.507812 C 97.207031 17.617188 97.367188 17.785156 97.546875 17.835938 C 98.070312 17.972656 98.578125 18.121094 99.085938 18.296875 C 99.25 18.347656 99.433594 18.398438 99.613281 18.363281 C 100.042969 18.269531 100.460938 17.882812 100.5625 17.441406 C 100.578125 17.28125 100.804688 17.402344 100.890625 17.308594 C 101.1875 17.070312 101.292969 16.710938 101.515625 16.421875 C 101.582031 16.3125 101.589844 16.144531 101.546875 16.027344 C 101.496094 15.921875 101.386719 15.832031 101.285156 15.796875 C 100.859375 15.675781 100.355469 15.742188 99.90625 15.695312 L 99.808594 15.597656 C 99.714844 15.511719 99.601562 15.535156 99.480469 15.5 L 99.742188 15.300781 C 100.292969 15.316406 100.867188 15.28125 101.382812 15.171875 C 101.789062 15.074219 102.210938 15.019531 102.660156 15.039062 C 103.203125 15.074219 103.78125 15.125 104.335938 15.003906 C 104.460938 15.527344 104.46875 16.003906 104.859375 16.421875 C 105.140625 16.777344 105.535156 16.933594 105.875 17.179688 C 106.230469 17.351562 106.691406 17.230469 107.058594 17.144531 C 107.878906 17.128906 108.503906 17.582031 109.121094 18.066406 C 109.417969 18.261719 109.851562 18.195312 110.140625 18.035156 C 110.265625 18.210938 110.390625 18.382812 110.566406 18.527344 C 110.957031 18.886719 111.542969 18.734375 112.042969 18.757812 C 112.09375 18.835938 112.1875 18.882812 112.273438 18.890625 L 113.191406 18.59375 L 113.289062 18.496094 C 113.449219 18.257812 113.273438 18.011719 113.191406 17.804688 C 113.140625 17.625 113.148438 17.433594 113.089844 17.246094 C 113.007812 16.964844 112.722656 16.789062 112.46875 16.683594 C 112.460938 16.566406 112.414062 16.472656 112.335938 16.386719 C 112.046875 16.167969 111.757812 15.925781 111.453125 15.730469 C 111.128906 15.664062 110.917969 15.921875 110.695312 16.125 C 110.613281 16.148438 110.585938 16.011719 110.535156 15.960938 C 110.414062 15.644531 110.324219 15.289062 110.171875 14.972656 C 110.003906 14.632812 109.652344 14.652344 109.320312 14.644531 C 109.175781 14.644531 109.019531 14.632812 108.925781 14.511719 C 108.910156 14.273438 109.03125 14.058594 109.058594 13.851562 C 109.144531 13.46875 109.160156 12.984375 109.089844 12.636719 C 109.25 12.636719 109.378906 12.691406 109.550781 12.699219 C 110 12.707031 110.421875 12.609375 110.796875 12.40625 C 111.429688 12.019531 111.894531 11.398438 111.910156 10.660156 C 111.882812 10.257812 111.785156 9.945312 111.617188 9.605469 C 111.320312 9.019531 110.832031 8.492188 110.304688 8.058594 C 110.644531 7.988281 110.960938 7.914062 111.253906 7.730469 C 111.882812 7.328125 112.035156 6.648438 111.945312 5.949219 C 111.910156 5.730469 111.882812 5.460938 111.679688 5.324219 C 111.433594 5.207031 111.382812 5.550781 111.222656 5.65625 C 110.941406 5.941406 110.519531 5.890625 110.171875 6.015625 C 109.546875 6.222656 108.777344 6.652344 108.597656 7.367188 C 108.496094 8.351562 109.464844 8.910156 110.042969 9.574219 C 110.320312 9.898438 110.59375 10.25 110.535156 10.691406 C 110.464844 10.878906 110.292969 11.035156 110.105469 11.121094 C 109.4375 11.359375 108.820312 10.976562 108.269531 10.660156 C 107.328125 10.003906 106.339844 9.339844 105.15625 9.210938 C 104.585938 9.101562 104.128906 8.710938 103.644531 8.386719 C 103.238281 8.148438 102.800781 8.003906 102.332031 7.925781 C 101.953125 7.875 101.714844 7.496094 101.382812 7.300781 C 100.910156 6.992188 100.402344 6.820312 99.839844 6.707031 C 99.648438 6.648438 99.402344 6.640625 99.25 6.476562 C 99.054688 6.25 98.867188 6.023438 98.628906 5.851562 C 98.144531 5.527344 97.574219 5.355469 96.953125 5.425781 C 96.648438 5.5 96.414062 5.699219 96.136719 5.886719 C 96.128906 5.890625 96.109375 5.878906 96.101562 5.886719 C 94.367188 3.464844 91.558594 1.867188 88.363281 1.867188 Z M 88.363281 1.867188 "/>
<path style=" stroke:none;fill-rule:nonzero;fill:rgb(65.490198%,66.274512%,67.450982%);fill-opacity:1;" d="M 43.265625 35.289062 L 40.640625 40.523438 L 50.449219 40.523438 L 53.070312 35.289062 Z M 50.449219 40.523438 L 47.332031 46.648438 L 57.136719 46.648438 L 60.253906 40.523438 Z M 47.332031 46.648438 L 37.523438 46.648438 L 34.410156 52.773438 L 44.214844 52.773438 Z M 44.214844 52.773438 L 41.101562 58.929688 L 50.90625 58.929688 L 54.023438 52.773438 Z M 41.101562 58.929688 L 31.292969 58.929688 L 28.636719 64.132812 L 38.441406 64.132812 Z M 31.292969 58.929688 L 34.410156 52.773438 L 24.601562 52.773438 L 21.488281 58.929688 Z M 24.601562 52.773438 L 27.71875 46.648438 L 17.910156 46.648438 L 14.796875 52.773438 Z M 14.796875 52.773438 L 4.988281 52.773438 L 1.875 58.929688 L 11.679688 58.929688 Z M 27.71875 46.648438 L 37.523438 46.648438 L 40.640625 40.523438 L 30.835938 40.523438 Z M 27.71875 46.648438 "/>
<path style=" stroke:none;fill-rule:nonzero;fill:rgb(65.490198%,66.274512%,67.450982%);fill-opacity:1;" d="M 160.730469 47.574219 L 132.136719 47.574219 L 132.136719 45.726562 L 161.667969 45.726562 Z M 160.730469 47.574219 "/>
<path style=" stroke:none;fill-rule:nonzero;fill:rgb(89.803922%,9.411765%,21.568628%);fill-opacity:1;" d="M 64.84375 5.6875 C 64.71875 5.882812 64.699219 6.109375 64.714844 6.347656 C 64.78125 6.882812 65.15625 7.378906 65.664062 7.5625 C 65.960938 7.691406 66.3125 7.597656 66.617188 7.664062 C 66.703125 7.699219 66.804688 7.765625 66.8125 7.859375 C 66.796875 7.945312 66.792969 8.03125 66.714844 8.089844 C 66.238281 8.488281 65.734375 8.882812 65.335938 9.375 C 64.914062 9.835938 64.855469 10.640625 65.074219 11.21875 C 65.320312 11.882812 65.988281 12.320312 66.648438 12.40625 C 67.132812 12.480469 67.585938 12.332031 68.027344 12.238281 C 68.085938 12.238281 68.101562 12.304688 68.125 12.339844 C 68.167969 12.730469 68.105469 13.101562 68.191406 13.457031 C 68.265625 13.789062 68.398438 14.023438 68.519531 14.347656 C 68.535156 14.457031 68.5 14.558594 68.421875 14.644531 C 68.175781 14.832031 67.9375 14.953125 67.667969 15.070312 L 67.011719 15.136719 L 66.878906 15.171875 C 66.632812 15.460938 66.605469 15.769531 66.453125 16.09375 C 66.25 16.433594 65.878906 16.585938 65.566406 16.785156 C 65.464844 16.945312 65.351562 17.117188 65.207031 17.246094 C 65.097656 17.347656 64.957031 17.390625 64.8125 17.410156 C 64.582031 17.675781 64.546875 18.039062 64.484375 18.398438 C 64.859375 18.429688 65.238281 18.636719 65.601562 18.429688 C 65.914062 18.285156 65.984375 17.902344 66.222656 17.671875 C 66.410156 17.46875 66.691406 17.597656 66.910156 17.640625 C 67.242188 17.65625 67.484375 17.421875 67.765625 17.308594 C 67.960938 17.183594 68.117188 16.976562 68.320312 16.847656 C 68.710938 16.664062 69.257812 16.773438 69.667969 16.847656 C 69.988281 16.933594 70.339844 16.878906 70.617188 16.75 C 70.878906 16.589844 71.109375 16.359375 71.40625 16.289062 C 71.667969 16.152344 71.785156 15.878906 71.898438 15.632812 C 71.980469 15.402344 72.207031 15.203125 72.191406 14.941406 C 72.125 14.878906 72.066406 14.765625 71.960938 14.773438 C 71.835938 14.953125 71.746094 15.132812 71.601562 15.300781 C 71.042969 16.070312 70.140625 16.222656 69.242188 16.222656 C 68.316406 16.191406 67.484375 16.488281 66.847656 17.210938 C 66.804688 17.238281 66.75 17.214844 66.714844 17.179688 C 66.691406 17.078125 66.773438 17.023438 66.8125 16.949219 C 67.382812 16.140625 68.273438 15.945312 69.207031 15.925781 C 69.71875 15.894531 70.1875 15.820312 70.617188 15.597656 C 71.101562 15.351562 71.429688 14.855469 71.636719 14.378906 C 71.742188 13.84375 71.796875 13.246094 71.929688 12.734375 C 71.945312 12.683594 72.019531 12.652344 72.0625 12.667969 C 72.113281 12.675781 72.160156 12.738281 72.160156 12.800781 C 72.066406 13.328125 72.023438 13.9375 72.226562 14.445312 C 72.632812 14.980469 73.347656 14.605469 73.898438 14.578125 C 74.472656 14.527344 74.988281 14.742188 75.539062 14.773438 C 75.808594 14.765625 76.113281 14.847656 76.324219 14.675781 C 76.382812 14.582031 76.308594 14.484375 76.292969 14.378906 C 76.273438 14.226562 76.179688 14.011719 76.324219 13.886719 C 76.367188 13.851562 76.421875 13.875 76.457031 13.917969 C 76.53125 14.132812 76.582031 14.359375 76.71875 14.542969 C 76.988281 14.894531 77.394531 15.171875 77.769531 15.367188 C 78.125 15.613281 78.398438 15.953125 78.425781 16.386719 C 78.425781 16.609375 78.234375 16.78125 78.0625 16.882812 C 77.773438 17.027344 77.449219 17.148438 77.113281 17.113281 C 76.664062 16.890625 76.554688 16.40625 76.257812 16.058594 C 76.105469 15.886719 75.863281 15.84375 75.636719 15.863281 C 75.390625 15.886719 75.167969 15.882812 74.949219 15.960938 C 74.886719 16.011719 74.875 16.113281 74.882812 16.191406 C 75.035156 16.472656 75.203125 16.734375 75.375 17.015625 C 75.570312 17.132812 75.828125 16.933594 75.996094 17.144531 C 76.140625 17.367188 76.234375 17.632812 76.457031 17.804688 C 76.667969 17.992188 76.996094 18.085938 77.277344 17.96875 C 77.902344 17.773438 78.527344 17.558594 79.113281 17.246094 L 79.308594 17.246094 C 79.546875 17.21875 79.796875 17.226562 79.964844 17.046875 C 80.152344 16.777344 80.3125 16.546875 80.457031 16.257812 C 80.601562 16.0625 80.515625 15.746094 80.457031 15.53125 C 80.167969 15.175781 80.019531 14.789062 79.867188 14.378906 C 79.722656 14.335938 79.601562 14.242188 79.441406 14.25 C 79.367188 14.28125 79.253906 14.261719 79.210938 14.347656 L 79.867188 15.695312 C 79.910156 15.796875 79.960938 15.921875 79.933594 16.058594 C 79.839844 16.339844 79.703125 16.613281 79.472656 16.816406 C 79.429688 16.84375 79.375 16.875 79.34375 16.816406 C 79.417969 16.527344 79.554688 16.226562 79.539062 15.894531 L 78.882812 14.710938 C 78.808594 14.546875 78.679688 14.402344 78.6875 14.214844 C 78.6875 14.132812 78.78125 14.050781 78.851562 14.019531 C 79.136719 13.925781 79.480469 13.953125 79.703125 13.722656 C 79.992188 13.269531 80.152344 12.839844 80.226562 12.304688 C 80.246094 12.269531 80.242188 12.207031 80.292969 12.207031 C 80.347656 12.191406 80.367188 12.246094 80.390625 12.273438 C 80.476562 12.859375 80.339844 13.460938 80 13.917969 C 79.980469 13.976562 79.964844 14.039062 80.03125 14.082031 C 80.355469 14.183594 80.710938 14.097656 80.980469 13.953125 C 81.328125 13.960938 81.652344 13.871094 81.964844 13.820312 C 82 13.835938 82.03125 13.886719 82.03125 13.917969 C 81.820312 14.15625 81.699219 14.402344 81.636719 14.710938 C 81.382812 14.972656 81.007812 15.214844 80.980469 15.597656 C 81.023438 15.785156 81.199219 15.613281 81.308594 15.632812 C 81.363281 15.640625 81.375 15.679688 81.375 15.730469 L 81.144531 16.09375 C 81.011719 16.3125 81.144531 16.570312 81.144531 16.785156 C 81.207031 16.953125 81.429688 17.046875 81.605469 17.046875 C 81.988281 17.03125 82.316406 16.871094 82.65625 16.75 C 83.027344 16.589844 83.492188 16.617188 83.902344 16.683594 C 84.296875 16.660156 84.589844 16.386719 84.886719 16.125 C 85.046875 16.125 85.203125 16.234375 85.3125 16.355469 C 85.769531 16.847656 86.351562 17.066406 87.082031 17.015625 C 87.125 16.972656 87.101562 16.882812 87.050781 16.847656 L 86.65625 16.652344 C 86.375 16.472656 86.027344 16.242188 85.933594 15.925781 C 85.851562 15.648438 85.710938 15.3125 85.542969 15.039062 C 85.480469 14.902344 85.34375 14.8125 85.34375 14.644531 C 85.785156 14.796875 86.058594 15.238281 86.261719 15.632812 C 86.585938 16.082031 87.042969 16.433594 87.707031 16.289062 C 87.730469 16.253906 87.722656 16.214844 87.707031 16.191406 L 87.410156 16.058594 C 86.902344 15.761719 86.675781 15.183594 86.359375 14.742188 C 86.25 14.582031 86.070312 14.476562 85.96875 14.3125 C 85.605469 13.320312 85.273438 12.324219 85.179688 11.1875 C 85.105469 10.902344 85.070312 10.625 84.917969 10.363281 C 84.460938 9.613281 83.855469 8.914062 83.277344 8.222656 C 83.226562 8.171875 83.140625 8.160156 83.113281 8.089844 L 81.113281 6.410156 C 80.867188 6.226562 80.574219 6.078125 80.292969 5.949219 C 79.871094 5.789062 79.296875 5.839844 78.882812 6.015625 C 78.449219 6.246094 78.0625 6.589844 77.605469 6.742188 C 76.941406 7.039062 76.203125 7.085938 75.636719 7.597656 C 75.304688 7.886719 75.011719 8.332031 74.519531 8.253906 C 73.96875 8.230469 73.492188 8.441406 73.078125 8.78125 C 72.707031 9.121094 72.347656 9.511719 71.863281 9.605469 C 71.441406 9.785156 70.917969 9.707031 70.488281 9.867188 C 69.800781 10.039062 69.265625 10.574219 68.683594 10.988281 C 68.097656 11.328125 67.542969 11.695312 66.8125 11.679688 C 66.339844 11.648438 65.882812 11.316406 65.730469 10.855469 C 65.585938 10.328125 65.742188 9.800781 66.15625 9.441406 C 66.589844 8.921875 67.261719 8.621094 67.601562 8.023438 C 67.777344 7.710938 67.773438 7.203125 67.535156 6.90625 C 67.085938 6.4375 66.414062 6.421875 65.828125 6.28125 C 65.457031 6.175781 65.175781 5.863281 64.84375 5.6875 Z M 97.085938 5.71875 C 96.832031 5.734375 96.625 5.914062 96.429688 6.082031 C 95.132812 7.222656 93.648438 8.007812 92.460938 9.308594 C 91.664062 10.132812 91.449219 11.195312 91.148438 12.207031 C 90.726562 13.738281 90.550781 15.410156 89.019531 16.355469 C 88.992188 16.398438 89 16.484375 89.050781 16.519531 C 89.457031 16.621094 89.863281 16.4375 90.132812 16.15625 C 90.398438 15.742188 90.664062 15.355469 91.019531 14.972656 L 91.117188 14.941406 C 91.160156 14.949219 91.199219 14.945312 91.183594 15.003906 C 91.082031 15.34375 90.792969 15.621094 90.691406 15.960938 C 90.554688 16.367188 90.144531 16.675781 89.804688 17.015625 C 89.804688 17.058594 89.863281 17.105469 89.902344 17.113281 C 90.648438 17.148438 91.171875 16.59375 91.675781 16.09375 C 91.722656 16.042969 91.804688 16.074219 91.871094 16.09375 C 92.089844 16.261719 92.273438 16.492188 92.558594 16.554688 C 92.867188 16.511719 93.191406 16.460938 93.511719 16.488281 C 93.960938 16.621094 94.40625 16.828125 94.855469 16.980469 C 95.085938 16.972656 95.261719 16.738281 95.378906 16.554688 C 95.476562 16.332031 95.332031 16.105469 95.347656 15.894531 C 95.457031 15.824219 95.589844 15.925781 95.707031 15.894531 C 95.757812 15.859375 95.808594 15.789062 95.808594 15.730469 C 95.722656 15.339844 95.359375 15.042969 95.25 14.675781 C 95.082031 14.207031 94.53125 13.925781 94.429688 13.425781 C 94.457031 13.390625 94.484375 13.359375 94.527344 13.390625 C 94.890625 13.65625 95.226562 14.015625 95.675781 14.082031 C 96.015625 14.117188 96.355469 14.144531 96.691406 14.117188 C 96.742188 14.101562 96.808594 14.042969 96.789062 13.984375 C 96.648438 13.679688 96.515625 13.363281 96.429688 13.03125 C 96.3125 12.613281 96.195312 12.039062 96.332031 11.582031 C 96.355469 11.546875 96.410156 11.464844 96.464844 11.484375 C 96.53125 11.5 96.585938 11.585938 96.59375 11.648438 C 96.644531 12.371094 96.652344 13.050781 97.085938 13.621094 C 97.273438 13.921875 97.609375 13.953125 97.839844 14.183594 C 97.925781 14.300781 97.933594 14.507812 97.875 14.644531 L 97.347656 15.402344 C 97.230469 15.570312 97.128906 15.773438 97.085938 15.960938 C 97.042969 16.175781 97.070312 16.382812 97.085938 16.585938 C 97.050781 16.601562 97.023438 16.539062 96.988281 16.519531 C 96.851562 16.238281 96.710938 15.898438 96.855469 15.566406 L 97.511719 14.542969 L 97.546875 14.480469 C 97.402344 14.402344 97.238281 14.316406 97.085938 14.28125 C 97.011719 14.316406 96.9375 14.378906 96.890625 14.445312 L 96.265625 15.632812 C 96.222656 15.765625 96.167969 15.847656 96.199219 15.992188 C 96.234375 16.164062 96.289062 16.34375 96.363281 16.488281 C 96.414062 16.726562 96.453125 16.902344 96.5625 17.113281 C 96.722656 17.292969 96.949219 17.128906 97.152344 17.179688 C 97.355469 17.230469 97.4375 17.449219 97.644531 17.507812 C 98.101562 17.660156 98.597656 17.757812 99.054688 17.9375 C 99.292969 18.011719 99.628906 18.097656 99.839844 17.902344 C 100.136719 17.742188 100.214844 17.445312 100.265625 17.144531 C 100.359375 17.019531 100.523438 17.054688 100.660156 17.015625 C 100.914062 16.84375 101 16.550781 101.1875 16.324219 L 101.21875 16.191406 C 101.195312 16.113281 101.121094 16.085938 101.054688 16.058594 L 100.203125 16.058594 C 99.804688 16.109375 99.78125 16.542969 99.613281 16.816406 C 99.515625 16.988281 99.316406 17.0625 99.121094 17.046875 C 98.714844 16.9375 98.222656 16.863281 98.039062 16.421875 C 98.011719 16.3125 98.019531 16.167969 98.101562 16.09375 C 98.3125 15.847656 98.5625 15.570312 98.824219 15.367188 C 99.195312 15.289062 99.546875 15.007812 99.742188 14.675781 C 99.84375 14.53125 99.835938 14.324219 100.003906 14.214844 C 100.054688 14.207031 100.101562 14.195312 100.136719 14.25 C 100.214844 14.496094 100.082031 14.726562 100.003906 14.941406 C 100.929688 15.035156 101.699219 14.675781 102.597656 14.710938 C 102.976562 14.710938 103.335938 14.800781 103.710938 14.773438 C 104.082031 14.757812 104.480469 14.609375 104.597656 14.214844 C 104.765625 13.714844 104.648438 13.144531 104.5625 12.667969 L 104.597656 12.570312 C 104.65625 12.535156 104.71875 12.601562 104.761719 12.636719 C 104.921875 13.085938 105.019531 13.625 105.089844 14.117188 C 105.15625 14.550781 105.34375 14.9375 105.582031 15.300781 C 106.011719 15.949219 106.792969 16.1875 107.546875 16.027344 C 108.464844 15.957031 109.25 16.355469 109.8125 17.113281 C 109.792969 17.148438 109.753906 17.1875 109.714844 17.179688 C 109.230469 16.804688 108.726562 16.398438 108.105469 16.324219 C 107.453125 16.203125 106.878906 16.503906 106.269531 16.257812 C 105.601562 16.035156 105.089844 15.355469 104.828125 14.742188 L 104.761719 14.742188 C 104.710938 14.75 104.671875 14.824219 104.664062 14.875 L 104.761719 15.402344 C 104.859375 15.824219 104.992188 16.324219 105.449219 16.519531 C 105.804688 16.734375 106.15625 17.035156 106.597656 16.914062 C 107.367188 16.746094 108.136719 16.976562 108.730469 17.410156 C 108.921875 17.519531 109.074219 17.695312 109.285156 17.769531 C 109.515625 17.863281 109.820312 17.828125 110.007812 17.671875 C 110.441406 17.527344 110.53125 18.070312 110.828125 18.265625 C 111.089844 18.519531 111.539062 18.4375 111.945312 18.398438 C 111.902344 18.046875 111.816406 17.746094 111.679688 17.441406 C 111.25 17.46875 111.046875 17.023438 110.796875 16.75 C 110.582031 16.503906 110.164062 16.359375 110.171875 15.992188 C 110.097656 15.847656 110.078125 15.621094 110.007812 15.433594 C 109.949219 15.28125 109.882812 15.039062 109.679688 15.003906 C 109.316406 14.945312 108.859375 15.050781 108.632812 14.710938 C 108.394531 14.453125 108.6875 14.164062 108.730469 13.917969 C 108.832031 13.605469 108.8125 13.1875 108.761719 12.867188 C 108.753906 12.679688 108.628906 12.527344 108.664062 12.339844 C 108.75 12.175781 108.960938 12.289062 109.089844 12.304688 C 109.566406 12.441406 110.132812 12.359375 110.566406 12.175781 C 111.160156 11.886719 111.609375 11.28125 111.582031 10.59375 C 111.496094 9.699219 110.859375 8.964844 110.171875 8.386719 C 110.046875 8.277344 109.886719 8.1875 109.84375 8.023438 C 109.828125 7.675781 110.242188 7.847656 110.433594 7.761719 C 110.671875 7.703125 110.894531 7.632812 111.089844 7.5 C 111.609375 7.148438 111.71875 6.511719 111.617188 5.917969 C 111.601562 5.867188 111.59375 5.820312 111.515625 5.820312 C 111.421875 5.898438 111.339844 5.980469 111.222656 6.050781 C 110.890625 6.246094 110.453125 6.207031 110.105469 6.378906 C 109.675781 6.566406 109.144531 6.839844 108.957031 7.332031 C 108.910156 7.578125 108.945312 7.855469 109.058594 8.058594 C 109.582031 8.890625 110.714844 9.425781 110.894531 10.429688 C 110.960938 10.835938 110.75 11.121094 110.433594 11.351562 C 109.960938 11.640625 109.234375 11.539062 108.761719 11.285156 C 107.847656 10.824219 107.054688 10.054688 106.074219 9.738281 C 105.453125 9.457031 104.6875 9.546875 104.136719 9.113281 C 103.722656 8.839844 103.359375 8.472656 102.890625 8.355469 C 102.570312 8.242188 102.203125 8.253906 101.90625 8.089844 C 101.601562 7.820312 101.277344 7.578125 100.921875 7.398438 C 100.429688 7.152344 99.890625 7.027344 99.347656 6.90625 C 99.027344 6.828125 98.890625 6.457031 98.628906 6.28125 C 98.175781 5.921875 97.699219 5.667969 97.085938 5.71875 Z M 77.539062 15.695312 C 77.265625 15.738281 76.988281 15.761719 76.71875 15.761719 L 76.621094 15.828125 C 76.570312 15.988281 76.808594 15.980469 76.851562 16.125 C 77.019531 16.3125 77.015625 16.605469 77.210938 16.75 C 77.464844 16.792969 77.703125 16.671875 77.898438 16.519531 C 78.007812 16.425781 77.851562 16.300781 77.832031 16.191406 C 77.722656 16.027344 77.808594 15.703125 77.539062 15.695312 Z M 99.414062 15.863281 C 99.1875 15.90625 98.921875 15.859375 98.691406 15.894531 C 98.59375 16.046875 98.503906 16.21875 98.527344 16.421875 C 98.554688 16.636719 98.804688 16.65625 98.957031 16.71875 C 99.101562 16.734375 99.304688 16.804688 99.382812 16.652344 C 99.464844 16.429688 99.542969 16.164062 99.578125 15.925781 C 99.5625 15.859375 99.484375 15.84375 99.414062 15.863281 Z M 65.171875 16.058594 C 65.140625 16.0625 65.105469 16.082031 65.074219 16.09375 C 64.886719 16.253906 64.6875 16.359375 64.484375 16.488281 C 64.398438 16.546875 64.4375 16.691406 64.417969 16.785156 C 64.417969 16.871094 64.53125 16.929688 64.582031 16.980469 C 64.675781 17.023438 64.777344 17.015625 64.878906 16.980469 C 65.140625 16.828125 65.332031 16.539062 65.46875 16.289062 C 65.445312 16.195312 65.347656 16.160156 65.273438 16.09375 C 65.246094 16.070312 65.207031 16.054688 65.171875 16.058594 Z M 111.320312 16.09375 C 111.195312 16.097656 111.089844 16.226562 111.023438 16.324219 C 111.085938 16.527344 111.261719 16.695312 111.386719 16.882812 C 111.453125 16.984375 111.5625 17.039062 111.679688 17.046875 C 111.800781 17.046875 111.890625 17.015625 111.976562 16.949219 C 112.035156 16.871094 112.101562 16.761719 112.074219 16.652344 C 111.914062 16.429688 111.652344 16.296875 111.453125 16.125 C 111.410156 16.089844 111.363281 16.089844 111.320312 16.09375 Z M 63.992188 17.015625 C 63.859375 17.082031 63.730469 17.222656 63.699219 17.375 C 63.65625 17.648438 63.714844 17.90625 63.5 18.101562 C 63.492188 18.152344 63.449219 18.214844 63.5 18.265625 C 63.6875 18.324219 63.863281 18.40625 64.089844 18.429688 C 64.195312 18.097656 64.269531 17.730469 64.386719 17.441406 L 64.386719 17.34375 C 64.285156 17.21875 64.164062 17.046875 63.992188 17.015625 Z M 112.371094 17.078125 C 112.25 17.179688 112.046875 17.296875 112.074219 17.476562 C 112.175781 17.78125 112.246094 17.984375 112.304688 18.296875 C 112.339844 18.359375 112.308594 18.496094 112.402344 18.496094 L 112.960938 18.296875 C 113.054688 18.144531 112.863281 18.046875 112.828125 17.902344 C 112.785156 17.707031 112.824219 17.421875 112.699219 17.246094 C 112.585938 17.160156 112.515625 17.046875 112.371094 17.078125 Z M 83.769531 23.960938 L 83.769531 30.613281 C 83.066406 29.914062 82.105469 29.460938 81.082031 29.460938 C 78.886719 29.460938 77.113281 31.429688 77.113281 33.839844 C 77.113281 36.25 78.886719 38.1875 81.082031 38.1875 C 82.117188 38.1875 83.0625 37.75 83.769531 37.035156 L 83.769531 37.957031 L 86.425781 37.957031 L 86.425781 23.960938 Z M 110.632812 23.960938 L 110.632812 37.988281 L 113.289062 37.988281 L 113.289062 23.960938 Z M 115.125 23.960938 L 115.125 37.988281 L 117.78125 37.988281 L 117.78125 23.960938 Z M 57.792969 24.621094 L 57.792969 37.957031 L 60.613281 37.957031 L 60.613281 26.890625 L 62.058594 26.925781 C 63.101562 26.925781 63.894531 27.707031 63.894531 28.671875 C 63.894531 29.636719 63.035156 30.414062 61.992188 30.414062 L 61.335938 30.382812 L 61.335938 33.609375 L 64.15625 37.957031 L 67.503906 37.957031 L 63.597656 32.390625 C 65.347656 31.96875 66.648438 30.425781 66.648438 28.570312 C 66.648438 26.394531 64.859375 24.621094 62.648438 24.621094 Z M 90.035156 24.6875 L 90.035156 37.988281 L 95.90625 37.957031 C 98.152344 37.917969 99.972656 36.226562 99.972656 34.136719 C 99.972656 32.617188 99.433594 31.546875 97.644531 30.710938 C 98.371094 30.03125 98.824219 29.113281 98.824219 28.109375 C 98.824219 27.203125 98.484375 26.363281 97.875 25.707031 C 97.238281 25.007812 96.109375 24.71875 94.59375 24.71875 Z M 92.886719 26.992188 L 94.660156 26.992188 C 95.4375 26.992188 96.070312 27.625 96.070312 28.40625 C 96.070312 29.1875 95.4375 29.824219 94.660156 29.824219 L 93.742188 29.824219 L 93.742188 32.226562 L 95.414062 32.226562 C 96.355469 32.226562 97.085938 32.988281 97.085938 33.9375 C 97.050781 34.917969 96.4375 35.585938 95.414062 35.652344 L 92.886719 35.652344 Z M 71.570312 29.363281 C 69.144531 29.363281 67.207031 31.34375 67.207031 33.808594 C 67.207031 36.269531 69.144531 38.285156 71.570312 38.285156 C 73.421875 38.285156 74.890625 37.429688 75.636719 36.113281 L 73.472656 35.125 C 73.195312 35.71875 72.546875 36.113281 71.800781 36.113281 C 70.800781 36.113281 69.996094 35.382812 69.996094 34.464844 C 69.996094 34.40625 69.957031 34.425781 69.960938 34.367188 L 75.832031 34.367188 C 75.851562 34.183594 75.867188 33.996094 75.867188 33.808594 C 75.90625 30.921875 73.992188 29.363281 71.570312 29.363281 Z M 100.890625 29.824219 L 100.890625 35.125 C 100.890625 36.925781 102.734375 38.382812 105.023438 38.382812 C 107.3125 38.382812 109.1875 36.925781 109.1875 35.125 L 109.1875 29.824219 L 106.566406 29.824219 L 106.566406 34.628906 C 106.566406 35.429688 105.894531 36.078125 105.054688 36.078125 C 104.21875 36.078125 103.515625 35.429688 103.515625 34.628906 L 103.546875 29.824219 Z M 71.601562 31.207031 C 72.496094 31.207031 73.242188 31.953125 73.242188 32.851562 L 69.996094 32.851562 C 69.996094 31.953125 70.703125 31.207031 71.601562 31.207031 Z M 81.835938 31.632812 C 82.910156 31.632812 83.804688 32.589844 83.804688 33.773438 C 83.804688 34.957031 82.910156 35.914062 81.835938 35.914062 C 80.757812 35.914062 79.898438 34.957031 79.898438 33.773438 C 79.898438 32.589844 80.757812 31.632812 81.835938 31.632812 Z M 132.148438 40.523438 L 132.148438 42.367188 L 167.175781 42.367188 L 168.125 40.523438 C 152.457031 40.523438 132.148438 40.523438 132.148438 40.523438 Z M 132.148438 40.523438 "/>
<path style=" stroke:none;fill-rule:nonzero;fill:rgb(0%,18.431373%,39.215687%);fill-opacity:1;" d="M 94.265625 40.523438 L 94.265625 42.367188 L 96.691406 42.367188 L 96.691406 40.523438 Z M 48.773438 42.367188 C 48.515625 42.386719 48.246094 42.414062 48.019531 42.5 C 46.929688 42.882812 46.253906 44.039062 46.152344 45.132812 L 46.152344 48.953125 L 48.511719 48.953125 L 48.511719 45.628906 C 48.566406 45 49.089844 44.367188 49.691406 44.210938 L 58.351562 44.210938 L 59.304688 42.367188 Z M 63.007812 42.367188 C 62.136719 42.386719 61.46875 43.066406 61.105469 43.847656 C 60.664062 44.734375 60.679688 46.019531 60.910156 46.976562 C 61.15625 47.863281 61.839844 48.796875 62.746094 48.953125 L 69.960938 48.953125 C 70.878906 48.988281 71.828125 48.835938 72.488281 48.261719 C 72.835938 48.644531 73.410156 48.890625 73.929688 48.953125 C 74.417969 49.011719 74.949219 49.019531 75.339844 48.953125 C 75.683594 48.894531 75.628906 48.808594 75.441406 48.589844 C 75.164062 48.277344 74.789062 47.9375 74.71875 47.503906 C 74.613281 46.546875 74.714844 45.265625 74.488281 44.34375 C 74.210938 43.335938 73.570312 42.402344 72.355469 42.402344 Z M 80.03125 42.367188 C 77.949219 42.367188 77.40625 45.460938 77.898438 47.074219 C 78.121094 47.800781 78.898438 48.953125 79.703125 48.953125 L 90.625 48.953125 L 90.625 47.140625 C 90.625 47.140625 81.050781 47.199219 80.71875 47.074219 C 79.71875 46.707031 79.894531 44.210938 80.851562 44.210938 L 90.625 44.210938 L 90.625 42.367188 Z M 102.660156 42.367188 C 101.390625 42.363281 100.308594 43.886719 100.300781 45.066406 L 100.300781 48.953125 L 102.726562 48.953125 L 102.726562 45.59375 C 102.726562 45.179688 103.070312 44.210938 103.578125 44.210938 L 110.042969 44.210938 C 110.558594 44.210938 110.992188 45.003906 110.992188 45.460938 L 110.992188 48.953125 L 113.417969 48.953125 L 113.417969 45.398438 C 113.417969 44.96875 113.359375 44.585938 113.222656 44.179688 C 112.972656 43.425781 112.121094 42.371094 111.253906 42.367188 Z M 118.503906 42.367188 C 118.25 42.367188 117.96875 42.4375 117.75 42.566406 C 116.398438 43.335938 116.101562 45.210938 116.339844 46.613281 C 116.480469 47.4375 117.300781 48.953125 118.273438 48.953125 C 121.335938 48.960938 127.0625 48.953125 127.0625 48.953125 C 127.0625 50.066406 127.253906 50.960938 126.078125 50.960938 L 15.714844 50.960938 L 14.796875 52.773438 L 126.703125 52.773438 C 128.410156 52.773438 129.425781 51.828125 129.425781 50.074219 L 129.425781 46.613281 C 129.425781 45.820312 129.496094 44.914062 129.261719 44.144531 C 129.039062 43.425781 128.179688 42.402344 127.359375 42.402344 Z M 63.863281 44.210938 L 71.308594 44.210938 C 72.035156 44.210938 72.570312 45.832031 71.898438 46.449219 C 71.285156 47.015625 70.738281 47.109375 70.0625 47.109375 L 63.863281 47.109375 C 62.800781 47.109375 62.738281 44.210938 63.863281 44.210938 Z M 94.265625 44.210938 L 94.265625 48.953125 L 96.691406 48.953125 L 96.691406 44.210938 Z M 119.289062 44.210938 L 126.242188 44.210938 C 127.214844 44.210938 127.0625 46.273438 127.0625 47.109375 L 119.289062 47.109375 C 118.492188 47.109375 118.207031 45.191406 118.960938 44.410156 C 119.027344 44.339844 119.191406 44.210938 119.289062 44.210938 Z M 132.148438 50.960938 L 132.148438 52.773438 L 154.253906 52.773438 L 155.203125 50.960938 Z M 62.714844 55.605469 C 61.800781 55.605469 60.941406 56.28125 60.941406 57.25 C 60.941406 58.289062 61.695312 59.027344 62.714844 59.027344 C 63.734375 59.027344 64.484375 58.289062 64.484375 57.25 C 64.484375 56.28125 63.628906 55.605469 62.714844 55.605469 Z M 90.035156 55.605469 C 89.121094 55.605469 88.296875 56.28125 88.296875 57.25 C 88.296875 58.289062 89.015625 59.027344 90.035156 59.027344 C 91.054688 59.027344 91.804688 58.289062 91.804688 57.25 C 91.804688 56.28125 90.949219 55.605469 90.035156 55.605469 Z M 57.792969 55.703125 L 57.792969 58.929688 L 58.613281 58.929688 L 58.613281 57.644531 L 59.53125 57.644531 L 59.53125 56.953125 L 58.613281 56.953125 L 58.613281 56.425781 L 59.597656 56.425781 L 59.597656 55.703125 Z M 65.894531 55.703125 L 65.894531 58.929688 L 66.714844 58.929688 L 66.714844 57.679688 L 67.503906 58.929688 L 68.550781 58.929688 L 67.535156 57.613281 C 67.984375 57.53125 68.222656 57.132812 68.222656 56.691406 C 68.222656 56.003906 67.769531 55.703125 67.140625 55.703125 Z M 70.160156 55.703125 L 69.632812 58.929688 L 70.453125 58.929688 L 70.714844 57.054688 L 71.4375 58.929688 L 71.765625 58.929688 L 72.554688 57.054688 L 72.78125 58.929688 L 73.601562 58.929688 L 73.109375 55.703125 L 72.289062 55.703125 L 71.636719 57.414062 L 70.980469 55.703125 Z M 74.980469 55.703125 L 74.980469 57.515625 C 74.980469 57.925781 74.992188 58.324219 75.308594 58.632812 C 75.574219 58.898438 75.988281 58.996094 76.359375 58.996094 C 76.730469 58.996094 77.171875 58.898438 77.441406 58.632812 C 77.757812 58.324219 77.769531 57.925781 77.769531 57.515625 L 77.769531 55.703125 L 76.949219 55.703125 L 76.949219 57.382812 C 76.949219 57.796875 76.886719 58.269531 76.359375 58.269531 C 75.828125 58.269531 75.800781 57.796875 75.800781 57.382812 L 75.800781 55.703125 Z M 79.34375 55.703125 L 79.34375 58.929688 L 81.144531 58.929688 L 81.144531 58.207031 L 80.164062 58.207031 L 80.164062 55.703125 Z M 83.410156 55.703125 L 82.164062 58.929688 L 83.046875 58.929688 L 83.277344 58.371094 L 84.394531 58.371094 L 84.621094 58.929688 L 85.507812 58.929688 L 84.292969 55.703125 Z M 93.214844 55.703125 L 93.214844 58.929688 L 94.070312 58.929688 L 94.070312 56.953125 L 95.578125 58.929688 L 96.398438 58.929688 L 96.398438 55.703125 L 95.578125 55.703125 L 95.578125 57.679688 L 94.070312 55.703125 Z M 98.003906 55.703125 L 98.003906 58.929688 L 99.808594 58.929688 L 99.808594 58.207031 L 98.824219 58.207031 L 98.824219 57.644531 L 99.742188 57.644531 L 99.742188 56.953125 L 98.824219 56.953125 L 98.824219 56.425781 L 99.808594 56.425781 L 99.808594 55.703125 Z M 102.761719 55.703125 L 102.761719 56.425781 L 103.449219 56.425781 L 103.449219 58.929688 L 104.269531 58.929688 L 104.269531 56.425781 L 104.957031 56.425781 L 104.957031 55.703125 Z M 106.300781 55.703125 L 106.300781 58.929688 L 108.105469 58.929688 L 108.105469 58.207031 L 107.121094 58.207031 L 107.121094 57.644531 L 108.039062 57.644531 L 108.039062 56.953125 L 107.121094 56.953125 L 107.121094 56.425781 L 108.105469 56.425781 L 108.105469 55.703125 Z M 110.597656 55.703125 L 109.386719 58.929688 L 110.238281 58.929688 L 110.46875 58.371094 L 111.617188 58.371094 L 111.8125 58.929688 L 112.699219 58.929688 L 111.484375 55.703125 Z M 114.335938 55.703125 L 113.8125 58.929688 L 114.632812 58.929688 L 114.894531 57.054688 L 115.617188 58.929688 L 115.945312 58.929688 L 116.730469 57.054688 L 116.960938 58.929688 L 117.78125 58.929688 L 117.324219 55.703125 L 116.503906 55.703125 L 115.8125 57.414062 L 115.15625 55.703125 Z M 66.714844 56.363281 L 66.8125 56.363281 C 67.082031 56.363281 67.371094 56.40625 67.371094 56.757812 C 67.371094 57.105469 67.082031 57.152344 66.8125 57.152344 L 66.714844 57.152344 Z M 62.714844 56.394531 C 63.207031 56.394531 63.597656 56.808594 63.597656 57.25 C 63.597656 57.800781 63.207031 58.207031 62.714844 58.207031 C 62.21875 58.207031 61.828125 57.800781 61.828125 57.25 C 61.828125 56.808594 62.21875 56.394531 62.714844 56.394531 Z M 90.035156 56.394531 C 90.527344 56.394531 90.953125 56.808594 90.953125 57.25 C 90.953125 57.800781 90.527344 58.207031 90.035156 58.207031 C 89.542969 58.207031 89.148438 57.800781 89.148438 57.25 C 89.148438 56.808594 89.542969 56.394531 90.035156 56.394531 Z M 83.835938 56.691406 L 84.195312 57.710938 L 83.507812 57.710938 Z M 111.023438 56.691406 L 111.386719 57.710938 L 110.695312 57.710938 Z M 111.023438 56.691406 "/>
</g>
</svg>
