<?xml version="1.0" encoding="UTF-8"?>
<svg xmlns="http://www.w3.org/2000/svg" xmlns:xlink="http://www.w3.org/1999/xlink" width="170px" height="px" viewBox="0 0 170 226" version="1.1">
<g id="surface1">
<path style=" stroke:none;fill-rule:nonzero;fill:rgb(13.725491%,12.156863%,12.54902%);fill-opacity:1;" d="M 84.996094 23.015625 C 34.421875 23.015625 4.242188 40.851562 4.242188 40.851562 L 4.855469 81.457031 C 4.855469 100.097656 10.964844 179.414062 84.996094 222.59375 C 159.066406 179.414062 165.136719 100.125 165.136719 81.453125 L 165.75 40.847656 C 165.75 40.851562 135.59375 23.015625 84.996094 23.015625 "/>
<path style=" stroke:none;fill-rule:nonzero;fill:rgb(100%,94.901961%,0%);fill-opacity:1;" d="M 162.710938 43.765625 C 162.710938 43.765625 136.40625 27.054688 84.996094 27.054688 C 33.59375 27.054688 7.285156 43.765625 7.285156 43.765625 L 8.09375 81.457031 C 8.09375 96.222656 10.925781 175.328125 84.996094 218.261719 C 159.066406 175.335938 161.898438 96.226562 161.898438 81.457031 L 162.710938 43.765625 "/>
<path style=" stroke:none;fill-rule:nonzero;fill:rgb(92.941177%,10.980392%,14.117648%);fill-opacity:1;" d="M 165.953125 27.617188 L 84.996094 13.898438 L 4.046875 27.617188 L 4.25 41.164062 C 4.25 41.164062 44.929688 23.558594 84.996094 23.5625 C 125.066406 23.5625 165.746094 41.164062 165.746094 41.164062 L 165.953125 27.617188 "/>
<path style=" stroke:none;fill-rule:nonzero;fill:rgb(0%,60.392159%,30.588236%);fill-opacity:1;" d="M 4.046875 23.582031 L 4.046875 18.742188 L 85.003906 3.40625 L 165.953125 18.742188 L 165.953125 23.585938 L 84.996094 8.652344 L 4.046875 23.582031 "/>
<path style=" stroke:none;fill-rule:nonzero;fill:rgb(13.725491%,12.156863%,12.54902%);fill-opacity:1;" d="M 83.171875 33.304688 C 83.171875 33.304688 83.085938 34.179688 82.878906 34.691406 C 82.691406 35.15625 82.175781 35.480469 82.210938 35.792969 C 82.246094 36.109375 82.582031 36.476562 83.089844 36.742188 C 83.597656 37 83.804688 37.203125 84.320312 37.335938 C 84.796875 37.449219 85.40625 37.808594 85.582031 37.402344 C 85.757812 37 85.492188 36.5 85.199219 36.019531 C 84.691406 35.195312 84.4375 34.996094 83.6875 33.847656 C 83.527344 33.605469 83.398438 33.335938 83.171875 33.304688 M 79.378906 123.027344 C 79.429688 122.882812 80.632812 123.632812 81.253906 124 C 82.5625 124.78125 83.15625 125.242188 84.3125 126.117188 C 85.222656 126.804688 85.667969 127.164062 86.59375 127.960938 C 87.726562 128.929688 88.335938 129.757812 88.640625 129.5625 C 89.074219 129.035156 87.917969 127.496094 86.890625 126.660156 C 85.890625 125.847656 84.863281 125.179688 84.058594 124.644531 C 83.035156 123.976562 82.945312 123.816406 81.410156 122.789062 C 79.765625 121.691406 78.34375 120.3125 78.34375 120.3125 L 76.738281 119.050781 L 74.226562 116.9375 L 71.441406 114.371094 L 69.332031 112.035156 C 69.332031 112.035156 67.691406 110.035156 67.433594 109.65625 C 67.171875 109.273438 66.402344 108.035156 65.761719 106.988281 C 65.191406 106.050781 64.089844 104.59375 63.984375 104.46875 C 63.390625 103.746094 62.027344 104.039062 60.449219 103.109375 C 58.527344 101.980469 58.066406 100.949219 58.066406 100.949219 C 58.066406 100.949219 57.992188 100.796875 57.921875 100.714844 C 57.851562 100.625 57.703125 100.53125 57.703125 100.53125 L 56.703125 99.824219 L 56.125 99.445312 C 56.125 99.445312 55.683594 99.085938 55.132812 98.847656 C 54.585938 98.609375 53.355469 97.898438 53.355469 97.898438 L 51.15625 96.5 C 51.15625 96.5 50.296875 95.808594 50.011719 95.582031 C 49.722656 95.359375 49.179688 95.050781 49.179688 95.050781 C 49.179688 95.050781 48.835938 94.875 48.730469 94.871094 C 48.625 94.863281 48.171875 94.816406 48.171875 94.816406 C 48.171875 94.816406 47.75 94.710938 47.320312 95.214844 C 46.886719 95.71875 46.988281 95.449219 47.691406 98.292969 C 47.964844 99.421875 47.9375 103.375 48.238281 104.574219 C 48.625 106.125 49.703125 108.125 49.816406 108.359375 C 49.929688 108.589844 50.003906 109.457031 50.003906 109.457031 C 50.003906 109.457031 49.957031 110.15625 50.035156 110.597656 C 50.367188 112.636719 53.363281 111.296875 54.023438 114.09375 C 54.675781 116.859375 53.636719 119.621094 53.636719 119.621094 C 53.636719 119.621094 52.988281 120.988281 52.082031 121.207031 C 51.171875 121.421875 49.761719 119.417969 48.742188 117.792969 C 47.738281 116.195312 46.914062 114.101562 46.648438 113.4375 C 46.382812 112.773438 46.25 112.628906 45.945312 112.140625 C 45.492188 111.425781 45.125 111.550781 44.625 110.421875 C 44.121094 109.289062 44.566406 108.832031 44.339844 107.84375 C 44.210938 107.296875 44.089844 107.234375 43.917969 106.453125 C 43.75 105.671875 43.527344 103.191406 43.527344 103.191406 L 43.210938 100.878906 C 43.210938 100.878906 43.097656 99.824219 42.953125 99.164062 C 42.441406 96.851562 42.273438 94.617188 42.273438 94.617188 L 42.179688 93.703125 L 42.140625 92.753906 C 42.140625 92.753906 42.113281 92.296875 42.226562 91.828125 C 42.339844 91.359375 42.570312 90.96875 42.570312 90.96875 C 42.570312 90.96875 43.035156 90.1875 43.113281 89.996094 C 43.191406 89.808594 44.152344 88.699219 44.152344 88.699219 C 44.152344 88.699219 44.644531 88.292969 45.464844 87.785156 C 46.28125 87.285156 47.019531 87.328125 47.019531 87.328125 C 47.019531 87.328125 47.230469 87.300781 48.679688 87.480469 C 50.132812 87.664062 53.117188 88.449219 53.863281 88.648438 C 54.605469 88.84375 55.488281 89.15625 56.070312 89.472656 C 57.726562 90.375 58.230469 89.992188 56.910156 88.964844 C 56.023438 88.273438 55.773438 87.960938 55.058594 87.308594 C 54.453125 86.761719 53.980469 86.390625 53.53125 85.878906 C 53.085938 85.363281 51.792969 83.472656 51.792969 83.472656 L 50.996094 82.289062 C 50.996094 82.289062 50.558594 81.8125 50.492188 81.773438 C 50.425781 81.738281 50.203125 81.566406 50.203125 81.566406 C 50.203125 81.566406 49.675781 81.597656 49.125 81.488281 C 48.574219 81.386719 48.3125 82.152344 48.3125 82.152344 C 48.3125 82.152344 47.121094 84.371094 45.910156 85.730469 C 43.949219 87.9375 42.542969 89.441406 41.816406 90.609375 C 40.804688 92.238281 41.023438 94.019531 40.503906 94.84375 C 40.199219 95.328125 40.035156 95.398438 39.867188 95.820312 C 39.359375 97.097656 41.207031 97.800781 40.785156 99.21875 C 40.113281 101.46875 34.828125 103.695312 34.125 103.324219 C 33.398438 102.941406 33.992188 99.902344 34.238281 98.914062 C 34.488281 97.921875 35.226562 96.472656 35.296875 96.394531 C 35.363281 96.320312 35.539062 95.980469 35.597656 95.6875 C 35.65625 95.394531 35.671875 94.742188 35.710938 94.371094 C 35.746094 94.003906 35.894531 93.425781 35.894531 93.425781 C 35.894531 93.425781 35.917969 93.308594 36.382812 92.289062 C 36.851562 91.273438 38.574219 88.910156 39.8125 86.65625 C 40.617188 85.183594 40.957031 84.289062 41.769531 82.820312 C 42.519531 81.460938 43.800781 79.398438 43.800781 79.398438 C 43.800781 79.398438 44.34375 78.34375 44.601562 77.953125 C 44.859375 77.550781 45.398438 76.789062 45.902344 76.039062 C 46.414062 75.296875 46.539062 74.734375 47.210938 74.117188 C 47.765625 73.605469 48.136719 73.335938 48.859375 73.101562 C 49.933594 72.746094 50.671875 72.941406 51.761719 73.246094 C 52.90625 73.554688 53.6875 74.074219 54.429688 74.691406 C 55.167969 75.308594 55.722656 75.996094 55.722656 75.996094 L 56.082031 76.527344 L 56.304688 76.660156 L 57 77.101562 L 58.582031 78.148438 C 58.582031 78.148438 62.332031 80.691406 62.539062 80.828125 C 62.742188 80.957031 63.410156 81.511719 63.546875 81.558594 C 63.683594 81.59375 64.6875 80.515625 66.644531 79.164062 C 68.914062 77.601562 69.722656 77.71875 70.464844 77.3125 C 71.207031 76.90625 71.515625 76.5625 72.097656 75.984375 C 72.976562 75.101562 72.980469 74.636719 73.980469 73.410156 C 74.988281 72.183594 75.929688 71.5 75.929688 71.5 C 75.929688 71.5 76.066406 71.363281 77.859375 69.347656 C 79.652344 67.332031 80.441406 65.804688 80.441406 65.804688 L 81.425781 63.847656 C 81.425781 63.847656 82.847656 60.800781 83.304688 59.59375 C 83.761719 58.382812 83.761719 57.976562 83.761719 57.976562 C 83.761719 57.976562 83.828125 57.664062 83.480469 57.050781 C 83.128906 56.4375 82.761719 56.714844 82.085938 56.855469 C 80.777344 57.132812 79.988281 56.792969 78.671875 56.566406 C 77.460938 56.359375 76.832031 56.007812 75.625 55.800781 C 74.398438 55.597656 73.683594 55.402344 72.457031 55.519531 C 72.269531 55.535156 71.890625 55.609375 71.710938 55.671875 C 71.023438 55.90625 70.828125 55.957031 70.3125 56.25 C 69.71875 56.53125 69.324219 56.625 68.664062 56.640625 C 68.207031 56.644531 67.925781 56.660156 67.503906 56.496094 C 67.214844 56.386719 67.050781 56.300781 66.816406 56.09375 C 66.675781 55.964844 66.605469 55.886719 66.496094 55.726562 C 66.484375 55.59375 66.441406 55.601562 66.566406 55.394531 C 66.6875 55.183594 66.847656 55.144531 66.847656 55.144531 L 67.410156 55.007812 C 67.410156 55.007812 68.203125 54.796875 68.269531 54.78125 C 68.339844 54.761719 69.097656 54.515625 69.429688 54.414062 C 69.765625 54.308594 70.132812 54.117188 70.132812 54.117188 C 70.132812 54.117188 70.339844 53.796875 70.257812 53.605469 C 70.164062 53.394531 69.714844 53.378906 69.714844 53.378906 C 69.714844 53.378906 69.078125 53.605469 69.007812 53.621094 C 68.941406 53.640625 67.9375 53.957031 67.9375 53.957031 C 67.9375 53.957031 67.144531 54.128906 66.535156 54.273438 C 65.921875 54.414062 65.039062 54.484375 65.039062 54.484375 L 64.777344 54.414062 C 64.777344 54.414062 64.46875 54.210938 64.425781 54.011719 C 64.382812 53.824219 64.351562 53.679688 64.316406 53.46875 C 64.191406 52.695312 64.035156 52.21875 64.214844 51.457031 C 64.289062 51.136719 64.363281 50.964844 64.503906 50.660156 C 64.621094 50.410156 64.695312 50.269531 64.847656 50.03125 L 65.335938 49.246094 L 66.25 47.898438 C 66.5625 47.578125 66.769531 47.421875 67.164062 47.207031 C 67.75 46.878906 68.089844 46.785156 68.8125 46.703125 C 69.53125 46.628906 69.625 46.636719 70.640625 46.410156 C 71.660156 46.183594 72.382812 45.777344 72.382812 45.777344 C 72.382812 45.777344 74.8125 44.886719 76.296875 44.160156 C 77.847656 43.402344 78.53125 42.589844 80.140625 41.960938 C 80.820312 41.695312 81.214844 41.574219 81.914062 41.398438 C 82.003906 41.335938 82.046875 41.28125 82.074219 41.183594 C 82.144531 40.925781 81.746094 40.804688 81.476562 40.835938 C 81.238281 40.855469 80.683594 41.109375 80.558594 40.839844 C 80.457031 40.621094 81.066406 40.496094 81.066406 40.496094 C 81.066406 40.496094 81.351562 40.363281 81.351562 40.203125 C 81.363281 39.964844 80.941406 40.117188 80.753906 40.101562 C 79.816406 39.996094 79.742188 39.824219 79.085938 39.664062 C 78.3125 39.472656 77.894531 39.234375 77.101562 39.207031 C 76.394531 39.171875 75.730469 39.328125 75.292969 39.433594 C 74.851562 39.539062 74.839844 39.109375 75.011719 39.03125 C 76.25 38.453125 76.273438 38.402344 77.148438 38.363281 C 77.625 38.347656 78.292969 38.453125 78.367188 38.484375 C 78.4375 38.523438 79.394531 38.476562 79.640625 38.230469 C 79.886719 37.988281 78.851562 37.996094 78.367188 37.804688 C 77.921875 37.625 77.234375 37.578125 77.25 37.28125 C 77.269531 36.984375 77.601562 37.144531 77.839844 37.089844 C 78.132812 37.019531 78.308594 37.023438 78.613281 36.980469 C 79.160156 36.90625 79.210938 36.863281 80.019531 36.789062 C 80.828125 36.71875 81.988281 37.050781 81.988281 37.050781 C 81.988281 37.050781 83.199219 37.59375 83.792969 37.871094 C 84.390625 38.15625 85.113281 38.292969 85.113281 38.292969 C 85.113281 38.292969 85.953125 38.421875 86.601562 38.011719 C 87.257812 37.605469 86.890625 37.351562 86.65625 36.984375 C 86.433594 36.632812 86.148438 36.140625 86.566406 35.191406 C 86.9375 34.367188 87.125 33.410156 87.238281 33.320312 C 87.359375 33.214844 87.882812 33.949219 88.207031 34.257812 C 89.394531 35.363281 90.972656 35.914062 92.449219 38.230469 C 92.5625 38.414062 93.121094 38.117188 94.839844 38.378906 C 96.5625 38.644531 98.054688 40.480469 98.441406 40.917969 C 98.828125 41.355469 99.335938 41.339844 99.335938 41.339844 L 100.164062 41.449219 L 103.164062 41.5 C 103.164062 41.5 104.527344 41.257812 105.3125 41.554688 C 105.863281 41.753906 107.691406 42.976562 106.855469 43.441406 C 106.273438 43.765625 105.722656 43.054688 105.199219 43.015625 C 104.574219 42.976562 104.296875 43.089844 103.742188 43.230469 C 102.578125 43.523438 100.082031 44.277344 100.988281 44.582031 C 101.0625 44.605469 101.179688 44.628906 101.179688 44.628906 L 101.636719 44.703125 C 101.636719 44.703125 102.734375 44.953125 103.390625 45.214844 C 104.394531 45.613281 104.859375 46.046875 105.796875 46.589844 C 106.316406 46.894531 106.554688 47.199219 107.128906 47.367188 C 107.660156 47.523438 107.996094 47.363281 108.535156 47.460938 C 109.25 47.585938 109.648438 47.726562 110.296875 48.035156 C 111.257812 48.503906 111.617188 49.0625 112.488281 49.683594 C 112.914062 49.996094 113.277344 50.046875 113.601562 50.464844 C 113.675781 50.5625 113.742188 50.605469 113.773438 50.71875 C 113.890625 51.105469 113.140625 50.878906 112.742188 50.816406 C 112.300781 50.742188 112.109375 50.527344 111.707031 50.339844 C 111.109375 50.0625 110.824219 49.746094 110.167969 49.625 C 109.6875 49.539062 109.40625 49.609375 108.921875 49.632812 C 108.453125 49.65625 108.195312 49.726562 107.726562 49.734375 C 106.917969 49.746094 106.460938 49.671875 105.671875 49.511719 C 104.785156 49.328125 104.351562 48.976562 103.457031 48.796875 C 102.472656 48.59375 100.703125 47.742188 100.878906 48.589844 C 100.964844 49 101.902344 49.34375 101.902344 49.34375 C 101.902344 49.34375 102.535156 49.691406 103.148438 49.957031 C 103.765625 50.21875 104.097656 50.621094 104.097656 50.621094 L 104.519531 50.9375 C 104.519531 50.9375 104.957031 51.53125 105.519531 52.199219 C 106.082031 52.867188 107.0625 52.847656 107.0625 52.847656 C 107.0625 52.847656 107.660156 52.847656 108.945312 53.109375 C 110.226562 53.375 111.542969 54.160156 111.542969 54.160156 C 111.542969 54.160156 112.546875 54.839844 113.121094 55.527344 C 113.699219 56.207031 113.367188 56.554688 113.300781 56.628906 C 113.230469 56.699219 113.25 56.664062 113.179688 56.699219 C 113.109375 56.734375 112.386719 55.84375 112.386719 55.84375 L 111.878906 55.402344 C 111.878906 55.402344 111.367188 55.054688 110.714844 54.839844 C 110.066406 54.628906 109.855469 54.773438 109.855469 54.773438 C 109.855469 54.773438 108.46875 55.15625 107.277344 55.121094 C 106.078125 55.089844 105.445312 54.617188 105.445312 54.617188 L 104.6875 54.109375 C 104.6875 54.109375 103.550781 53.042969 103.515625 53.546875 C 103.488281 53.890625 104.015625 54.265625 104.015625 54.265625 C 104.015625 54.265625 104.386719 54.640625 104.628906 54.871094 C 105.082031 55.316406 105.269531 55.546875 105.796875 56.015625 C 106.320312 56.492188 106.65625 56.492188 106.65625 56.492188 C 106.65625 56.492188 106.9375 56.554688 107.042969 56.574219 C 107.148438 56.59375 107.339844 56.648438 107.339844 56.648438 C 107.339844 56.648438 107.515625 56.714844 108.34375 57.050781 C 109.167969 57.382812 110.046875 58.101562 110.046875 58.101562 C 110.046875 58.101562 110.132812 58.175781 110.253906 58.1875 C 110.378906 58.207031 110.625 58.324219 110.695312 58.347656 C 110.765625 58.363281 110.976562 58.363281 111.453125 58.429688 C 111.925781 58.503906 111.75 58.800781 111.75 58.800781 L 111.664062 58.921875 L 111.277344 59.183594 C 111.277344 59.183594 110.765625 59.328125 110.414062 59.34375 C 110.0625 59.359375 109.574219 59.167969 109.574219 59.167969 L 108.5 58.765625 C 108.5 58.765625 107.429688 58.488281 107.203125 58.449219 C 106.96875 58.417969 106.003906 58.226562 105.851562 58.1875 C 105.691406 58.152344 105.199219 57.976562 105.078125 57.910156 C 104.953125 57.835938 104.707031 57.785156 104.132812 57.503906 C 103.550781 57.222656 103.316406 56.890625 102.597656 56.664062 C 101.878906 56.433594 101.441406 56.386719 100.894531 56.769531 C 99.96875 57.410156 102.304688 57.511719 103.472656 58.089844 C 105.1875 58.929688 106.15625 59.554688 106.566406 60.46875 C 106.976562 61.382812 107.394531 61.714844 107.394531 61.714844 C 107.394531 61.714844 108.597656 62.324219 109.148438 62.957031 C 109.441406 63.300781 109.492188 63.585938 109.78125 63.933594 C 110.449219 64.707031 111.730469 64.667969 111.992188 65.324219 C 112.234375 65.941406 110.949219 65.664062 110.28125 65.601562 C 109.070312 65.484375 108.78125 64.386719 107.65625 63.9375 C 107.023438 63.6875 106.613281 63.683594 105.960938 63.464844 C 104.78125 63.078125 104.226562 62.566406 103.042969 62.199219 C 102.328125 61.980469 101.023438 61.03125 101.175781 61.761719 C 101.214844 61.941406 101.316406 62.074219 101.371094 62.179688 C 101.421875 62.285156 101.722656 62.667969 101.722656 62.667969 C 101.722656 62.667969 102.128906 63.195312 102.304688 63.332031 C 102.476562 63.476562 103.25 64.054688 104.339844 64.648438 C 105.429688 65.242188 106.375 66.382812 106.375 66.382812 C 106.375 66.382812 106.699219 66.847656 106.855469 67.171875 C 107.015625 67.53125 106.90625 67.644531 107.148438 68.148438 C 107.398438 68.65625 107.519531 68.753906 107.835938 69.0625 C 108.628906 69.832031 109.464844 69.679688 110.488281 70.097656 C 110.761719 70.203125 110.78125 70.253906 111.085938 70.570312 C 111.378906 70.886719 111.03125 71.023438 111.03125 71.023438 C 111.03125 71.023438 109.898438 71.308594 109.167969 71.25 C 108.214844 71.171875 107.796875 70.886719 106.867188 70.429688 C 105.941406 69.972656 105.445312 69.148438 105.355469 69.09375 C 105.269531 69.042969 105.042969 68.796875 104.867188 68.671875 C 104.691406 68.554688 104.242188 68.453125 103.832031 68.339844 C 103.429688 68.230469 103.183594 68.210938 102.777344 68.097656 C 102.21875 67.941406 101.636719 67.695312 101.375 67.609375 C 101.109375 67.523438 100.5 67.410156 100.066406 67.671875 C 99.179688 68.191406 101.425781 68.546875 102.128906 69.285156 C 102.488281 69.667969 102.632812 69.933594 102.972656 70.324219 C 103.230469 70.625 103.335938 70.835938 103.65625 71.078125 C 103.878906 71.238281 104.273438 71.40625 104.273438 71.40625 C 104.273438 71.40625 104.8125 71.65625 105.605469 72.089844 C 106.398438 72.527344 107.328125 73.757812 107.328125 73.757812 L 107.890625 74.613281 L 108.226562 75.105469 L 108.3125 75.332031 L 108.433594 75.613281 C 108.433594 75.613281 108.839844 76.136719 109.136719 76.308594 C 109.4375 76.484375 109.382812 76.644531 109.382812 76.644531 C 109.382812 76.644531 109.347656 76.75 109.136719 76.871094 C 108.925781 76.996094 108.820312 76.890625 108.523438 76.800781 C 108.21875 76.71875 108.03125 76.433594 107.769531 76.226562 C 107.503906 76.011719 107.214844 75.488281 106.730469 75.1875 C 106.304688 74.933594 105.75 74.84375 105.535156 74.769531 C 105.324219 74.699219 104.796875 74.371094 104.585938 74.28125 C 104.375 74.195312 103.832031 73.945312 103.832031 73.945312 C 103.832031 73.945312 102.769531 73.351562 102.195312 73.191406 C 101.613281 73.035156 101.980469 73.390625 101.980469 73.390625 C 101.980469 73.390625 102.507812 74.199219 103.003906 74.527344 C 103.652344 74.957031 104.566406 75.335938 104.269531 75.683594 C 104.070312 75.914062 103.796875 75.828125 103.5 75.792969 C 103.011719 75.742188 102.425781 75.15625 102.425781 75.15625 C 102.425781 75.15625 102.179688 75 101.089844 74.648438 C 100 74.296875 100.402344 74.894531 100.648438 75.207031 C 100.898438 75.523438 101.234375 75.699219 101.234375 75.699219 L 101.964844 76.03125 L 102.304688 76.136719 C 102.304688 76.136719 102.597656 76.1875 103.585938 76.417969 C 104.566406 76.644531 105.113281 77.117188 105.113281 77.117188 C 105.113281 77.117188 105.640625 77.613281 106.375 78.152344 C 107.121094 78.691406 107.855469 78.835938 108.253906 78.890625 C 108.660156 78.9375 108.644531 79.222656 108.644531 79.222656 C 108.644531 79.222656 108.699219 79.480469 108.679688 79.570312 C 108.660156 79.65625 108.570312 79.726562 108.488281 79.726562 C 108.394531 79.726562 108.363281 79.761719 108.257812 79.816406 C 108.152344 79.867188 107.730469 79.9375 107.730469 79.9375 C 107.730469 79.9375 106.625 79.902344 105.765625 79.695312 C 104.902344 79.480469 104.152344 78.890625 104.074219 78.851562 C 104.007812 78.816406 103.199219 78.378906 102.65625 78.203125 C 102.105469 78.027344 101.25 78.101562 101.164062 78.132812 C 101.074219 78.167969 100.773438 78.222656 100.261719 78.359375 C 99.757812 78.5 100.390625 78.691406 100.390625 78.691406 L 100.757812 78.730469 L 101.636719 78.796875 C 101.636719 78.796875 102.53125 78.90625 103.304688 79.1875 C 104.074219 79.464844 104.570312 80.027344 105.078125 80.535156 C 105.585938 81.042969 106.152344 81.375 106.152344 81.375 L 106.550781 81.636719 L 106.765625 81.792969 L 106.816406 81.933594 C 106.816406 81.933594 106.800781 82.007812 106.765625 82.089844 C 106.730469 82.183594 106.609375 82.25 106.609375 82.25 C 106.609375 82.25 106.414062 82.214844 106.324219 82.214844 C 106.234375 82.214844 105.664062 81.910156 105.238281 81.722656 C 104.789062 81.527344 104.566406 81.347656 104.09375 81.234375 C 103.683594 81.136719 103.144531 81.097656 103.027344 81.128906 C 102.902344 81.164062 102.007812 81.289062 101.320312 81.339844 C 100.636719 81.394531 100.03125 81.402344 99.222656 81.300781 C 98.058594 81.164062 96.523438 80.25 96.328125 80.507812 C 95.925781 81.035156 97.15625 81.191406 97.742188 81.53125 C 98.558594 81.996094 99.96875 82.425781 99.96875 82.425781 C 99.96875 82.425781 100.996094 82.65625 101.597656 82.933594 C 102.917969 83.542969 103.320312 84.445312 104.378906 85.402344 C 104.96875 85.9375 105.433594 86.164062 106.222656 86.277344 C 106.898438 86.375 106.890625 86.296875 107.960938 86.085938 C 109.027344 85.875 109.6875 84.859375 109.996094 85.226562 C 110.058594 85.304688 110.035156 85.367188 110.011719 85.472656 C 109.996094 85.574219 109.910156 85.769531 109.910156 85.769531 C 109.910156 85.769531 109.785156 85.945312 109.59375 86.136719 C 109.402344 86.328125 108.664062 86.734375 108.277344 86.890625 C 107.890625 87.050781 106.941406 87.3125 105.75 87.273438 C 104.550781 87.242188 102.882812 86.332031 102.882812 86.332031 L 101.671875 85.824219 C 101.671875 85.824219 101.113281 85.558594 100.746094 85.417969 C 99.742188 85.046875 99.109375 85.082031 98.070312 84.804688 C 97.425781 84.636719 97.015625 84.457031 96.4375 84.335938 C 95.855469 84.21875 96.179688 84.441406 96.246094 84.53125 C 96.519531 84.894531 96.878906 85.011719 97.335938 85.230469 C 97.945312 85.523438 98.371094 85.464844 99.003906 85.71875 C 99.699219 86.003906 100.304688 86.40625 100.6875 86.648438 C 101.074219 86.894531 101.355469 87.164062 101.726562 87.558594 L 103.007812 88.644531 C 103.007812 88.644531 103.308594 88.890625 103.339844 88.992188 C 103.378906 89.097656 103.519531 89.359375 103.445312 89.78125 C 103.378906 90.203125 103.03125 89.90625 103.03125 89.90625 L 102.691406 89.699219 L 102.359375 89.382812 L 101.816406 88.941406 C 101.816406 88.941406 101.355469 88.523438 100.570312 88.117188 C 99.777344 87.71875 98.828125 87.609375 98.828125 87.609375 C 98.828125 87.609375 97.984375 87.484375 98.015625 87.75 C 98.054688 88.015625 98.25 88.035156 98.914062 88.207031 C 99.582031 88.382812 100.023438 88.710938 100.023438 88.710938 C 100.023438 88.710938 100.707031 89.222656 101.195312 89.78125 C 101.691406 90.34375 101.828125 90.882812 101.828125 90.882812 C 101.828125 90.882812 102.074219 91.339844 102.707031 91.953125 C 103.339844 92.566406 103.675781 92.359375 103.636719 92.652344 C 103.605469 92.949219 103.320312 93.003906 103.320312 93.003906 C 103.320312 93.003906 103.164062 92.988281 103.09375 92.988281 C 103.027344 92.988281 102.863281 92.898438 102.6875 92.832031 C 102.515625 92.757812 101.847656 92.304688 101.847656 92.304688 C 101.847656 92.304688 100.808594 91.464844 100.683594 91.375 C 100.566406 91.289062 99.582031 90.554688 99.582031 90.554688 C 99.582031 90.554688 99.003906 90.1875 98.582031 89.972656 C 98.164062 89.761719 97.601562 89.554688 97.28125 89.449219 C 96.960938 89.34375 96.386719 89.308594 96.386719 89.308594 C 96.386719 89.308594 95.679688 89.207031 95.265625 89.046875 C 94.589844 88.792969 93.808594 88.078125 93.722656 88.042969 C 93.636719 88.007812 93.003906 87.796875 92.882812 87.816406 C 92.761719 87.835938 92.480469 89.007812 92.414062 89.683594 C 92.128906 92.527344 92.886719 94.414062 94.058594 97.019531 C 95.765625 100.808594 100.496094 105.515625 100.496094 105.515625 C 100.496094 105.515625 101.683594 106.191406 102.1875 106.589844 C 103.605469 107.695312 105.949219 109.257812 108.023438 111.324219 C 109.796875 113.09375 112.164062 116.242188 112.164062 116.242188 C 112.164062 116.242188 113.523438 118.140625 114.15625 119.484375 C 114.933594 121.132812 115.554688 123.640625 115.554688 123.640625 C 115.554688 123.640625 115.609375 124.078125 115.660156 124.164062 C 115.707031 124.257812 115.820312 124.367188 115.910156 124.371094 L 116.738281 124.398438 C 116.824219 124.398438 117.761719 124.324219 118.378906 124.171875 C 119 124.019531 120.464844 123.351562 121.433594 122.84375 C 122.398438 122.339844 123.5625 121.359375 123.5625 121.359375 C 123.5625 121.359375 123.78125 121.171875 124.914062 119.917969 C 126.046875 118.660156 126.78125 116.773438 127.050781 116.066406 C 127.316406 115.355469 127.542969 114 127.710938 111.671875 C 127.886719 109.347656 127.566406 106.882812 127.566406 106.882812 C 127.566406 106.882812 127.140625 103.449219 126.878906 102.285156 C 126.625 101.117188 126.003906 99.222656 126.003906 99.222656 C 126.003906 99.222656 125.570312 97.523438 125.425781 96.453125 C 125.292969 95.378906 125.265625 93.640625 125.265625 93.640625 C 125.265625 93.640625 125.265625 92.574219 125.621094 90.605469 C 125.972656 88.640625 127.183594 86.664062 127.183594 86.664062 C 127.183594 86.664062 127.519531 86 128.828125 84.441406 C 130.15625 82.859375 130.582031 82.601562 131.894531 81.65625 C 132.933594 80.90625 134.289062 79.710938 134.726562 79.992188 C 135.214844 80.300781 134.25 80.90625 133.929688 81.222656 C 133.113281 82.027344 131.574219 83.464844 130.332031 85.617188 C 129.253906 87.484375 128.851562 88.71875 128.578125 89.9375 C 128.308594 91.15625 128.421875 92.488281 128.457031 92.945312 C 128.492188 93.402344 128.75 93.238281 128.75 93.238281 C 128.75 93.238281 131.378906 91.132812 132.808594 89.527344 C 134.367188 87.800781 135.738281 84.726562 136.28125 84.699219 C 136.644531 84.679688 136.816406 85.503906 136.730469 85.878906 C 136.386719 87.476562 136.277344 87.679688 135.761719 88.730469 C 135.15625 89.953125 134.609375 90.5 133.785156 91.613281 C 132.90625 92.789062 132.488281 93.242188 131.789062 94.792969 C 130.777344 97.03125 131.367188 98.761719 131.367188 98.761719 C 131.367188 98.761719 131.488281 99.8125 131.964844 99.796875 C 132.757812 99.769531 134.5 97.582031 135.632812 95.789062 C 136.46875 94.472656 136.777344 92.953125 137.328125 92.160156 C 137.820312 91.449219 138.265625 93.308594 138.054688 94.40625 C 137.808594 95.703125 137.160156 96.867188 135.746094 98.707031 C 134.359375 100.503906 134.40625 102.210938 134.40625 102.210938 C 134.40625 102.210938 134.253906 102.996094 134.144531 104.691406 C 134.035156 106.390625 134.519531 108.964844 134.519531 108.964844 C 134.519531 108.964844 134.960938 111.113281 135.042969 112.75 C 135.125 114.378906 135.070312 118.113281 133.535156 121.003906 C 132.925781 122.167969 131.613281 123.78125 131.613281 123.78125 C 131.613281 123.78125 130.613281 124.808594 129.777344 125.410156 C 128.949219 126.011719 126.96875 126.941406 126.96875 126.941406 C 126.96875 126.941406 125.601562 127.421875 125.402344 127.464844 C 125.207031 127.515625 125.078125 127.683594 125.078125 127.683594 C 125.078125 127.683594 125.207031 127.949219 125.261719 128.054688 C 125.308594 128.164062 125.695312 129.105469 125.695312 129.105469 C 125.695312 129.105469 126.109375 130.449219 126.261719 131.511719 C 126.417969 132.566406 126.238281 132.808594 126.082031 133.625 C 125.933594 134.398438 125.59375 134.039062 125.507812 135.566406 C 125.429688 136.917969 126.050781 137.589844 125.933594 139.101562 C 125.886719 139.761719 125.132812 138.273438 124.773438 137.636719 C 124 136.246094 124.1875 134.132812 124.167969 133.609375 C 124.148438 133.082031 124.109375 132.507812 123.914062 131.828125 C 123.667969 130.976562 123.320312 130.300781 122.914062 129.777344 C 122.511719 129.257812 122.082031 128.960938 121.933594 129.011719 C 121.796875 129.058594 121.789062 129.339844 121.78125 129.476562 C 121.773438 129.617188 122.058594 130.117188 122.128906 130.226562 C 122.191406 130.335938 122.703125 131.265625 122.703125 131.265625 C 122.703125 131.265625 122.925781 131.972656 123.023438 133.359375 C 123.109375 134.75 122.683594 136.449219 122.683594 136.449219 C 122.683594 136.449219 122.128906 138.382812 121.539062 139.511719 C 120.886719 140.765625 119.445312 142.46875 119.445312 142.46875 C 119.445312 142.46875 118.414062 143.414062 117.640625 144.964844 C 116.867188 146.515625 117.53125 147.195312 117.242188 147.386719 C 116.949219 147.589844 116.335938 146.496094 116.171875 145.757812 C 116.019531 145.074219 116.097656 144.75 116.375 143.972656 C 116.640625 143.234375 117.265625 142.167969 117.265625 142.167969 L 118.199219 140.585938 C 118.199219 140.585938 119.3125 138.449219 119.660156 136.90625 C 120.015625 135.359375 119.617188 133.644531 119.617188 133.644531 C 119.617188 133.644531 119.566406 133.082031 119.179688 133.101562 C 118.792969 133.121094 118.511719 133.46875 118.355469 133.875 C 118.03125 134.726562 118.488281 134.574219 118 135.988281 C 117.613281 137.101562 117.515625 136.953125 117.308594 137.613281 C 117.070312 138.40625 116.9375 139.210938 116.953125 139.710938 C 116.972656 140.203125 116.699219 139.996094 116.699219 139.996094 C 116.699219 139.996094 116.230469 139.113281 116.230469 138.023438 C 116.230469 137.429688 116.253906 137.09375 116.324219 136.5 C 116.429688 135.550781 116.816406 134.089844 116.816406 134.089844 C 116.816406 134.089844 117.242188 132.652344 117.148438 131.335938 C 117.058594 130.019531 116.59375 129.773438 116.59375 129.773438 C 116.59375 129.773438 116.472656 129.589844 115.960938 129.625 C 115.449219 129.65625 115.472656 130.574219 115.472656 130.574219 C 115.472656 130.574219 115.316406 131.875 115.113281 132.683594 C 114.550781 134.921875 113.804688 136.09375 112.46875 137.980469 C 111.269531 139.6875 109.632812 141.183594 108.816406 141.886719 C 108.003906 142.597656 105.496094 144.421875 105.496094 144.421875 L 102.5625 146.367188 C 102.5625 146.367188 101.398438 147.5 100.859375 148.847656 C 100.316406 150.195312 100.351562 151.25 100.660156 152.488281 C 100.96875 153.722656 101.421875 154.304688 101.65625 154.640625 C 101.890625 154.984375 102.34375 155.59375 102.488281 156.300781 C 102.582031 156.742188 102.515625 157.007812 102.542969 157.460938 C 102.566406 157.847656 102.621094 158.070312 102.609375 158.457031 C 102.597656 159.078125 102.710938 159.519531 102.359375 160.027344 C 102.09375 160.417969 101.386719 160.75 101.386719 160.75 C 101.386719 160.75 100.59375 161.101562 100.121094 161.390625 C 95.121094 164.398438 93.34375 166.34375 90.53125 169.699219 C 89.632812 170.765625 90.292969 170.703125 89.332031 171.96875 C 88.757812 172.726562 87.421875 172.722656 86.933594 173.632812 C 86.265625 174.863281 88.457031 176.078125 85.921875 177.167969 C 82.667969 178.570312 77.050781 177.566406 76.941406 177.128906 C 76.636719 175.917969 78.039062 174.535156 78.53125 173.992188 C 80.820312 171.5 82.859375 171.4375 83.605469 169.378906 C 83.765625 168.9375 83.707031 168.558594 85.519531 167.21875 C 86.796875 166.277344 91.898438 162.449219 94.125 159.894531 C 94.886719 159.023438 95.550781 158.4375 95.878906 157.488281 C 96.210938 156.535156 95.550781 155.933594 95.550781 155.933594 L 94.632812 154.445312 L 92.878906 151.320312 C 92.878906 151.320312 92.144531 149.660156 91.738281 148.703125 C 91.335938 147.746094 90.566406 145.15625 90.566406 145.15625 C 90.566406 145.15625 89.996094 142.84375 89.90625 141.335938 C 89.734375 138.617188 90.109375 137.035156 90.824219 134.40625 C 91.753906 130.976562 93.859375 129.546875 94.703125 126.164062 C 94.945312 125.179688 94.996094 123.496094 94.5 123.574219 C 94.019531 123.65625 93.980469 124.996094 93.625 125.882812 C 92.269531 129.242188 90.476562 130.714844 89.492188 134.203125 C 88.832031 136.554688 88.570312 137.953125 88.574219 140.398438 C 88.574219 141.792969 88.523438 141.535156 88.886719 143.960938 C 89.019531 144.859375 89.246094 145.335938 89.511719 146.203125 C 89.695312 146.824219 90.195312 147.976562 90.195312 147.976562 C 90.195312 147.976562 90.90625 149.519531 91.140625 150.597656 C 91.222656 150.957031 91.308594 151.171875 91.289062 151.542969 C 91.242188 152.1875 91.351562 152.328125 91.042969 152.90625 C 90.652344 153.625 90.894531 154.050781 89.65625 154.316406 C 88.570312 154.546875 86.324219 153.832031 86.324219 153.832031 C 86.324219 153.832031 77.109375 151.039062 71.226562 151.839844 C 70.0625 152 69.4375 152.421875 68.261719 152.398438 C 67.199219 152.382812 66.652344 151.554688 65.589844 151.871094 C 65.371094 151.9375 65.300781 152.089844 65.113281 152.214844 C 63.550781 153.300781 64.742188 155.101562 60.640625 154.164062 C 58.117188 153.585938 55.066406 152.054688 55.597656 151.085938 C 56.300781 149.800781 57.253906 149.59375 59.246094 148.777344 C 61.371094 147.910156 64.570312 148.15625 65.195312 148.109375 C 65.964844 148.058594 67.074219 147.519531 68.445312 147.492188 C 70.820312 147.453125 71.246094 147.734375 71.246094 147.734375 L 75.285156 148.085938 L 83.003906 148.191406 C 83.003906 148.191406 84.382812 148.078125 84.941406 147.976562 C 85.492188 147.871094 85.933594 146.785156 86.230469 146.265625 C 86.527344 145.753906 86.222656 144.988281 86.222656 144.988281 L 85.988281 144.632812 L 85.257812 143.449219 L 83.898438 141.167969 L 82.390625 138.175781 C 82.390625 138.175781 81.40625 136.082031 80.878906 134.714844 C 80.355469 133.351562 80.054688 132.585938 79.703125 131.171875 C 79.339844 129.71875 79.125 128.539062 79.078125 127.378906 C 79.019531 125.707031 78.914062 124.394531 79.378906 123.027344 "/>
<path style=" stroke:none;fill-rule:nonzero;fill:rgb(100%,100%,100%);fill-opacity:1;" d="M 129.527344 120.246094 C 131.144531 118.164062 131.304688 116.238281 131.398438 113.511719 C 131.476562 111.53125 130.722656 108.480469 130.722656 108.480469 L 130.617188 108.261719 C 130.617188 108.261719 130.332031 107.894531 130.160156 108.378906 C 130.1875 108.808594 130.242188 109.15625 130.242188 109.15625 L 130.339844 113.082031 C 130.339844 113.082031 130.214844 115.0625 129.539062 117.101562 C 128.398438 120.542969 125.378906 122.082031 124.933594 123.3125 C 124.1875 125.378906 127.582031 122.75 129.527344 120.246094 M 112.484375 126.605469 C 112.484375 126.605469 111.816406 126.789062 111.804688 127.445312 C 111.789062 128.101562 111.964844 128.671875 111.953125 129.457031 C 111.933594 130.457031 111.003906 131.628906 111.601562 132 C 112.628906 132.648438 113.507812 128.082031 113.199219 127.40625 C 112.882812 126.734375 112.582031 126.59375 112.484375 126.605469 M 101.011719 158.253906 C 101.011719 158.253906 100.820312 158.152344 100.449219 158.289062 C 100.082031 158.425781 100.105469 158.808594 100.105469 158.808594 C 100.105469 158.808594 100.03125 159.214844 100.332031 159.261719 C 100.628906 159.300781 101.125 158.582031 101.121094 158.496094 C 101.113281 158.414062 101.011719 158.253906 101.011719 158.253906 M 90.226562 165.890625 C 90.226562 165.890625 90.109375 166.003906 90.210938 166.085938 C 90.304688 166.160156 90.441406 166.058594 90.441406 166.058594 C 90.441406 166.058594 92.308594 164.609375 93.410156 163.582031 C 94.578125 162.492188 96.253906 160.613281 96.253906 160.613281 C 96.253906 160.613281 96.371094 160.464844 96.238281 160.34375 C 96.113281 160.226562 95.785156 160.410156 95.523438 160.535156 C 95.292969 160.652344 95.15625 160.789062 94.984375 160.933594 C 94.8125 161.078125 94.269531 161.636719 94.269531 161.636719 L 92.828125 163.039062 L 91.929688 163.878906 L 91.046875 164.722656 L 90.671875 165.144531 C 90.671875 165.144531 90.574219 165.304688 90.550781 165.34375 C 90.527344 165.386719 90.429688 165.511719 90.429688 165.511719 C 90.429688 165.511719 90.296875 165.644531 90.296875 165.675781 C 90.296875 165.707031 90.253906 165.753906 90.25 165.792969 C 90.25 165.835938 90.226562 165.890625 90.226562 165.890625 M 87 168 C 87 168 86.792969 167.835938 86.480469 168 C 86.160156 168.164062 85.824219 168.601562 85.796875 168.648438 C 85.769531 168.695312 85.59375 168.933594 85.710938 169.136719 C 85.832031 169.339844 86.234375 169.042969 86.292969 169.03125 C 86.347656 169.023438 86.875 168.613281 86.875 168.613281 C 86.875 168.613281 87.183594 168.421875 87 168 M 80.828125 174.234375 C 80.828125 174.234375 80.570312 173.738281 80.222656 173.945312 C 79.871094 174.144531 79.6875 174.214844 79.371094 174.648438 C 79.316406 174.730469 78.972656 175.171875 78.910156 175.28125 C 78.847656 175.394531 78.511719 176.039062 79.199219 176.078125 C 80.394531 176.15625 79.613281 175.386719 80.023438 175.09375 C 80.355469 174.863281 80.972656 174.921875 80.980469 174.675781 C 80.992188 174.441406 80.828125 174.234375 80.828125 174.234375 M 59.699219 149.355469 C 59.699219 149.355469 58.980469 149.527344 58.929688 149.777344 C 58.875 150.03125 59.347656 150.277344 59.421875 150.289062 C 59.503906 150.304688 59.667969 150.488281 60.140625 150.167969 C 60.613281 149.847656 60.59375 149.574219 60.59375 149.574219 C 60.59375 149.574219 60.871094 149.253906 59.699219 149.355469 M 71.324219 148.976562 C 71.324219 148.976562 71.316406 148.71875 70.808594 148.746094 C 70.296875 148.773438 70.183594 148.871094 70.175781 148.945312 C 70.160156 149.023438 70.195312 149.15625 70.65625 149.191406 C 71.121094 149.226562 71.308594 149.1875 71.324219 148.976562 M 82.304688 149.296875 C 81.382812 149.285156 81.679688 149.316406 81.109375 149.34375 C 80.074219 149.402344 79.511719 149.359375 78.492188 149.292969 C 77.066406 149.199219 74.851562 148.839844 74.851562 148.839844 C 74.851562 148.839844 74.574219 148.78125 74.464844 148.953125 C 74.359375 149.136719 74.734375 149.515625 75.070312 149.621094 C 76.875 150.183594 76.972656 150.082031 78.207031 150.105469 C 78.894531 150.117188 79.28125 150.046875 79.964844 150 C 80.828125 149.941406 81.234375 150.074219 82.175781 149.824219 C 82.421875 149.761719 82.660156 149.300781 82.304688 149.296875 M 88.5 147.460938 C 88.5 147.460938 88.3125 147.25 87.933594 147.433594 C 87.550781 147.621094 87.324219 148.035156 87.324219 148.035156 C 87.324219 148.035156 87.144531 148.3125 87.523438 148.269531 C 87.898438 148.222656 88.226562 148.0625 88.324219 148.003906 C 88.417969 147.953125 88.691406 147.691406 88.5 147.460938 M 83.109375 73.390625 C 83.109375 73.390625 85.730469 70.941406 87.597656 67.714844 C 88.710938 65.792969 89.191406 61.3125 88.238281 62.433594 C 87.804688 62.9375 87.289062 65.269531 86.460938 66.984375 C 85.285156 69.433594 82.765625 72.902344 82.765625 72.902344 C 82.765625 72.902344 82.226562 74.058594 83.109375 73.390625 M 72.664062 79.589844 C 72.664062 79.589844 72.386719 79.800781 72.511719 80.152344 C 72.640625 80.507812 73.179688 80.238281 73.179688 80.238281 C 73.179688 80.238281 74.378906 79.785156 75.648438 79.734375 C 76.921875 79.683594 78.679688 80.0625 78.679688 80.0625 C 78.679688 80.0625 79.519531 80.292969 79.660156 80.34375 C 79.800781 80.394531 80.257812 80.621094 80.328125 80.648438 C 80.40625 80.671875 80.835938 80.886719 81.078125 80.667969 C 81.328125 80.449219 79.554688 78.847656 77.746094 78.601562 C 74.738281 78.195312 72.757812 79.480469 72.757812 79.480469 L 72.664062 79.589844 M 60.257812 90.164062 C 60.476562 90.339844 61.484375 88.433594 62.328125 87.230469 C 62.941406 86.339844 64.066406 84.859375 64.066406 84.859375 C 64.066406 84.859375 64.566406 84.179688 63.710938 84.558594 C 63.359375 84.714844 62.40625 85.4375 61.734375 86.773438 C 61.160156 87.90625 60.042969 89.980469 60.257812 90.164062 M 53.304688 81.863281 C 53.304688 81.863281 53.089844 82.59375 53.960938 83.523438 C 54.832031 84.449219 55.054688 85.21875 55.613281 84.664062 C 55.765625 84.515625 55.070312 83.261719 54.714844 82.914062 C 54.355469 82.574219 54.09375 82.28125 54.09375 82.28125 L 53.871094 82.097656 L 53.578125 81.941406 L 53.417969 81.875 C 53.414062 81.875 53.367188 81.828125 53.304688 81.863281 M 50.488281 74.769531 C 50.488281 74.769531 49.546875 74.945312 49.3125 75.398438 C 49.082031 75.855469 50.398438 75.578125 50.398438 75.578125 C 50.398438 75.578125 51.273438 75.628906 51.292969 75.296875 C 51.316406 74.960938 51.179688 74.917969 50.488281 74.769531 M 35.53125 99.484375 C 35.054688 99.34375 34.972656 100.289062 34.910156 100.589844 C 34.851562 100.894531 35.121094 101.507812 35.230469 101.5 C 35.34375 101.496094 35.726562 100.902344 35.75 100.605469 C 35.769531 100.3125 35.957031 99.613281 35.53125 99.484375 M 51.0625 117.890625 C 51.0625 117.890625 50.207031 117.214844 50.074219 117.484375 C 49.945312 117.75 50.78125 118.945312 50.78125 118.945312 C 50.78125 118.945312 51.035156 119.332031 51.429688 119.152344 C 51.824219 118.972656 51.683594 118.542969 51.683594 118.542969 C 51.683594 118.542969 51.417969 117.984375 51.0625 117.890625 M 44.582031 97.980469 C 44.582031 97.980469 44.363281 97.925781 44.28125 98.1875 C 44.199219 98.449219 44.210938 98.882812 44.152344 99.398438 C 44.101562 99.804688 44.257812 100.886719 44.257812 100.886719 C 44.257812 100.886719 44.339844 101.738281 44.511719 102.261719 C 44.695312 102.816406 45.195312 103.605469 45.195312 103.605469 C 45.195312 103.605469 45.382812 104.015625 45.609375 104 C 45.835938 103.976562 45.785156 103.703125 45.785156 103.703125 C 45.785156 103.703125 45.066406 100.855469 45.039062 100.566406 C 44.953125 99.621094 44.960938 98.464844 44.960938 98.464844 L 44.953125 98.289062 C 44.953125 98.289062 44.945312 97.992188 44.582031 97.980469 M 45.707031 89.289062 C 45.707031 89.289062 45.308594 89.210938 44.945312 89.972656 C 44.578125 90.742188 44.652344 91.050781 44.683594 91.085938 C 44.714844 91.125 45.007812 91.113281 45.472656 90.402344 C 45.933594 89.695312 45.832031 89.433594 45.832031 89.433594 C 45.832031 89.433594 45.804688 89.289062 45.707031 89.289062 M 56.597656 97.167969 C 56.597656 97.167969 57.082031 97.875 56.164062 97.714844 C 55.246094 97.550781 53.3125 96.035156 52.535156 95.628906 C 51.757812 95.21875 50.484375 95.082031 51.019531 94.613281 C 51.113281 94.527344 51.136719 94.449219 51.296875 94.445312 C 51.457031 94.4375 51.980469 94.644531 52.011719 94.660156 C 52.042969 94.679688 53.402344 95.234375 53.453125 95.253906 C 53.5 95.273438 54.257812 95.597656 54.800781 95.914062 C 55.347656 96.234375 56.226562 96.847656 56.226562 96.847656 L 56.597656 97.167969 M 82.003906 118.96875 C 82.253906 119.757812 79.113281 117.316406 77.429688 116.023438 C 72.964844 112.601562 67.503906 105.582031 68.1875 104.964844 C 68.753906 104.449219 70.992188 107.664062 74.273438 111.203125 C 77.773438 114.980469 81.855469 118.5 82.003906 118.96875 M 95.117188 115.613281 C 94.148438 116.648438 93.800781 117.976562 94.359375 118.96875 C 94.914062 119.929688 95.082031 117.558594 95.691406 116.855469 C 96.214844 116.253906 96.535156 116.34375 97.402344 115.734375 C 98.878906 114.695312 96.351562 114.292969 95.117188 115.613281 M 89.53125 93.460938 C 88.871094 93.351562 88.890625 94.363281 88.984375 95.085938 C 89.429688 98.304688 90.878906 100.789062 92.8125 103.128906 C 93.992188 104.546875 97.222656 107.082031 97.601562 106.675781 C 97.738281 106.53125 94.523438 104.0625 92.480469 100.882812 C 91.035156 98.628906 90.253906 96.714844 90.078125 94.855469 C 90.054688 94.621094 90.109375 93.554688 89.53125 93.460938 M 77.03125 45.722656 C 75.574219 46.511719 73.050781 47.203125 73.050781 47.203125 C 73.050781 47.203125 72.933594 47.449219 73.257812 47.425781 C 75.421875 47.253906 76.242188 46.980469 77.398438 46.476562 C 78.550781 45.976562 79.390625 44.597656 79.390625 44.597656 C 79.390625 44.597656 79.855469 43.75 78.984375 44.449219 C 78.71875 44.664062 77.828125 45.285156 77.03125 45.722656 M 94.597656 40.1875 C 94.597656 40.1875 94.101562 40.078125 93.769531 40.285156 C 93.441406 40.492188 93.535156 40.664062 93.535156 40.664062 C 93.535156 40.664062 94.042969 41.058594 94.414062 41.117188 C 94.78125 41.175781 95.570312 41.515625 95.535156 41.25 C 95.503906 40.984375 95.0625 40.496094 94.914062 40.363281 C 94.757812 40.230469 94.597656 40.1875 94.597656 40.1875 M 86.328125 55.3125 C 86.414062 55.484375 87.890625 55.085938 88.457031 54.769531 C 88.90625 54.519531 89.074219 53.683594 89.074219 53.683594 C 89.074219 53.683594 89.203125 52.871094 89.007812 53.183594 C 88.164062 54.554688 86.246094 55.136719 86.328125 55.3125 M 86.28125 51.535156 C 86.875 50.398438 84.640625 52.722656 83.503906 53.324219 C 82.808594 53.691406 81.683594 54.171875 81.683594 54.171875 C 81.683594 54.171875 81.382812 54.546875 81.800781 54.515625 C 82.21875 54.480469 83.28125 54.847656 84.136719 54.175781 C 84.335938 54.023438 85.238281 52.722656 85.238281 52.722656 C 85.238281 52.722656 85.992188 52.082031 86.28125 51.535156 M 85.9375 56.394531 C 85.980469 56.578125 88.488281 56.515625 89.117188 56.332031 C 89.605469 56.191406 89.871094 55.316406 89.871094 55.316406 C 89.871094 55.316406 90.171875 54.554688 89.921875 54.816406 C 88.785156 55.964844 85.894531 56.203125 85.9375 56.394531 M 45.746094 79.242188 C 45.746094 79.242188 45.367188 79.105469 44.894531 79.816406 C 44.425781 80.515625 42.320312 83.699219 42.699219 84.171875 C 43.140625 84.730469 44.960938 81.324219 45.515625 80.6875 C 46.074219 80.050781 45.851562 79.394531 45.851562 79.394531 C 45.851562 79.394531 45.847656 79.253906 45.746094 79.242188 M 91.617188 136.773438 C 91.398438 137.832031 91.671875 139.988281 92.03125 140.417969 C 92.925781 141.492188 92.378906 138.742188 92.503906 137.777344 C 92.609375 136.875 92.730469 136.566406 93.167969 135.601562 C 93.964844 133.875 92.089844 134.515625 91.617188 136.773438 M 83.941406 44.582031 C 83.941406 44.582031 83.246094 44.59375 82.703125 44.890625 C 82.160156 45.195312 82.015625 45.609375 82.015625 45.609375 C 82.015625 45.609375 81.90625 45.910156 81.980469 46.078125 C 82.140625 46.449219 82.886719 45.890625 83.414062 46.078125 C 83.84375 46.226562 84.046875 46.347656 84.367188 46.738281 C 84.648438 47.078125 85.152344 47.566406 85.464844 47.289062 C 85.777344 47.011719 85.664062 46.324219 85.664062 46.324219 C 85.664062 46.324219 85.292969 45.199219 84.8125 44.878906 C 84.328125 44.558594 83.941406 44.582031 83.941406 44.582031 M 72.40625 52.507812 C 72.40625 52.507812 72.019531 52.570312 72.109375 53.039062 C 72.203125 53.503906 72.453125 53.429688 72.453125 53.429688 C 72.453125 53.429688 73.257812 53.089844 73.203125 52.605469 C 73.15625 52.117188 72.40625 52.507812 72.40625 52.507812 M 66.773438 49.992188 C 66.773438 49.992188 66.351562 50.003906 66.054688 50.527344 C 65.757812 51.046875 65.585938 51.585938 65.585938 51.585938 C 65.585938 51.585938 65.445312 52.273438 65.695312 52.484375 C 65.941406 52.703125 66.210938 52.042969 66.566406 51.792969 C 66.78125 51.636719 66.910156 51.5625 67.132812 51.414062 C 67.433594 51.203125 67.925781 51.472656 67.886719 50.863281 C 67.847656 50.25 67.195312 49.960938 66.773438 49.992188 M 84.96875 43.457031 C 84.96875 43.457031 84.011719 43.320312 84.046875 43.6875 C 84.082031 44.027344 84.570312 43.824219 84.882812 43.964844 C 85.1875 44.097656 85.382812 44.152344 85.628906 44.378906 C 85.808594 44.535156 85.785156 44.847656 86.007812 44.851562 C 86.3125 44.855469 86.25 44.734375 86.25 44.734375 C 86.25 44.734375 85.976562 43.910156 85.613281 43.671875 C 85.257812 43.441406 84.96875 43.457031 84.96875 43.457031 M 95.667969 47.308594 C 95.527344 47.824219 95.441406 48.007812 95.441406 48.007812 C 95.441406 48.007812 95.171875 49.066406 96.246094 48.675781 C 97.3125 48.277344 96.765625 48.445312 97.53125 48.074219 C 98.292969 47.703125 98.269531 47.90625 98.828125 47.933594 C 99.019531 47.9375 99.140625 47.949219 99.425781 47.890625 C 99.664062 47.84375 99.566406 47.554688 99.027344 47.410156 C 98.449219 47.257812 97.730469 47.296875 96.90625 47.285156 C 96.425781 47.28125 95.804688 46.792969 95.667969 47.308594 M 96.136719 43.398438 C 96.136719 43.398438 95.644531 43.289062 95.3125 43.496094 C 94.976562 43.707031 95.074219 43.871094 95.074219 43.871094 C 95.074219 43.871094 95.589844 44.273438 95.953125 44.328125 C 96.320312 44.390625 97.109375 44.726562 97.082031 44.460938 C 97.042969 44.191406 96.601562 43.707031 96.457031 43.570312 C 96.304688 43.441406 96.136719 43.398438 96.136719 43.398438 M 98.023438 50.734375 C 98.023438 50.734375 97.496094 50.628906 97.140625 50.832031 C 96.78125 51.03125 96.886719 51.183594 96.886719 51.183594 C 96.886719 51.183594 97.4375 51.558594 97.824219 51.613281 C 98.214844 51.667969 99.0625 51.988281 99.03125 51.734375 C 98.996094 51.484375 98.527344 51.023438 98.363281 50.894531 C 98.203125 50.769531 98.023438 50.734375 98.023438 50.734375 M 98.179688 53.398438 C 98.179688 53.398438 97.621094 53.277344 97.242188 53.503906 C 96.867188 53.726562 96.980469 53.910156 96.980469 53.910156 C 96.980469 53.910156 97.5625 54.339844 97.972656 54.40625 C 98.390625 54.46875 99.277344 54.835938 99.242188 54.542969 C 99.203125 54.257812 98.710938 53.726562 98.539062 53.582031 C 98.371094 53.4375 98.179688 53.398438 98.179688 53.398438 M 98.433594 55.992188 C 98.433594 55.992188 97.828125 55.855469 97.421875 56.109375 C 97.011719 56.367188 97.132812 56.570312 97.132812 56.570312 C 97.132812 56.570312 97.761719 57.058594 98.210938 57.128906 C 98.660156 57.199219 99.625 57.617188 99.585938 57.292969 C 99.546875 56.964844 99.003906 56.367188 98.820312 56.203125 C 98.636719 56.039062 98.433594 55.992188 98.433594 55.992188 M 98.371094 59.199219 C 98.371094 59.199219 97.769531 59.066406 97.359375 59.320312 C 96.949219 59.574219 97.074219 59.78125 97.074219 59.78125 C 97.074219 59.78125 97.699219 60.265625 98.148438 60.335938 C 98.601562 60.410156 99.574219 60.824219 99.527344 60.496094 C 99.488281 60.171875 98.945312 59.574219 98.761719 59.410156 C 98.578125 59.25 98.371094 59.199219 98.371094 59.199219 M 97.933594 65.453125 C 97.933594 65.453125 97.328125 65.316406 96.917969 65.574219 C 96.511719 65.828125 96.632812 66.03125 96.632812 66.03125 C 96.632812 66.03125 97.257812 66.523438 97.707031 66.589844 C 98.15625 66.664062 99.128906 67.078125 99.085938 66.753906 C 99.046875 66.425781 98.503906 65.828125 98.320312 65.660156 C 98.136719 65.5 97.933594 65.453125 97.933594 65.453125 M 98.339844 62.320312 C 98.339844 62.320312 97.644531 62.167969 97.167969 62.460938 C 96.699219 62.753906 96.839844 62.992188 96.839844 62.992188 C 96.839844 62.992188 97.566406 63.554688 98.082031 63.636719 C 98.605469 63.71875 99.726562 64.199219 99.675781 63.824219 C 99.632812 63.445312 99.003906 62.753906 98.792969 62.566406 C 98.578125 62.375 98.339844 62.320312 98.339844 62.320312 M 97.632812 68.277344 C 97.632812 68.277344 97.140625 68.160156 96.800781 68.375 C 96.460938 68.582031 96.566406 68.753906 96.566406 68.753906 C 96.566406 68.753906 97.082031 69.15625 97.453125 69.210938 C 97.824219 69.269531 98.617188 69.617188 98.585938 69.34375 C 98.550781 69.074219 98.105469 68.582031 97.957031 68.449219 C 97.804688 68.3125 97.632812 68.277344 97.632812 68.277344 M 97.167969 70.988281 C 97.167969 70.988281 96.757812 70.894531 96.476562 71.070312 C 96.195312 71.246094 96.277344 71.382812 96.277344 71.382812 C 96.277344 71.382812 96.707031 71.71875 97.011719 71.765625 C 97.320312 71.816406 97.980469 72.097656 97.953125 71.878906 C 97.929688 71.652344 97.558594 71.246094 97.433594 71.132812 C 97.304688 71.019531 97.167969 70.988281 97.167969 70.988281 M 96.585938 73.457031 C 96.585938 73.457031 96.214844 73.371094 95.960938 73.53125 C 95.710938 73.683594 95.78125 73.8125 95.78125 73.8125 C 95.78125 73.8125 96.167969 74.117188 96.445312 74.15625 C 96.722656 74.203125 97.320312 74.457031 97.300781 74.257812 C 97.273438 74.058594 96.941406 73.6875 96.828125 73.589844 C 96.714844 73.484375 96.585938 73.457031 96.585938 73.457031 M 96 75.480469 C 96 75.480469 95.621094 75.398438 95.371094 75.550781 C 95.121094 75.710938 95.195312 75.839844 95.195312 75.839844 C 95.195312 75.839844 95.582031 76.136719 95.855469 76.179688 C 96.136719 76.226562 96.730469 76.480469 96.703125 76.277344 C 96.679688 76.082031 96.347656 75.710938 96.234375 75.609375 C 96.121094 75.511719 96 75.480469 96 75.480469 M 95.289062 77.832031 C 95.289062 77.832031 94.988281 77.761719 94.789062 77.890625 C 94.582031 78.019531 94.644531 78.121094 94.644531 78.121094 C 94.644531 78.121094 94.957031 78.359375 95.179688 78.402344 C 95.402344 78.433594 95.886719 78.640625 95.867188 78.476562 C 95.84375 78.316406 95.574219 78.019531 95.480469 77.9375 C 95.394531 77.855469 95.289062 77.832031 95.289062 77.832031 M 94.441406 80.03125 C 94.441406 80.03125 94.183594 79.976562 94.011719 80.082031 C 93.832031 80.191406 93.886719 80.28125 93.886719 80.28125 C 93.886719 80.28125 94.15625 80.488281 94.347656 80.519531 C 94.535156 80.550781 94.953125 80.726562 94.941406 80.585938 C 94.921875 80.453125 94.6875 80.191406 94.613281 80.121094 C 94.53125 80.050781 94.441406 80.03125 94.441406 80.03125 M 93.566406 82.121094 C 93.566406 82.121094 93.308594 82.066406 93.136719 82.175781 C 92.957031 82.28125 93.011719 82.371094 93.011719 82.371094 C 93.011719 82.371094 93.285156 82.578125 93.476562 82.609375 C 93.667969 82.640625 94.082031 82.820312 94.066406 82.679688 C 94.042969 82.539062 93.8125 82.28125 93.734375 82.210938 C 93.65625 82.140625 93.566406 82.121094 93.566406 82.121094 M 36.878906 92.753906 C 36.878906 92.753906 36.441406 93.597656 36.65625 94.0625 C 36.871094 94.523438 37.460938 93.320312 37.460938 93.320312 C 37.460938 93.320312 38.070312 92.121094 37.820312 91.898438 C 37.570312 91.675781 37.425781 92.300781 36.878906 92.753906 "/>
<path style=" stroke:none;fill-rule:nonzero;fill:rgb(13.725491%,12.156863%,12.54902%);fill-opacity:1;" d="M 70.117188 167.144531 C 70.117188 167.144531 69.789062 166.722656 69.480469 167.03125 C 69.167969 167.339844 68.765625 167.832031 68.046875 167.785156 C 67.328125 167.730469 67.019531 167.617188 66.613281 167.445312 C 66.214844 167.269531 65.652344 167.003906 65.652344 167.003906 C 65.652344 167.003906 64.1875 166.441406 62.945312 166.414062 C 61.707031 166.378906 59.679688 166.894531 58.699219 167.957031 C 57.71875 169.011719 57.46875 170.109375 57.46875 170.109375 C 57.46875 170.109375 57.140625 172.042969 57.703125 172.921875 C 58.265625 173.8125 58.875 174.761719 60.238281 175.597656 C 61.605469 176.429688 62.203125 176.738281 62.203125 176.738281 L 64.574219 177.828125 L 66.765625 178.652344 C 66.765625 178.652344 69.933594 179.597656 70.320312 181.984375 C 70.703125 184.375 69.265625 187.464844 64.890625 187.75 C 60.585938 188.03125 58.492188 185.945312 57.820312 184.609375 C 57.152344 183.269531 57.535156 182.136719 57.535156 182.136719 L 57.71875 181.769531 L 57.886719 181.6875 C 57.886719 181.6875 58.554688 182.136719 59.210938 182.050781 C 59.867188 181.96875 61.070312 181.183594 60.820312 179.898438 C 60.566406 178.613281 59.414062 178.332031 58.855469 178.378906 C 58.304688 178.425781 55.839844 179.0625 55.792969 182.636719 C 55.742188 186.210938 59.007812 188.113281 59.007812 188.113281 C 59.007812 188.113281 61.320312 189.546875 63.933594 189.4375 C 66.546875 189.316406 68.707031 188.28125 68.707031 188.28125 C 68.707031 188.28125 72.578125 186.363281 72.679688 182.167969 C 72.777344 177.980469 70.117188 176.503906 70.117188 176.503906 C 70.117188 176.503906 69.160156 175.839844 68.289062 175.4375 C 67.417969 175.039062 65.324219 174.03125 65.324219 174.03125 L 63.199219 173.066406 L 61.90625 172.347656 L 61.183594 171.863281 C 61.183594 171.863281 59.460938 170.511719 60.378906 169.039062 C 61.304688 167.570312 63.96875 168.121094 63.96875 168.121094 C 63.96875 168.121094 66.027344 168.554688 67.636719 169.710938 C 69.246094 170.859375 70.183594 172.246094 70.183594 172.246094 L 70.851562 173.335938 L 70.933594 173.484375 L 71.507812 173.289062 C 71.507812 173.289062 70.617188 170.816406 70.449219 169.777344 C 70.28125 168.742188 70.117188 167.144531 70.117188 167.144531 "/>
<path style=" stroke:none;fill-rule:nonzero;fill:rgb(13.725491%,12.156863%,12.54902%);fill-opacity:1;" d="M 95.621094 181.285156 C 95.621094 181.285156 96.199219 181.917969 96.960938 181.917969 C 97.738281 181.917969 98.835938 181.382812 98.820312 179.996094 C 98.804688 178.613281 97.398438 178.242188 97.398438 178.242188 C 97.398438 178.242188 95.269531 177.742188 94.234375 179.898438 C 93.195312 182.050781 93.765625 183.921875 93.765625 183.921875 C 93.765625 183.921875 94.25 186.832031 97.332031 188.550781 C 100.414062 190.269531 103.71875 189 103.71875 189 C 103.71875 189 106.191406 188.179688 108.339844 185.773438 C 110.484375 183.371094 111.503906 180.515625 111.503906 180.515625 L 112.257812 178.644531 L 113.160156 178.660156 C 113.160156 178.660156 114.421875 178.78125 115.304688 178.058594 C 116.199219 177.339844 116.75 176.355469 116.75 176.355469 L 116.867188 176.058594 L 116.292969 175.792969 C 116.292969 175.792969 115.644531 176.640625 114.738281 176.726562 C 113.835938 176.808594 112.894531 176.65625 112.894531 176.65625 L 113.765625 174.332031 C 113.765625 174.332031 114.769531 172.3125 115.058594 171.84375 C 115.34375 171.378906 116.515625 169.875 116.515625 169.875 C 116.515625 169.875 118.925781 169.859375 121.253906 169.375 C 123.585938 168.890625 125.023438 168.308594 125.023438 168.308594 L 127.90625 167.117188 L 128.609375 166.738281 L 128.390625 166.167969 C 128.390625 166.167969 125.796875 167.085938 121.953125 167.523438 C 118.121094 167.957031 115.710938 167.488281 115.710938 167.488281 L 111.351562 166.816406 C 111.351562 166.816406 110.027344 166.605469 109.007812 166.585938 C 107.988281 166.570312 105.90625 166.949219 105.90625 166.949219 C 105.90625 166.949219 103.832031 167.421875 102.898438 168.121094 C 101.953125 168.824219 99.726562 170.464844 100.753906 172.964844 C 101.769531 175.472656 105.941406 174.132812 106.535156 172.277344 C 106.511719 172.296875 106.765625 171.679688 106.765625 171.679688 L 106.835938 171.34375 L 106.480469 171.210938 L 106.0625 171.695312 C 106.0625 171.695312 104.503906 173 103.296875 172.160156 C 102.097656 171.328125 102.914062 170.160156 103.03125 170.027344 C 103.144531 169.894531 103.796875 169.109375 105.355469 168.757812 C 106.917969 168.410156 109.261719 168.976562 109.261719 168.976562 L 111.808594 169.441406 C 111.808594 169.441406 113.214844 169.710938 113.277344 169.710938 C 113.347656 169.710938 113.800781 169.777344 113.800781 169.777344 L 112.910156 170.761719 C 112.910156 170.761719 111.621094 171.996094 110.714844 173.789062 C 109.8125 175.574219 109.394531 176.507812 109.394531 176.507812 L 109.304688 176.640625 C 109.304688 176.640625 108.171875 176.773438 107.453125 177.207031 C 106.730469 177.640625 106.261719 178.3125 106.261719 178.3125 L 105.925781 178.914062 L 106.378906 179.296875 C 106.378906 179.296875 106.898438 178.710938 107.535156 178.546875 C 108.171875 178.378906 108.65625 178.628906 108.65625 178.628906 C 108.65625 178.628906 107.734375 180.898438 107.300781 181.71875 C 106.863281 182.535156 106.125 184.039062 105.089844 185.160156 C 104.054688 186.277344 103.296875 187.25 100.917969 187.582031 C 98.539062 187.914062 96.863281 186.394531 96.246094 185.644531 C 95.621094 184.894531 95.257812 183.753906 95.222656 182.925781 C 95.1875 182.085938 95.621094 181.285156 95.621094 181.285156 "/>
</g>
</svg>
